G04 #@! TF.FileFunction,Legend,Bot*
%FSLAX46Y46*%
G04 Gerber Fmt 4.6, Leading zero omitted, Abs format (unit mm)*
G04 Created by KiCad (PCBNEW 4.0.6-e0-6349~53~ubuntu16.04.1) date Sat Nov 11 19:40:28 2017*
%MOMM*%
%LPD*%
G01*
G04 APERTURE LIST*
%ADD10C,0.100000*%
%ADD11C,0.150000*%
%ADD12C,0.300000*%
%ADD13C,0.400000*%
%ADD14C,0.200000*%
%ADD15C,0.010000*%
G04 APERTURE END LIST*
D10*
D11*
X177002200Y-166007200D02*
X177002200Y-198007200D01*
X285002200Y-198007200D01*
X285002200Y-166007200D01*
X177002200Y-166007200D01*
D10*
D11*
X10000000Y-10000000D02*
X10000000Y-200007200D01*
X287002200Y-200007200D01*
X287002200Y-10000000D01*
X10000000Y-10000000D01*
D10*
D11*
X12000000Y-12000000D02*
X12000000Y-198007200D01*
X285002200Y-198007200D01*
X285002200Y-12000000D01*
X12000000Y-12000000D01*
D10*
D11*
X60000000Y-12000000D02*
X60000000Y-10000000D01*
D10*
D11*
X110000000Y-12000000D02*
X110000000Y-10000000D01*
D10*
D11*
X160000000Y-12000000D02*
X160000000Y-10000000D01*
D10*
D11*
X210000000Y-12000000D02*
X210000000Y-10000000D01*
D10*
D11*
X260000000Y-12000000D02*
X260000000Y-10000000D01*
D10*
D11*
X35990476Y-11588095D02*
X35247619Y-11588095D01*
X35619048Y-11588095D02*
X35619048Y-10288095D01*
X35495238Y-10473810D01*
X35371429Y-10597619D01*
X35247619Y-10659524D01*
D10*
D11*
X85247619Y-10411905D02*
X85309524Y-10350000D01*
X85433333Y-10288095D01*
X85742857Y-10288095D01*
X85866667Y-10350000D01*
X85928571Y-10411905D01*
X85990476Y-10535714D01*
X85990476Y-10659524D01*
X85928571Y-10845238D01*
X85185714Y-11588095D01*
X85990476Y-11588095D01*
D10*
D11*
X135185714Y-10288095D02*
X135990476Y-10288095D01*
X135557143Y-10783333D01*
X135742857Y-10783333D01*
X135866667Y-10845238D01*
X135928571Y-10907143D01*
X135990476Y-11030952D01*
X135990476Y-11340476D01*
X135928571Y-11464286D01*
X135866667Y-11526190D01*
X135742857Y-11588095D01*
X135371429Y-11588095D01*
X135247619Y-11526190D01*
X135185714Y-11464286D01*
D10*
D11*
X185866667Y-10721429D02*
X185866667Y-11588095D01*
X185557143Y-10226190D02*
X185247619Y-11154762D01*
X186052381Y-11154762D01*
D10*
D11*
X235928571Y-10288095D02*
X235309524Y-10288095D01*
X235247619Y-10907143D01*
X235309524Y-10845238D01*
X235433333Y-10783333D01*
X235742857Y-10783333D01*
X235866667Y-10845238D01*
X235928571Y-10907143D01*
X235990476Y-11030952D01*
X235990476Y-11340476D01*
X235928571Y-11464286D01*
X235866667Y-11526190D01*
X235742857Y-11588095D01*
X235433333Y-11588095D01*
X235309524Y-11526190D01*
X235247619Y-11464286D01*
D10*
D11*
X285866667Y-10288095D02*
X285619048Y-10288095D01*
X285495238Y-10350000D01*
X285433333Y-10411905D01*
X285309524Y-10597619D01*
X285247619Y-10845238D01*
X285247619Y-11340476D01*
X285309524Y-11464286D01*
X285371429Y-11526190D01*
X285495238Y-11588095D01*
X285742857Y-11588095D01*
X285866667Y-11526190D01*
X285928571Y-11464286D01*
X285990476Y-11340476D01*
X285990476Y-11030952D01*
X285928571Y-10907143D01*
X285866667Y-10845238D01*
X285742857Y-10783333D01*
X285495238Y-10783333D01*
X285371429Y-10845238D01*
X285309524Y-10907143D01*
X285247619Y-11030952D01*
D10*
D11*
X60000000Y-198007200D02*
X60000000Y-200007200D01*
D10*
D11*
X110000000Y-198007200D02*
X110000000Y-200007200D01*
D10*
D11*
X160000000Y-198007200D02*
X160000000Y-200007200D01*
D10*
D11*
X210000000Y-198007200D02*
X210000000Y-200007200D01*
D10*
D11*
X260000000Y-198007200D02*
X260000000Y-200007200D01*
D10*
D11*
X35990476Y-199595295D02*
X35247619Y-199595295D01*
X35619048Y-199595295D02*
X35619048Y-198295295D01*
X35495238Y-198481010D01*
X35371429Y-198604819D01*
X35247619Y-198666724D01*
D10*
D11*
X85247619Y-198419105D02*
X85309524Y-198357200D01*
X85433333Y-198295295D01*
X85742857Y-198295295D01*
X85866667Y-198357200D01*
X85928571Y-198419105D01*
X85990476Y-198542914D01*
X85990476Y-198666724D01*
X85928571Y-198852438D01*
X85185714Y-199595295D01*
X85990476Y-199595295D01*
D10*
D11*
X135185714Y-198295295D02*
X135990476Y-198295295D01*
X135557143Y-198790533D01*
X135742857Y-198790533D01*
X135866667Y-198852438D01*
X135928571Y-198914343D01*
X135990476Y-199038152D01*
X135990476Y-199347676D01*
X135928571Y-199471486D01*
X135866667Y-199533390D01*
X135742857Y-199595295D01*
X135371429Y-199595295D01*
X135247619Y-199533390D01*
X135185714Y-199471486D01*
D10*
D11*
X185866667Y-198728629D02*
X185866667Y-199595295D01*
X185557143Y-198233390D02*
X185247619Y-199161962D01*
X186052381Y-199161962D01*
D10*
D11*
X235928571Y-198295295D02*
X235309524Y-198295295D01*
X235247619Y-198914343D01*
X235309524Y-198852438D01*
X235433333Y-198790533D01*
X235742857Y-198790533D01*
X235866667Y-198852438D01*
X235928571Y-198914343D01*
X235990476Y-199038152D01*
X235990476Y-199347676D01*
X235928571Y-199471486D01*
X235866667Y-199533390D01*
X235742857Y-199595295D01*
X235433333Y-199595295D01*
X235309524Y-199533390D01*
X235247619Y-199471486D01*
D10*
D11*
X285866667Y-198295295D02*
X285619048Y-198295295D01*
X285495238Y-198357200D01*
X285433333Y-198419105D01*
X285309524Y-198604819D01*
X285247619Y-198852438D01*
X285247619Y-199347676D01*
X285309524Y-199471486D01*
X285371429Y-199533390D01*
X285495238Y-199595295D01*
X285742857Y-199595295D01*
X285866667Y-199533390D01*
X285928571Y-199471486D01*
X285990476Y-199347676D01*
X285990476Y-199038152D01*
X285928571Y-198914343D01*
X285866667Y-198852438D01*
X285742857Y-198790533D01*
X285495238Y-198790533D01*
X285371429Y-198852438D01*
X285309524Y-198914343D01*
X285247619Y-199038152D01*
D10*
D11*
X10000000Y-60000000D02*
X12000000Y-60000000D01*
D10*
D11*
X10000000Y-110000000D02*
X12000000Y-110000000D01*
D10*
D11*
X10000000Y-160000000D02*
X12000000Y-160000000D01*
D10*
D11*
X10690476Y-35216667D02*
X11309524Y-35216667D01*
X10566667Y-35588095D02*
X11000000Y-34288095D01*
X11433333Y-35588095D01*
D10*
D11*
X11092857Y-84907143D02*
X11278571Y-84969048D01*
X11340476Y-85030952D01*
X11402381Y-85154762D01*
X11402381Y-85340476D01*
X11340476Y-85464286D01*
X11278571Y-85526190D01*
X11154762Y-85588095D01*
X10659524Y-85588095D01*
X10659524Y-84288095D01*
X11092857Y-84288095D01*
X11216667Y-84350000D01*
X11278571Y-84411905D01*
X11340476Y-84535714D01*
X11340476Y-84659524D01*
X11278571Y-84783333D01*
X11216667Y-84845238D01*
X11092857Y-84907143D01*
X10659524Y-84907143D01*
D10*
D11*
X11402381Y-135464286D02*
X11340476Y-135526190D01*
X11154762Y-135588095D01*
X11030952Y-135588095D01*
X10845238Y-135526190D01*
X10721429Y-135402381D01*
X10659524Y-135278571D01*
X10597619Y-135030952D01*
X10597619Y-134845238D01*
X10659524Y-134597619D01*
X10721429Y-134473810D01*
X10845238Y-134350000D01*
X11030952Y-134288095D01*
X11154762Y-134288095D01*
X11340476Y-134350000D01*
X11402381Y-134411905D01*
D10*
D11*
X10659524Y-185588095D02*
X10659524Y-184288095D01*
X10969048Y-184288095D01*
X11154762Y-184350000D01*
X11278571Y-184473810D01*
X11340476Y-184597619D01*
X11402381Y-184845238D01*
X11402381Y-185030952D01*
X11340476Y-185278571D01*
X11278571Y-185402381D01*
X11154762Y-185526190D01*
X10969048Y-185588095D01*
X10659524Y-185588095D01*
D10*
D11*
X287002200Y-60000000D02*
X285002200Y-60000000D01*
D10*
D11*
X287002200Y-110000000D02*
X285002200Y-110000000D01*
D10*
D11*
X287002200Y-160000000D02*
X285002200Y-160000000D01*
D10*
D11*
X285692676Y-35216667D02*
X286311724Y-35216667D01*
X285568867Y-35588095D02*
X286002200Y-34288095D01*
X286435533Y-35588095D01*
D10*
D11*
X286095057Y-84907143D02*
X286280771Y-84969048D01*
X286342676Y-85030952D01*
X286404581Y-85154762D01*
X286404581Y-85340476D01*
X286342676Y-85464286D01*
X286280771Y-85526190D01*
X286156962Y-85588095D01*
X285661724Y-85588095D01*
X285661724Y-84288095D01*
X286095057Y-84288095D01*
X286218867Y-84350000D01*
X286280771Y-84411905D01*
X286342676Y-84535714D01*
X286342676Y-84659524D01*
X286280771Y-84783333D01*
X286218867Y-84845238D01*
X286095057Y-84907143D01*
X285661724Y-84907143D01*
D10*
D11*
X286404581Y-135464286D02*
X286342676Y-135526190D01*
X286156962Y-135588095D01*
X286033152Y-135588095D01*
X285847438Y-135526190D01*
X285723629Y-135402381D01*
X285661724Y-135278571D01*
X285599819Y-135030952D01*
X285599819Y-134845238D01*
X285661724Y-134597619D01*
X285723629Y-134473810D01*
X285847438Y-134350000D01*
X286033152Y-134288095D01*
X286156962Y-134288095D01*
X286342676Y-134350000D01*
X286404581Y-134411905D01*
D10*
D11*
X285661724Y-185588095D02*
X285661724Y-184288095D01*
X285971248Y-184288095D01*
X286156962Y-184350000D01*
X286280771Y-184473810D01*
X286342676Y-184597619D01*
X286404581Y-184845238D01*
X286404581Y-185030952D01*
X286342676Y-185278571D01*
X286280771Y-185402381D01*
X286156962Y-185526190D01*
X285971248Y-185588095D01*
X285661724Y-185588095D01*
D10*
D11*
X200359343Y-193785771D02*
X200359343Y-192285771D01*
X200716486Y-192285771D01*
X200930771Y-192357200D01*
X201073629Y-192500057D01*
X201145057Y-192642914D01*
X201216486Y-192928629D01*
X201216486Y-193142914D01*
X201145057Y-193428629D01*
X201073629Y-193571486D01*
X200930771Y-193714343D01*
X200716486Y-193785771D01*
X200359343Y-193785771D01*
X202502200Y-193785771D02*
X202502200Y-193000057D01*
X202430771Y-192857200D01*
X202287914Y-192785771D01*
X202002200Y-192785771D01*
X201859343Y-192857200D01*
X202502200Y-193714343D02*
X202359343Y-193785771D01*
X202002200Y-193785771D01*
X201859343Y-193714343D01*
X201787914Y-193571486D01*
X201787914Y-193428629D01*
X201859343Y-193285771D01*
X202002200Y-193214343D01*
X202359343Y-193214343D01*
X202502200Y-193142914D01*
X203002200Y-192785771D02*
X203573629Y-192785771D01*
X203216486Y-192285771D02*
X203216486Y-193571486D01*
X203287914Y-193714343D01*
X203430772Y-193785771D01*
X203573629Y-193785771D01*
X204645057Y-193714343D02*
X204502200Y-193785771D01*
X204216486Y-193785771D01*
X204073629Y-193714343D01*
X204002200Y-193571486D01*
X204002200Y-193000057D01*
X204073629Y-192857200D01*
X204216486Y-192785771D01*
X204502200Y-192785771D01*
X204645057Y-192857200D01*
X204716486Y-193000057D01*
X204716486Y-193142914D01*
X204002200Y-193285771D01*
X205359343Y-193642914D02*
X205430771Y-193714343D01*
X205359343Y-193785771D01*
X205287914Y-193714343D01*
X205359343Y-193642914D01*
X205359343Y-193785771D01*
X205359343Y-192857200D02*
X205430771Y-192928629D01*
X205359343Y-193000057D01*
X205287914Y-192928629D01*
X205359343Y-192857200D01*
X205359343Y-193000057D01*
D10*
D11*
X177002200Y-194507200D02*
X285002200Y-194507200D01*
D10*
D11*
X178359343Y-196585771D02*
X178359343Y-195085771D01*
X179216486Y-196585771D02*
X178573629Y-195728629D01*
X179216486Y-195085771D02*
X178359343Y-195942914D01*
X179859343Y-196585771D02*
X179859343Y-195585771D01*
X179859343Y-195085771D02*
X179787914Y-195157200D01*
X179859343Y-195228629D01*
X179930771Y-195157200D01*
X179859343Y-195085771D01*
X179859343Y-195228629D01*
X181430772Y-196442914D02*
X181359343Y-196514343D01*
X181145057Y-196585771D01*
X181002200Y-196585771D01*
X180787915Y-196514343D01*
X180645057Y-196371486D01*
X180573629Y-196228629D01*
X180502200Y-195942914D01*
X180502200Y-195728629D01*
X180573629Y-195442914D01*
X180645057Y-195300057D01*
X180787915Y-195157200D01*
X181002200Y-195085771D01*
X181145057Y-195085771D01*
X181359343Y-195157200D01*
X181430772Y-195228629D01*
X182716486Y-196585771D02*
X182716486Y-195800057D01*
X182645057Y-195657200D01*
X182502200Y-195585771D01*
X182216486Y-195585771D01*
X182073629Y-195657200D01*
X182716486Y-196514343D02*
X182573629Y-196585771D01*
X182216486Y-196585771D01*
X182073629Y-196514343D01*
X182002200Y-196371486D01*
X182002200Y-196228629D01*
X182073629Y-196085771D01*
X182216486Y-196014343D01*
X182573629Y-196014343D01*
X182716486Y-195942914D01*
X184073629Y-196585771D02*
X184073629Y-195085771D01*
X184073629Y-196514343D02*
X183930772Y-196585771D01*
X183645058Y-196585771D01*
X183502200Y-196514343D01*
X183430772Y-196442914D01*
X183359343Y-196300057D01*
X183359343Y-195871486D01*
X183430772Y-195728629D01*
X183502200Y-195657200D01*
X183645058Y-195585771D01*
X183930772Y-195585771D01*
X184073629Y-195657200D01*
X185930772Y-195800057D02*
X186430772Y-195800057D01*
X186645058Y-196585771D02*
X185930772Y-196585771D01*
X185930772Y-195085771D01*
X186645058Y-195085771D01*
X187287915Y-196442914D02*
X187359343Y-196514343D01*
X187287915Y-196585771D01*
X187216486Y-196514343D01*
X187287915Y-196442914D01*
X187287915Y-196585771D01*
X188002201Y-196585771D02*
X188002201Y-195085771D01*
X188359344Y-195085771D01*
X188573629Y-195157200D01*
X188716487Y-195300057D01*
X188787915Y-195442914D01*
X188859344Y-195728629D01*
X188859344Y-195942914D01*
X188787915Y-196228629D01*
X188716487Y-196371486D01*
X188573629Y-196514343D01*
X188359344Y-196585771D01*
X188002201Y-196585771D01*
X189502201Y-196442914D02*
X189573629Y-196514343D01*
X189502201Y-196585771D01*
X189430772Y-196514343D01*
X189502201Y-196442914D01*
X189502201Y-196585771D01*
X190145058Y-196157200D02*
X190859344Y-196157200D01*
X190002201Y-196585771D02*
X190502201Y-195085771D01*
X191002201Y-196585771D01*
X191502201Y-196442914D02*
X191573629Y-196514343D01*
X191502201Y-196585771D01*
X191430772Y-196514343D01*
X191502201Y-196442914D01*
X191502201Y-196585771D01*
X194502201Y-196585771D02*
X194502201Y-195085771D01*
X194645058Y-196014343D02*
X195073629Y-196585771D01*
X195073629Y-195585771D02*
X194502201Y-196157200D01*
X195716487Y-196585771D02*
X195716487Y-195585771D01*
X195716487Y-195085771D02*
X195645058Y-195157200D01*
X195716487Y-195228629D01*
X195787915Y-195157200D01*
X195716487Y-195085771D01*
X195716487Y-195228629D01*
X197073630Y-196514343D02*
X196930773Y-196585771D01*
X196645059Y-196585771D01*
X196502201Y-196514343D01*
X196430773Y-196442914D01*
X196359344Y-196300057D01*
X196359344Y-195871486D01*
X196430773Y-195728629D01*
X196502201Y-195657200D01*
X196645059Y-195585771D01*
X196930773Y-195585771D01*
X197073630Y-195657200D01*
X198359344Y-196585771D02*
X198359344Y-195800057D01*
X198287915Y-195657200D01*
X198145058Y-195585771D01*
X197859344Y-195585771D01*
X197716487Y-195657200D01*
X198359344Y-196514343D02*
X198216487Y-196585771D01*
X197859344Y-196585771D01*
X197716487Y-196514343D01*
X197645058Y-196371486D01*
X197645058Y-196228629D01*
X197716487Y-196085771D01*
X197859344Y-196014343D01*
X198216487Y-196014343D01*
X198359344Y-195942914D01*
X199716487Y-196585771D02*
X199716487Y-195085771D01*
X199716487Y-196514343D02*
X199573630Y-196585771D01*
X199287916Y-196585771D01*
X199145058Y-196514343D01*
X199073630Y-196442914D01*
X199002201Y-196300057D01*
X199002201Y-195871486D01*
X199073630Y-195728629D01*
X199145058Y-195657200D01*
X199287916Y-195585771D01*
X199573630Y-195585771D01*
X199716487Y-195657200D01*
X202216487Y-195585771D02*
X202216487Y-196585771D01*
X201859344Y-195014343D02*
X201502201Y-196085771D01*
X202430773Y-196085771D01*
X203002201Y-196442914D02*
X203073629Y-196514343D01*
X203002201Y-196585771D01*
X202930772Y-196514343D01*
X203002201Y-196442914D01*
X203002201Y-196585771D01*
X204002201Y-195085771D02*
X204145058Y-195085771D01*
X204287915Y-195157200D01*
X204359344Y-195228629D01*
X204430773Y-195371486D01*
X204502201Y-195657200D01*
X204502201Y-196014343D01*
X204430773Y-196300057D01*
X204359344Y-196442914D01*
X204287915Y-196514343D01*
X204145058Y-196585771D01*
X204002201Y-196585771D01*
X203859344Y-196514343D01*
X203787915Y-196442914D01*
X203716487Y-196300057D01*
X203645058Y-196014343D01*
X203645058Y-195657200D01*
X203716487Y-195371486D01*
X203787915Y-195228629D01*
X203859344Y-195157200D01*
X204002201Y-195085771D01*
X205145058Y-196442914D02*
X205216486Y-196514343D01*
X205145058Y-196585771D01*
X205073629Y-196514343D01*
X205145058Y-196442914D01*
X205145058Y-196585771D01*
X206502201Y-195085771D02*
X206216487Y-195085771D01*
X206073630Y-195157200D01*
X206002201Y-195228629D01*
X205859344Y-195442914D01*
X205787915Y-195728629D01*
X205787915Y-196300057D01*
X205859344Y-196442914D01*
X205930772Y-196514343D01*
X206073630Y-196585771D01*
X206359344Y-196585771D01*
X206502201Y-196514343D01*
X206573630Y-196442914D01*
X206645058Y-196300057D01*
X206645058Y-195942914D01*
X206573630Y-195800057D01*
X206502201Y-195728629D01*
X206359344Y-195657200D01*
X206073630Y-195657200D01*
X205930772Y-195728629D01*
X205859344Y-195800057D01*
X205787915Y-195942914D01*
X207287915Y-196014343D02*
X208430772Y-196014343D01*
X209716486Y-196514343D02*
X209573629Y-196585771D01*
X209287915Y-196585771D01*
X209145058Y-196514343D01*
X209073629Y-196371486D01*
X209073629Y-195800057D01*
X209145058Y-195657200D01*
X209287915Y-195585771D01*
X209573629Y-195585771D01*
X209716486Y-195657200D01*
X209787915Y-195800057D01*
X209787915Y-195942914D01*
X209073629Y-196085771D01*
X210716486Y-195085771D02*
X210859343Y-195085771D01*
X211002200Y-195157200D01*
X211073629Y-195228629D01*
X211145058Y-195371486D01*
X211216486Y-195657200D01*
X211216486Y-196014343D01*
X211145058Y-196300057D01*
X211073629Y-196442914D01*
X211002200Y-196514343D01*
X210859343Y-196585771D01*
X210716486Y-196585771D01*
X210573629Y-196514343D01*
X210502200Y-196442914D01*
X210430772Y-196300057D01*
X210359343Y-196014343D01*
X210359343Y-195657200D01*
X210430772Y-195371486D01*
X210502200Y-195228629D01*
X210573629Y-195157200D01*
X210716486Y-195085771D01*
X211859343Y-196014343D02*
X213002200Y-196014343D01*
X214359343Y-195085771D02*
X214073629Y-195085771D01*
X213930772Y-195157200D01*
X213859343Y-195228629D01*
X213716486Y-195442914D01*
X213645057Y-195728629D01*
X213645057Y-196300057D01*
X213716486Y-196442914D01*
X213787914Y-196514343D01*
X213930772Y-196585771D01*
X214216486Y-196585771D01*
X214359343Y-196514343D01*
X214430772Y-196442914D01*
X214502200Y-196300057D01*
X214502200Y-195942914D01*
X214430772Y-195800057D01*
X214359343Y-195728629D01*
X214216486Y-195657200D01*
X213930772Y-195657200D01*
X213787914Y-195728629D01*
X213716486Y-195800057D01*
X213645057Y-195942914D01*
X215002200Y-195085771D02*
X215930771Y-195085771D01*
X215430771Y-195657200D01*
X215645057Y-195657200D01*
X215787914Y-195728629D01*
X215859343Y-195800057D01*
X215930771Y-195942914D01*
X215930771Y-196300057D01*
X215859343Y-196442914D01*
X215787914Y-196514343D01*
X215645057Y-196585771D01*
X215216485Y-196585771D01*
X215073628Y-196514343D01*
X215002200Y-196442914D01*
X217216485Y-195585771D02*
X217216485Y-196585771D01*
X216859342Y-195014343D02*
X216502199Y-196085771D01*
X217430771Y-196085771D01*
X218073627Y-196585771D02*
X218359342Y-196585771D01*
X218502199Y-196514343D01*
X218573627Y-196442914D01*
X218716485Y-196228629D01*
X218787913Y-195942914D01*
X218787913Y-195371486D01*
X218716485Y-195228629D01*
X218645056Y-195157200D01*
X218502199Y-195085771D01*
X218216485Y-195085771D01*
X218073627Y-195157200D01*
X218002199Y-195228629D01*
X217930770Y-195371486D01*
X217930770Y-195728629D01*
X218002199Y-195871486D01*
X218073627Y-195942914D01*
X218216485Y-196014343D01*
X218502199Y-196014343D01*
X218645056Y-195942914D01*
X218716485Y-195871486D01*
X218787913Y-195728629D01*
X220145056Y-195085771D02*
X219430770Y-195085771D01*
X219359341Y-195800057D01*
X219430770Y-195728629D01*
X219573627Y-195657200D01*
X219930770Y-195657200D01*
X220073627Y-195728629D01*
X220145056Y-195800057D01*
X220216484Y-195942914D01*
X220216484Y-196300057D01*
X220145056Y-196442914D01*
X220073627Y-196514343D01*
X219930770Y-196585771D01*
X219573627Y-196585771D01*
X219430770Y-196514343D01*
X219359341Y-196442914D01*
X220716484Y-195085771D02*
X221645055Y-195085771D01*
X221145055Y-195657200D01*
X221359341Y-195657200D01*
X221502198Y-195728629D01*
X221573627Y-195800057D01*
X221645055Y-195942914D01*
X221645055Y-196300057D01*
X221573627Y-196442914D01*
X221502198Y-196514343D01*
X221359341Y-196585771D01*
X220930769Y-196585771D01*
X220787912Y-196514343D01*
X220716484Y-196442914D01*
X219073627Y-194827200D02*
X221930769Y-194827200D01*
X222930769Y-195585771D02*
X222930769Y-196585771D01*
X222287912Y-195585771D02*
X222287912Y-196371486D01*
X222359340Y-196514343D01*
X222502198Y-196585771D01*
X222716483Y-196585771D01*
X222859340Y-196514343D01*
X222930769Y-196442914D01*
X223645055Y-196585771D02*
X223645055Y-195085771D01*
X223645055Y-195657200D02*
X223787912Y-195585771D01*
X224073626Y-195585771D01*
X224216483Y-195657200D01*
X224287912Y-195728629D01*
X224359341Y-195871486D01*
X224359341Y-196300057D01*
X224287912Y-196442914D01*
X224216483Y-196514343D01*
X224073626Y-196585771D01*
X223787912Y-196585771D01*
X223645055Y-196514343D01*
X225645055Y-195585771D02*
X225645055Y-196585771D01*
X225002198Y-195585771D02*
X225002198Y-196371486D01*
X225073626Y-196514343D01*
X225216484Y-196585771D01*
X225430769Y-196585771D01*
X225573626Y-196514343D01*
X225645055Y-196442914D01*
X226359341Y-195585771D02*
X226359341Y-196585771D01*
X226359341Y-195728629D02*
X226430769Y-195657200D01*
X226573627Y-195585771D01*
X226787912Y-195585771D01*
X226930769Y-195657200D01*
X227002198Y-195800057D01*
X227002198Y-196585771D01*
X227502198Y-195585771D02*
X228073627Y-195585771D01*
X227716484Y-195085771D02*
X227716484Y-196371486D01*
X227787912Y-196514343D01*
X227930770Y-196585771D01*
X228073627Y-196585771D01*
X229216484Y-195585771D02*
X229216484Y-196585771D01*
X228573627Y-195585771D02*
X228573627Y-196371486D01*
X228645055Y-196514343D01*
X228787913Y-196585771D01*
X229002198Y-196585771D01*
X229145055Y-196514343D01*
X229216484Y-196442914D01*
X230716484Y-196585771D02*
X229859341Y-196585771D01*
X230287913Y-196585771D02*
X230287913Y-195085771D01*
X230145056Y-195300057D01*
X230002198Y-195442914D01*
X229859341Y-195514343D01*
X232002198Y-195085771D02*
X231716484Y-195085771D01*
X231573627Y-195157200D01*
X231502198Y-195228629D01*
X231359341Y-195442914D01*
X231287912Y-195728629D01*
X231287912Y-196300057D01*
X231359341Y-196442914D01*
X231430769Y-196514343D01*
X231573627Y-196585771D01*
X231859341Y-196585771D01*
X232002198Y-196514343D01*
X232073627Y-196442914D01*
X232145055Y-196300057D01*
X232145055Y-195942914D01*
X232073627Y-195800057D01*
X232002198Y-195728629D01*
X231859341Y-195657200D01*
X231573627Y-195657200D01*
X231430769Y-195728629D01*
X231359341Y-195800057D01*
X231287912Y-195942914D01*
X232787912Y-196442914D02*
X232859340Y-196514343D01*
X232787912Y-196585771D01*
X232716483Y-196514343D01*
X232787912Y-196442914D01*
X232787912Y-196585771D01*
X233787912Y-195085771D02*
X233930769Y-195085771D01*
X234073626Y-195157200D01*
X234145055Y-195228629D01*
X234216484Y-195371486D01*
X234287912Y-195657200D01*
X234287912Y-196014343D01*
X234216484Y-196300057D01*
X234145055Y-196442914D01*
X234073626Y-196514343D01*
X233930769Y-196585771D01*
X233787912Y-196585771D01*
X233645055Y-196514343D01*
X233573626Y-196442914D01*
X233502198Y-196300057D01*
X233430769Y-196014343D01*
X233430769Y-195657200D01*
X233502198Y-195371486D01*
X233573626Y-195228629D01*
X233645055Y-195157200D01*
X233787912Y-195085771D01*
X235573626Y-195585771D02*
X235573626Y-196585771D01*
X235216483Y-195014343D02*
X234859340Y-196085771D01*
X235787912Y-196085771D01*
X236359340Y-196442914D02*
X236430768Y-196514343D01*
X236359340Y-196585771D01*
X236287911Y-196514343D01*
X236359340Y-196442914D01*
X236359340Y-196585771D01*
X237859340Y-196585771D02*
X237002197Y-196585771D01*
X237430769Y-196585771D02*
X237430769Y-195085771D01*
X237287912Y-195300057D01*
X237145054Y-195442914D01*
X237002197Y-195514343D01*
D10*
D11*
X177002200Y-191507200D02*
X285002200Y-191507200D01*
D10*
D12*
X264216486Y-193785771D02*
X263716486Y-193071486D01*
X263359343Y-193785771D02*
X263359343Y-192285771D01*
X263930771Y-192285771D01*
X264073629Y-192357200D01*
X264145057Y-192428629D01*
X264216486Y-192571486D01*
X264216486Y-192785771D01*
X264145057Y-192928629D01*
X264073629Y-193000057D01*
X263930771Y-193071486D01*
X263359343Y-193071486D01*
X265430771Y-193714343D02*
X265287914Y-193785771D01*
X265002200Y-193785771D01*
X264859343Y-193714343D01*
X264787914Y-193571486D01*
X264787914Y-193000057D01*
X264859343Y-192857200D01*
X265002200Y-192785771D01*
X265287914Y-192785771D01*
X265430771Y-192857200D01*
X265502200Y-193000057D01*
X265502200Y-193142914D01*
X264787914Y-193285771D01*
X266002200Y-192785771D02*
X266359343Y-193785771D01*
X266716485Y-192785771D01*
X267287914Y-193642914D02*
X267359342Y-193714343D01*
X267287914Y-193785771D01*
X267216485Y-193714343D01*
X267287914Y-193642914D01*
X267287914Y-193785771D01*
X267287914Y-192857200D02*
X267359342Y-192928629D01*
X267287914Y-193000057D01*
X267216485Y-192928629D01*
X267287914Y-192857200D01*
X267287914Y-193000057D01*
D10*
D11*
X178287914Y-193714343D02*
X178502200Y-193785771D01*
X178859343Y-193785771D01*
X179002200Y-193714343D01*
X179073629Y-193642914D01*
X179145057Y-193500057D01*
X179145057Y-193357200D01*
X179073629Y-193214343D01*
X179002200Y-193142914D01*
X178859343Y-193071486D01*
X178573629Y-193000057D01*
X178430771Y-192928629D01*
X178359343Y-192857200D01*
X178287914Y-192714343D01*
X178287914Y-192571486D01*
X178359343Y-192428629D01*
X178430771Y-192357200D01*
X178573629Y-192285771D01*
X178930771Y-192285771D01*
X179145057Y-192357200D01*
X179787914Y-193785771D02*
X179787914Y-192785771D01*
X179787914Y-192285771D02*
X179716485Y-192357200D01*
X179787914Y-192428629D01*
X179859342Y-192357200D01*
X179787914Y-192285771D01*
X179787914Y-192428629D01*
X180359343Y-192785771D02*
X181145057Y-192785771D01*
X180359343Y-193785771D01*
X181145057Y-193785771D01*
X182287914Y-193714343D02*
X182145057Y-193785771D01*
X181859343Y-193785771D01*
X181716486Y-193714343D01*
X181645057Y-193571486D01*
X181645057Y-193000057D01*
X181716486Y-192857200D01*
X181859343Y-192785771D01*
X182145057Y-192785771D01*
X182287914Y-192857200D01*
X182359343Y-193000057D01*
X182359343Y-193142914D01*
X181645057Y-193285771D01*
X183002200Y-193642914D02*
X183073628Y-193714343D01*
X183002200Y-193785771D01*
X182930771Y-193714343D01*
X183002200Y-193642914D01*
X183002200Y-193785771D01*
X183002200Y-192857200D02*
X183073628Y-192928629D01*
X183002200Y-193000057D01*
X182930771Y-192928629D01*
X183002200Y-192857200D01*
X183002200Y-193000057D01*
X184787914Y-193357200D02*
X185502200Y-193357200D01*
X184645057Y-193785771D02*
X185145057Y-192285771D01*
X185645057Y-193785771D01*
X186787914Y-192785771D02*
X186787914Y-193785771D01*
X186430771Y-192214343D02*
X186073628Y-193285771D01*
X187002200Y-193285771D01*
D10*
D11*
X263359343Y-196585771D02*
X263359343Y-195085771D01*
X264716486Y-196585771D02*
X264716486Y-195085771D01*
X264716486Y-196514343D02*
X264573629Y-196585771D01*
X264287915Y-196585771D01*
X264145057Y-196514343D01*
X264073629Y-196442914D01*
X264002200Y-196300057D01*
X264002200Y-195871486D01*
X264073629Y-195728629D01*
X264145057Y-195657200D01*
X264287915Y-195585771D01*
X264573629Y-195585771D01*
X264716486Y-195657200D01*
X265430772Y-196442914D02*
X265502200Y-196514343D01*
X265430772Y-196585771D01*
X265359343Y-196514343D01*
X265430772Y-196442914D01*
X265430772Y-196585771D01*
X265430772Y-195657200D02*
X265502200Y-195728629D01*
X265430772Y-195800057D01*
X265359343Y-195728629D01*
X265430772Y-195657200D01*
X265430772Y-195800057D01*
X268073629Y-196585771D02*
X267216486Y-196585771D01*
X267645058Y-196585771D02*
X267645058Y-195085771D01*
X267502201Y-195300057D01*
X267359343Y-195442914D01*
X267216486Y-195514343D01*
X269787914Y-195014343D02*
X268502200Y-196942914D01*
X271073629Y-196585771D02*
X270216486Y-196585771D01*
X270645058Y-196585771D02*
X270645058Y-195085771D01*
X270502201Y-195300057D01*
X270359343Y-195442914D01*
X270216486Y-195514343D01*
D10*
D11*
X177002200Y-187507200D02*
X285002200Y-187507200D01*
D10*
D13*
X178454581Y-188211962D02*
X179597438Y-188211962D01*
X178776010Y-190211962D02*
X179026010Y-188211962D01*
X180014105Y-190211962D02*
X180180771Y-188878629D01*
X180264105Y-188211962D02*
X180156962Y-188307200D01*
X180240295Y-188402438D01*
X180347439Y-188307200D01*
X180264105Y-188211962D01*
X180240295Y-188402438D01*
X180847438Y-188878629D02*
X181609343Y-188878629D01*
X181216486Y-188211962D02*
X181002200Y-189926248D01*
X181073630Y-190116724D01*
X181252201Y-190211962D01*
X181442677Y-190211962D01*
X182395058Y-190211962D02*
X182216487Y-190116724D01*
X182145057Y-189926248D01*
X182359343Y-188211962D01*
X183930772Y-190116724D02*
X183728391Y-190211962D01*
X183347439Y-190211962D01*
X183168867Y-190116724D01*
X183097438Y-189926248D01*
X183192676Y-189164343D01*
X183311724Y-188973867D01*
X183514105Y-188878629D01*
X183895057Y-188878629D01*
X184073629Y-188973867D01*
X184145057Y-189164343D01*
X184121248Y-189354819D01*
X183145057Y-189545295D01*
X184895057Y-190021486D02*
X184978392Y-190116724D01*
X184871248Y-190211962D01*
X184787915Y-190116724D01*
X184895057Y-190021486D01*
X184871248Y-190211962D01*
X185026010Y-188973867D02*
X185109344Y-189069105D01*
X185002200Y-189164343D01*
X184918867Y-189069105D01*
X185026010Y-188973867D01*
X185002200Y-189164343D01*
D10*
D11*
X178859343Y-185600057D02*
X178359343Y-185600057D01*
X178359343Y-186385771D02*
X178359343Y-184885771D01*
X179073629Y-184885771D01*
X179645057Y-186385771D02*
X179645057Y-185385771D01*
X179645057Y-184885771D02*
X179573628Y-184957200D01*
X179645057Y-185028629D01*
X179716485Y-184957200D01*
X179645057Y-184885771D01*
X179645057Y-185028629D01*
X180573629Y-186385771D02*
X180430771Y-186314343D01*
X180359343Y-186171486D01*
X180359343Y-184885771D01*
X181716485Y-186314343D02*
X181573628Y-186385771D01*
X181287914Y-186385771D01*
X181145057Y-186314343D01*
X181073628Y-186171486D01*
X181073628Y-185600057D01*
X181145057Y-185457200D01*
X181287914Y-185385771D01*
X181573628Y-185385771D01*
X181716485Y-185457200D01*
X181787914Y-185600057D01*
X181787914Y-185742914D01*
X181073628Y-185885771D01*
X182430771Y-186242914D02*
X182502199Y-186314343D01*
X182430771Y-186385771D01*
X182359342Y-186314343D01*
X182430771Y-186242914D01*
X182430771Y-186385771D01*
X182430771Y-185457200D02*
X182502199Y-185528629D01*
X182430771Y-185600057D01*
X182359342Y-185528629D01*
X182430771Y-185457200D01*
X182430771Y-185600057D01*
X184859342Y-186314343D02*
X184716485Y-186385771D01*
X184430771Y-186385771D01*
X184287914Y-186314343D01*
X184216485Y-186171486D01*
X184216485Y-185600057D01*
X184287914Y-185457200D01*
X184430771Y-185385771D01*
X184716485Y-185385771D01*
X184859342Y-185457200D01*
X184930771Y-185600057D01*
X184930771Y-185742914D01*
X184216485Y-185885771D01*
X185502199Y-186314343D02*
X185645056Y-186385771D01*
X185930771Y-186385771D01*
X186073628Y-186314343D01*
X186145056Y-186171486D01*
X186145056Y-186100057D01*
X186073628Y-185957200D01*
X185930771Y-185885771D01*
X185716485Y-185885771D01*
X185573628Y-185814343D01*
X185502199Y-185671486D01*
X185502199Y-185600057D01*
X185573628Y-185457200D01*
X185716485Y-185385771D01*
X185930771Y-185385771D01*
X186073628Y-185457200D01*
X186787914Y-185385771D02*
X186787914Y-186885771D01*
X186787914Y-185457200D02*
X186930771Y-185385771D01*
X187216485Y-185385771D01*
X187359342Y-185457200D01*
X187430771Y-185528629D01*
X187502200Y-185671486D01*
X187502200Y-186100057D01*
X187430771Y-186242914D01*
X187359342Y-186314343D01*
X187216485Y-186385771D01*
X186930771Y-186385771D01*
X186787914Y-186314343D01*
X188359343Y-185528629D02*
X188216485Y-185457200D01*
X188145057Y-185385771D01*
X188073628Y-185242914D01*
X188073628Y-185171486D01*
X188145057Y-185028629D01*
X188216485Y-184957200D01*
X188359343Y-184885771D01*
X188645057Y-184885771D01*
X188787914Y-184957200D01*
X188859343Y-185028629D01*
X188930771Y-185171486D01*
X188930771Y-185242914D01*
X188859343Y-185385771D01*
X188787914Y-185457200D01*
X188645057Y-185528629D01*
X188359343Y-185528629D01*
X188216485Y-185600057D01*
X188145057Y-185671486D01*
X188073628Y-185814343D01*
X188073628Y-186100057D01*
X188145057Y-186242914D01*
X188216485Y-186314343D01*
X188359343Y-186385771D01*
X188645057Y-186385771D01*
X188787914Y-186314343D01*
X188859343Y-186242914D01*
X188930771Y-186100057D01*
X188930771Y-185814343D01*
X188859343Y-185671486D01*
X188787914Y-185600057D01*
X188645057Y-185528629D01*
X189502199Y-185028629D02*
X189573628Y-184957200D01*
X189716485Y-184885771D01*
X190073628Y-184885771D01*
X190216485Y-184957200D01*
X190287914Y-185028629D01*
X190359342Y-185171486D01*
X190359342Y-185314343D01*
X190287914Y-185528629D01*
X189430771Y-186385771D01*
X190359342Y-186385771D01*
X191645056Y-184885771D02*
X191359342Y-184885771D01*
X191216485Y-184957200D01*
X191145056Y-185028629D01*
X191002199Y-185242914D01*
X190930770Y-185528629D01*
X190930770Y-186100057D01*
X191002199Y-186242914D01*
X191073627Y-186314343D01*
X191216485Y-186385771D01*
X191502199Y-186385771D01*
X191645056Y-186314343D01*
X191716485Y-186242914D01*
X191787913Y-186100057D01*
X191787913Y-185742914D01*
X191716485Y-185600057D01*
X191645056Y-185528629D01*
X191502199Y-185457200D01*
X191216485Y-185457200D01*
X191073627Y-185528629D01*
X191002199Y-185600057D01*
X190930770Y-185742914D01*
X193073627Y-184885771D02*
X192787913Y-184885771D01*
X192645056Y-184957200D01*
X192573627Y-185028629D01*
X192430770Y-185242914D01*
X192359341Y-185528629D01*
X192359341Y-186100057D01*
X192430770Y-186242914D01*
X192502198Y-186314343D01*
X192645056Y-186385771D01*
X192930770Y-186385771D01*
X193073627Y-186314343D01*
X193145056Y-186242914D01*
X193216484Y-186100057D01*
X193216484Y-185742914D01*
X193145056Y-185600057D01*
X193073627Y-185528629D01*
X192930770Y-185457200D01*
X192645056Y-185457200D01*
X192502198Y-185528629D01*
X192430770Y-185600057D01*
X192359341Y-185742914D01*
X193859341Y-185814343D02*
X195002198Y-185814343D01*
X195716484Y-186385771D02*
X195716484Y-185385771D01*
X195716484Y-184885771D02*
X195645055Y-184957200D01*
X195716484Y-185028629D01*
X195787912Y-184957200D01*
X195716484Y-184885771D01*
X195716484Y-185028629D01*
X196645056Y-186385771D02*
X196502198Y-186314343D01*
X196430770Y-186242914D01*
X196359341Y-186100057D01*
X196359341Y-185671486D01*
X196430770Y-185528629D01*
X196502198Y-185457200D01*
X196645056Y-185385771D01*
X196859341Y-185385771D01*
X197002198Y-185457200D01*
X197073627Y-185528629D01*
X197145056Y-185671486D01*
X197145056Y-186100057D01*
X197073627Y-186242914D01*
X197002198Y-186314343D01*
X196859341Y-186385771D01*
X196645056Y-186385771D01*
X197573627Y-185385771D02*
X198145056Y-185385771D01*
X197787913Y-184885771D02*
X197787913Y-186171486D01*
X197859341Y-186314343D01*
X198002199Y-186385771D01*
X198145056Y-186385771D01*
X198645056Y-186385771D02*
X198645056Y-185385771D01*
X198645056Y-185528629D02*
X198716484Y-185457200D01*
X198859342Y-185385771D01*
X199073627Y-185385771D01*
X199216484Y-185457200D01*
X199287913Y-185600057D01*
X199287913Y-186385771D01*
X199287913Y-185600057D02*
X199359342Y-185457200D01*
X199502199Y-185385771D01*
X199716484Y-185385771D01*
X199859342Y-185457200D01*
X199930770Y-185600057D01*
X199930770Y-186385771D01*
X201287913Y-186385771D02*
X201287913Y-185600057D01*
X201216484Y-185457200D01*
X201073627Y-185385771D01*
X200787913Y-185385771D01*
X200645056Y-185457200D01*
X201287913Y-186314343D02*
X201145056Y-186385771D01*
X200787913Y-186385771D01*
X200645056Y-186314343D01*
X200573627Y-186171486D01*
X200573627Y-186028629D01*
X200645056Y-185885771D01*
X200787913Y-185814343D01*
X201145056Y-185814343D01*
X201287913Y-185742914D01*
X202002199Y-186385771D02*
X202002199Y-184885771D01*
X202145056Y-185814343D02*
X202573627Y-186385771D01*
X202573627Y-185385771D02*
X202002199Y-185957200D01*
X203787913Y-186314343D02*
X203645056Y-186385771D01*
X203359342Y-186385771D01*
X203216485Y-186314343D01*
X203145056Y-186171486D01*
X203145056Y-185600057D01*
X203216485Y-185457200D01*
X203359342Y-185385771D01*
X203645056Y-185385771D01*
X203787913Y-185457200D01*
X203859342Y-185600057D01*
X203859342Y-185742914D01*
X203145056Y-185885771D01*
X204502199Y-186385771D02*
X204502199Y-185385771D01*
X204502199Y-185671486D02*
X204573627Y-185528629D01*
X204645056Y-185457200D01*
X204787913Y-185385771D01*
X204930770Y-185385771D01*
X205430770Y-186242914D02*
X205502198Y-186314343D01*
X205430770Y-186385771D01*
X205359341Y-186314343D01*
X205430770Y-186242914D01*
X205430770Y-186385771D01*
X206145056Y-186385771D02*
X206145056Y-184885771D01*
X206287913Y-185814343D02*
X206716484Y-186385771D01*
X206716484Y-185385771D02*
X206145056Y-185957200D01*
X207359342Y-186385771D02*
X207359342Y-185385771D01*
X207359342Y-184885771D02*
X207287913Y-184957200D01*
X207359342Y-185028629D01*
X207430770Y-184957200D01*
X207359342Y-184885771D01*
X207359342Y-185028629D01*
X208716485Y-186314343D02*
X208573628Y-186385771D01*
X208287914Y-186385771D01*
X208145056Y-186314343D01*
X208073628Y-186242914D01*
X208002199Y-186100057D01*
X208002199Y-185671486D01*
X208073628Y-185528629D01*
X208145056Y-185457200D01*
X208287914Y-185385771D01*
X208573628Y-185385771D01*
X208716485Y-185457200D01*
X210002199Y-186385771D02*
X210002199Y-185600057D01*
X209930770Y-185457200D01*
X209787913Y-185385771D01*
X209502199Y-185385771D01*
X209359342Y-185457200D01*
X210002199Y-186314343D02*
X209859342Y-186385771D01*
X209502199Y-186385771D01*
X209359342Y-186314343D01*
X209287913Y-186171486D01*
X209287913Y-186028629D01*
X209359342Y-185885771D01*
X209502199Y-185814343D01*
X209859342Y-185814343D01*
X210002199Y-185742914D01*
X211359342Y-186385771D02*
X211359342Y-184885771D01*
X211359342Y-186314343D02*
X211216485Y-186385771D01*
X210930771Y-186385771D01*
X210787913Y-186314343D01*
X210716485Y-186242914D01*
X210645056Y-186100057D01*
X210645056Y-185671486D01*
X210716485Y-185528629D01*
X210787913Y-185457200D01*
X210930771Y-185385771D01*
X211216485Y-185385771D01*
X211359342Y-185457200D01*
X211716485Y-186528629D02*
X212859342Y-186528629D01*
X213216485Y-185385771D02*
X213216485Y-186885771D01*
X213216485Y-185457200D02*
X213359342Y-185385771D01*
X213645056Y-185385771D01*
X213787913Y-185457200D01*
X213859342Y-185528629D01*
X213930771Y-185671486D01*
X213930771Y-186100057D01*
X213859342Y-186242914D01*
X213787913Y-186314343D01*
X213645056Y-186385771D01*
X213359342Y-186385771D01*
X213216485Y-186314343D01*
X215216485Y-186314343D02*
X215073628Y-186385771D01*
X214787914Y-186385771D01*
X214645056Y-186314343D01*
X214573628Y-186242914D01*
X214502199Y-186100057D01*
X214502199Y-185671486D01*
X214573628Y-185528629D01*
X214645056Y-185457200D01*
X214787914Y-185385771D01*
X215073628Y-185385771D01*
X215216485Y-185457200D01*
X215859342Y-186385771D02*
X215859342Y-184885771D01*
X215859342Y-185457200D02*
X216002199Y-185385771D01*
X216287913Y-185385771D01*
X216430770Y-185457200D01*
X216502199Y-185528629D01*
X216573628Y-185671486D01*
X216573628Y-186100057D01*
X216502199Y-186242914D01*
X216430770Y-186314343D01*
X216287913Y-186385771D01*
X216002199Y-186385771D01*
X215859342Y-186314343D01*
D10*
D11*
X177002200Y-181507200D02*
X285002200Y-181507200D01*
D10*
D11*
X178287914Y-183614343D02*
X178502200Y-183685771D01*
X178859343Y-183685771D01*
X179002200Y-183614343D01*
X179073629Y-183542914D01*
X179145057Y-183400057D01*
X179145057Y-183257200D01*
X179073629Y-183114343D01*
X179002200Y-183042914D01*
X178859343Y-182971486D01*
X178573629Y-182900057D01*
X178430771Y-182828629D01*
X178359343Y-182757200D01*
X178287914Y-182614343D01*
X178287914Y-182471486D01*
X178359343Y-182328629D01*
X178430771Y-182257200D01*
X178573629Y-182185771D01*
X178930771Y-182185771D01*
X179145057Y-182257200D01*
X179787914Y-183685771D02*
X179787914Y-182185771D01*
X180430771Y-183685771D02*
X180430771Y-182900057D01*
X180359342Y-182757200D01*
X180216485Y-182685771D01*
X180002200Y-182685771D01*
X179859342Y-182757200D01*
X179787914Y-182828629D01*
X181716485Y-183614343D02*
X181573628Y-183685771D01*
X181287914Y-183685771D01*
X181145057Y-183614343D01*
X181073628Y-183471486D01*
X181073628Y-182900057D01*
X181145057Y-182757200D01*
X181287914Y-182685771D01*
X181573628Y-182685771D01*
X181716485Y-182757200D01*
X181787914Y-182900057D01*
X181787914Y-183042914D01*
X181073628Y-183185771D01*
X183002199Y-183614343D02*
X182859342Y-183685771D01*
X182573628Y-183685771D01*
X182430771Y-183614343D01*
X182359342Y-183471486D01*
X182359342Y-182900057D01*
X182430771Y-182757200D01*
X182573628Y-182685771D01*
X182859342Y-182685771D01*
X183002199Y-182757200D01*
X183073628Y-182900057D01*
X183073628Y-183042914D01*
X182359342Y-183185771D01*
X183502199Y-182685771D02*
X184073628Y-182685771D01*
X183716485Y-182185771D02*
X183716485Y-183471486D01*
X183787913Y-183614343D01*
X183930771Y-183685771D01*
X184073628Y-183685771D01*
X184573628Y-183542914D02*
X184645056Y-183614343D01*
X184573628Y-183685771D01*
X184502199Y-183614343D01*
X184573628Y-183542914D01*
X184573628Y-183685771D01*
X184573628Y-182757200D02*
X184645056Y-182828629D01*
X184573628Y-182900057D01*
X184502199Y-182828629D01*
X184573628Y-182757200D01*
X184573628Y-182900057D01*
D10*
D11*
X197002200Y-191507200D02*
X197002200Y-194507200D01*
D10*
D11*
X261002200Y-191507200D02*
X261002200Y-198007200D01*
D14*
X168701981Y-92969866D02*
X167701981Y-92969866D01*
X167701981Y-93207961D01*
X167749600Y-93350819D01*
X167844838Y-93446057D01*
X167940076Y-93493676D01*
X168130552Y-93541295D01*
X168273410Y-93541295D01*
X168463886Y-93493676D01*
X168559124Y-93446057D01*
X168654362Y-93350819D01*
X168701981Y-93207961D01*
X168701981Y-92969866D01*
X168654362Y-94350819D02*
X168701981Y-94255581D01*
X168701981Y-94065104D01*
X168654362Y-93969866D01*
X168559124Y-93922247D01*
X168178171Y-93922247D01*
X168082933Y-93969866D01*
X168035314Y-94065104D01*
X168035314Y-94255581D01*
X168082933Y-94350819D01*
X168178171Y-94398438D01*
X168273410Y-94398438D01*
X168368648Y-93922247D01*
X168654362Y-94779390D02*
X168701981Y-94874628D01*
X168701981Y-95065104D01*
X168654362Y-95160343D01*
X168559124Y-95207962D01*
X168511505Y-95207962D01*
X168416267Y-95160343D01*
X168368648Y-95065104D01*
X168368648Y-94922247D01*
X168321029Y-94827009D01*
X168225790Y-94779390D01*
X168178171Y-94779390D01*
X168082933Y-94827009D01*
X168035314Y-94922247D01*
X168035314Y-95065104D01*
X168082933Y-95160343D01*
X168701981Y-95636533D02*
X168035314Y-95636533D01*
X167701981Y-95636533D02*
X167749600Y-95588914D01*
X167797219Y-95636533D01*
X167749600Y-95684152D01*
X167701981Y-95636533D01*
X167797219Y-95636533D01*
X168035314Y-96541295D02*
X168844838Y-96541295D01*
X168940076Y-96493676D01*
X168987695Y-96446057D01*
X169035314Y-96350818D01*
X169035314Y-96207961D01*
X168987695Y-96112723D01*
X168654362Y-96541295D02*
X168701981Y-96446057D01*
X168701981Y-96255580D01*
X168654362Y-96160342D01*
X168606743Y-96112723D01*
X168511505Y-96065104D01*
X168225790Y-96065104D01*
X168130552Y-96112723D01*
X168082933Y-96160342D01*
X168035314Y-96255580D01*
X168035314Y-96446057D01*
X168082933Y-96541295D01*
X168035314Y-97017485D02*
X168701981Y-97017485D01*
X168130552Y-97017485D02*
X168082933Y-97065104D01*
X168035314Y-97160342D01*
X168035314Y-97303200D01*
X168082933Y-97398438D01*
X168178171Y-97446057D01*
X168701981Y-97446057D01*
X168654362Y-98303200D02*
X168701981Y-98207962D01*
X168701981Y-98017485D01*
X168654362Y-97922247D01*
X168559124Y-97874628D01*
X168178171Y-97874628D01*
X168082933Y-97922247D01*
X168035314Y-98017485D01*
X168035314Y-98207962D01*
X168082933Y-98303200D01*
X168178171Y-98350819D01*
X168273410Y-98350819D01*
X168368648Y-97874628D01*
X168701981Y-99207962D02*
X167701981Y-99207962D01*
X168654362Y-99207962D02*
X168701981Y-99112724D01*
X168701981Y-98922247D01*
X168654362Y-98827009D01*
X168606743Y-98779390D01*
X168511505Y-98731771D01*
X168225790Y-98731771D01*
X168130552Y-98779390D01*
X168082933Y-98827009D01*
X168035314Y-98922247D01*
X168035314Y-99112724D01*
X168082933Y-99207962D01*
X168701981Y-100446057D02*
X167701981Y-100446057D01*
X168082933Y-100446057D02*
X168035314Y-100541295D01*
X168035314Y-100731772D01*
X168082933Y-100827010D01*
X168130552Y-100874629D01*
X168225790Y-100922248D01*
X168511505Y-100922248D01*
X168606743Y-100874629D01*
X168654362Y-100827010D01*
X168701981Y-100731772D01*
X168701981Y-100541295D01*
X168654362Y-100446057D01*
X168035314Y-101255581D02*
X168701981Y-101493676D01*
X168035314Y-101731772D02*
X168701981Y-101493676D01*
X168940076Y-101398438D01*
X168987695Y-101350819D01*
X169035314Y-101255581D01*
X168701981Y-102874629D02*
X167701981Y-102874629D01*
X168701981Y-103493676D02*
X168654362Y-103398438D01*
X168606743Y-103350819D01*
X168511505Y-103303200D01*
X168225790Y-103303200D01*
X168130552Y-103350819D01*
X168082933Y-103398438D01*
X168035314Y-103493676D01*
X168035314Y-103636534D01*
X168082933Y-103731772D01*
X168130552Y-103779391D01*
X168225790Y-103827010D01*
X168511505Y-103827010D01*
X168606743Y-103779391D01*
X168654362Y-103731772D01*
X168701981Y-103636534D01*
X168701981Y-103493676D01*
X167701981Y-104112724D02*
X167701981Y-104684153D01*
X168701981Y-104398438D02*
X167701981Y-104398438D01*
X168701981Y-105017486D02*
X167701981Y-105017486D01*
X168416267Y-105350820D01*
X167701981Y-105684153D01*
X168701981Y-105684153D01*
X168701981Y-106588915D02*
X168178171Y-106588915D01*
X168082933Y-106541296D01*
X168035314Y-106446058D01*
X168035314Y-106255581D01*
X168082933Y-106160343D01*
X168654362Y-106588915D02*
X168701981Y-106493677D01*
X168701981Y-106255581D01*
X168654362Y-106160343D01*
X168559124Y-106112724D01*
X168463886Y-106112724D01*
X168368648Y-106160343D01*
X168321029Y-106255581D01*
X168321029Y-106493677D01*
X168273410Y-106588915D01*
X168701981Y-107065105D02*
X167701981Y-107065105D01*
X168321029Y-107160343D02*
X168701981Y-107446058D01*
X168035314Y-107446058D02*
X168416267Y-107065105D01*
X168654362Y-108255582D02*
X168701981Y-108160344D01*
X168701981Y-107969867D01*
X168654362Y-107874629D01*
X168559124Y-107827010D01*
X168178171Y-107827010D01*
X168082933Y-107874629D01*
X168035314Y-107969867D01*
X168035314Y-108160344D01*
X168082933Y-108255582D01*
X168178171Y-108303201D01*
X168273410Y-108303201D01*
X168368648Y-107827010D01*
X168701981Y-108731772D02*
X168035314Y-108731772D01*
X168225790Y-108731772D02*
X168130552Y-108779391D01*
X168082933Y-108827010D01*
X168035314Y-108922248D01*
X168035314Y-109017487D01*
X167701981Y-109207963D02*
X168701981Y-109541296D01*
X167701981Y-109874630D01*
X168035314Y-110207963D02*
X168701981Y-110207963D01*
X168130552Y-110207963D02*
X168082933Y-110255582D01*
X168035314Y-110350820D01*
X168035314Y-110493678D01*
X168082933Y-110588916D01*
X168178171Y-110636535D01*
X168701981Y-110636535D01*
X141613000Y-106759620D02*
X141565381Y-106664382D01*
X141565381Y-106521525D01*
X141613000Y-106378667D01*
X141708238Y-106283429D01*
X141803476Y-106235810D01*
X141993952Y-106188191D01*
X142136810Y-106188191D01*
X142327286Y-106235810D01*
X142422524Y-106283429D01*
X142517762Y-106378667D01*
X142565381Y-106521525D01*
X142565381Y-106616763D01*
X142517762Y-106759620D01*
X142470143Y-106807239D01*
X142136810Y-106807239D01*
X142136810Y-106616763D01*
X142565381Y-107235810D02*
X141565381Y-107235810D01*
X141565381Y-107616763D01*
X141613000Y-107712001D01*
X141660619Y-107759620D01*
X141755857Y-107807239D01*
X141898714Y-107807239D01*
X141993952Y-107759620D01*
X142041571Y-107712001D01*
X142089190Y-107616763D01*
X142089190Y-107235810D01*
X142565381Y-108235810D02*
X141565381Y-108235810D01*
X141565381Y-108902476D02*
X141565381Y-109092953D01*
X141613000Y-109188191D01*
X141708238Y-109283429D01*
X141898714Y-109331048D01*
X142232048Y-109331048D01*
X142422524Y-109283429D01*
X142517762Y-109188191D01*
X142565381Y-109092953D01*
X142565381Y-108902476D01*
X142517762Y-108807238D01*
X142422524Y-108712000D01*
X142232048Y-108664381D01*
X141898714Y-108664381D01*
X141708238Y-108712000D01*
X141613000Y-108807238D01*
X141565381Y-108902476D01*
X142565381Y-110283429D02*
X142565381Y-109712000D01*
X142565381Y-109997714D02*
X141565381Y-109997714D01*
X141708238Y-109902476D01*
X141803476Y-109807238D01*
X141851095Y-109712000D01*
X141898714Y-111140572D02*
X142565381Y-111140572D01*
X141517762Y-110902476D02*
X142232048Y-110664381D01*
X142232048Y-111283429D01*
X144153000Y-106886620D02*
X144105381Y-106791382D01*
X144105381Y-106648525D01*
X144153000Y-106505667D01*
X144248238Y-106410429D01*
X144343476Y-106362810D01*
X144533952Y-106315191D01*
X144676810Y-106315191D01*
X144867286Y-106362810D01*
X144962524Y-106410429D01*
X145057762Y-106505667D01*
X145105381Y-106648525D01*
X145105381Y-106743763D01*
X145057762Y-106886620D01*
X145010143Y-106934239D01*
X144676810Y-106934239D01*
X144676810Y-106743763D01*
X145105381Y-107362810D02*
X144105381Y-107362810D01*
X144105381Y-107743763D01*
X144153000Y-107839001D01*
X144200619Y-107886620D01*
X144295857Y-107934239D01*
X144438714Y-107934239D01*
X144533952Y-107886620D01*
X144581571Y-107839001D01*
X144629190Y-107743763D01*
X144629190Y-107362810D01*
X145105381Y-108362810D02*
X144105381Y-108362810D01*
X144105381Y-109029476D02*
X144105381Y-109219953D01*
X144153000Y-109315191D01*
X144248238Y-109410429D01*
X144438714Y-109458048D01*
X144772048Y-109458048D01*
X144962524Y-109410429D01*
X145057762Y-109315191D01*
X145105381Y-109219953D01*
X145105381Y-109029476D01*
X145057762Y-108934238D01*
X144962524Y-108839000D01*
X144772048Y-108791381D01*
X144438714Y-108791381D01*
X144248238Y-108839000D01*
X144153000Y-108934238D01*
X144105381Y-109029476D01*
X145105381Y-110410429D02*
X145105381Y-109839000D01*
X145105381Y-110124714D02*
X144105381Y-110124714D01*
X144248238Y-110029476D01*
X144343476Y-109934238D01*
X144391095Y-109839000D01*
X144200619Y-110791381D02*
X144153000Y-110839000D01*
X144105381Y-110934238D01*
X144105381Y-111172334D01*
X144153000Y-111267572D01*
X144200619Y-111315191D01*
X144295857Y-111362810D01*
X144391095Y-111362810D01*
X144533952Y-111315191D01*
X145105381Y-110743762D01*
X145105381Y-111362810D01*
X146820000Y-106886620D02*
X146772381Y-106791382D01*
X146772381Y-106648525D01*
X146820000Y-106505667D01*
X146915238Y-106410429D01*
X147010476Y-106362810D01*
X147200952Y-106315191D01*
X147343810Y-106315191D01*
X147534286Y-106362810D01*
X147629524Y-106410429D01*
X147724762Y-106505667D01*
X147772381Y-106648525D01*
X147772381Y-106743763D01*
X147724762Y-106886620D01*
X147677143Y-106934239D01*
X147343810Y-106934239D01*
X147343810Y-106743763D01*
X147772381Y-107362810D02*
X146772381Y-107362810D01*
X146772381Y-107743763D01*
X146820000Y-107839001D01*
X146867619Y-107886620D01*
X146962857Y-107934239D01*
X147105714Y-107934239D01*
X147200952Y-107886620D01*
X147248571Y-107839001D01*
X147296190Y-107743763D01*
X147296190Y-107362810D01*
X147772381Y-108362810D02*
X146772381Y-108362810D01*
X146772381Y-109029476D02*
X146772381Y-109219953D01*
X146820000Y-109315191D01*
X146915238Y-109410429D01*
X147105714Y-109458048D01*
X147439048Y-109458048D01*
X147629524Y-109410429D01*
X147724762Y-109315191D01*
X147772381Y-109219953D01*
X147772381Y-109029476D01*
X147724762Y-108934238D01*
X147629524Y-108839000D01*
X147439048Y-108791381D01*
X147105714Y-108791381D01*
X146915238Y-108839000D01*
X146820000Y-108934238D01*
X146772381Y-109029476D01*
X147772381Y-110410429D02*
X147772381Y-109839000D01*
X147772381Y-110124714D02*
X146772381Y-110124714D01*
X146915238Y-110029476D01*
X147010476Y-109934238D01*
X147058095Y-109839000D01*
X146772381Y-110743762D02*
X146772381Y-111362810D01*
X147153333Y-111029476D01*
X147153333Y-111172334D01*
X147200952Y-111267572D01*
X147248571Y-111315191D01*
X147343810Y-111362810D01*
X147581905Y-111362810D01*
X147677143Y-111315191D01*
X147724762Y-111267572D01*
X147772381Y-111172334D01*
X147772381Y-110886619D01*
X147724762Y-110791381D01*
X147677143Y-110743762D01*
X149360000Y-106886620D02*
X149312381Y-106791382D01*
X149312381Y-106648525D01*
X149360000Y-106505667D01*
X149455238Y-106410429D01*
X149550476Y-106362810D01*
X149740952Y-106315191D01*
X149883810Y-106315191D01*
X150074286Y-106362810D01*
X150169524Y-106410429D01*
X150264762Y-106505667D01*
X150312381Y-106648525D01*
X150312381Y-106743763D01*
X150264762Y-106886620D01*
X150217143Y-106934239D01*
X149883810Y-106934239D01*
X149883810Y-106743763D01*
X150312381Y-107362810D02*
X149312381Y-107362810D01*
X149312381Y-107743763D01*
X149360000Y-107839001D01*
X149407619Y-107886620D01*
X149502857Y-107934239D01*
X149645714Y-107934239D01*
X149740952Y-107886620D01*
X149788571Y-107839001D01*
X149836190Y-107743763D01*
X149836190Y-107362810D01*
X150312381Y-108362810D02*
X149312381Y-108362810D01*
X149312381Y-109029476D02*
X149312381Y-109219953D01*
X149360000Y-109315191D01*
X149455238Y-109410429D01*
X149645714Y-109458048D01*
X149979048Y-109458048D01*
X150169524Y-109410429D01*
X150264762Y-109315191D01*
X150312381Y-109219953D01*
X150312381Y-109029476D01*
X150264762Y-108934238D01*
X150169524Y-108839000D01*
X149979048Y-108791381D01*
X149645714Y-108791381D01*
X149455238Y-108839000D01*
X149360000Y-108934238D01*
X149312381Y-109029476D01*
X150312381Y-110410429D02*
X150312381Y-109839000D01*
X150312381Y-110124714D02*
X149312381Y-110124714D01*
X149455238Y-110029476D01*
X149550476Y-109934238D01*
X149598095Y-109839000D01*
X149312381Y-111315191D02*
X149312381Y-110839000D01*
X149788571Y-110791381D01*
X149740952Y-110839000D01*
X149693333Y-110934238D01*
X149693333Y-111172334D01*
X149740952Y-111267572D01*
X149788571Y-111315191D01*
X149883810Y-111362810D01*
X150121905Y-111362810D01*
X150217143Y-111315191D01*
X150264762Y-111267572D01*
X150312381Y-111172334D01*
X150312381Y-110934238D01*
X150264762Y-110839000D01*
X150217143Y-110791381D01*
X152725381Y-109315334D02*
X152249190Y-108982000D01*
X152725381Y-108743905D02*
X151725381Y-108743905D01*
X151725381Y-109124858D01*
X151773000Y-109220096D01*
X151820619Y-109267715D01*
X151915857Y-109315334D01*
X152058714Y-109315334D01*
X152153952Y-109267715D01*
X152201571Y-109220096D01*
X152249190Y-109124858D01*
X152249190Y-108743905D01*
X151725381Y-109648667D02*
X152725381Y-110315334D01*
X151725381Y-110315334D02*
X152725381Y-109648667D01*
X152725381Y-110696286D02*
X151725381Y-110696286D01*
X151725381Y-110934381D01*
X151773000Y-111077239D01*
X151868238Y-111172477D01*
X151963476Y-111220096D01*
X152153952Y-111267715D01*
X152296810Y-111267715D01*
X152487286Y-111220096D01*
X152582524Y-111172477D01*
X152677762Y-111077239D01*
X152725381Y-110934381D01*
X152725381Y-110696286D01*
X154265381Y-108847095D02*
X154265381Y-109418524D01*
X155265381Y-109132809D02*
X154265381Y-109132809D01*
X154265381Y-109656619D02*
X155265381Y-110323286D01*
X154265381Y-110323286D02*
X155265381Y-109656619D01*
X155265381Y-110704238D02*
X154265381Y-110704238D01*
X154265381Y-110942333D01*
X154313000Y-111085191D01*
X154408238Y-111180429D01*
X154503476Y-111228048D01*
X154693952Y-111275667D01*
X154836810Y-111275667D01*
X155027286Y-111228048D01*
X155122524Y-111180429D01*
X155217762Y-111085191D01*
X155265381Y-110942333D01*
X155265381Y-110704238D01*
X156853000Y-107616810D02*
X156805381Y-107521572D01*
X156805381Y-107378715D01*
X156853000Y-107235857D01*
X156948238Y-107140619D01*
X157043476Y-107093000D01*
X157233952Y-107045381D01*
X157376810Y-107045381D01*
X157567286Y-107093000D01*
X157662524Y-107140619D01*
X157757762Y-107235857D01*
X157805381Y-107378715D01*
X157805381Y-107473953D01*
X157757762Y-107616810D01*
X157710143Y-107664429D01*
X157376810Y-107664429D01*
X157376810Y-107473953D01*
X157805381Y-108093000D02*
X156805381Y-108093000D01*
X156805381Y-108473953D01*
X156853000Y-108569191D01*
X156900619Y-108616810D01*
X156995857Y-108664429D01*
X157138714Y-108664429D01*
X157233952Y-108616810D01*
X157281571Y-108569191D01*
X157329190Y-108473953D01*
X157329190Y-108093000D01*
X157805381Y-109093000D02*
X156805381Y-109093000D01*
X156805381Y-109759666D02*
X156805381Y-109950143D01*
X156853000Y-110045381D01*
X156948238Y-110140619D01*
X157138714Y-110188238D01*
X157472048Y-110188238D01*
X157662524Y-110140619D01*
X157757762Y-110045381D01*
X157805381Y-109950143D01*
X157805381Y-109759666D01*
X157757762Y-109664428D01*
X157662524Y-109569190D01*
X157472048Y-109521571D01*
X157138714Y-109521571D01*
X156948238Y-109569190D01*
X156853000Y-109664428D01*
X156805381Y-109759666D01*
X157138714Y-111045381D02*
X157805381Y-111045381D01*
X156757762Y-110807285D02*
X157472048Y-110569190D01*
X157472048Y-111188238D01*
X159393000Y-107870810D02*
X159345381Y-107775572D01*
X159345381Y-107632715D01*
X159393000Y-107489857D01*
X159488238Y-107394619D01*
X159583476Y-107347000D01*
X159773952Y-107299381D01*
X159916810Y-107299381D01*
X160107286Y-107347000D01*
X160202524Y-107394619D01*
X160297762Y-107489857D01*
X160345381Y-107632715D01*
X160345381Y-107727953D01*
X160297762Y-107870810D01*
X160250143Y-107918429D01*
X159916810Y-107918429D01*
X159916810Y-107727953D01*
X160345381Y-108347000D02*
X159345381Y-108347000D01*
X159345381Y-108727953D01*
X159393000Y-108823191D01*
X159440619Y-108870810D01*
X159535857Y-108918429D01*
X159678714Y-108918429D01*
X159773952Y-108870810D01*
X159821571Y-108823191D01*
X159869190Y-108727953D01*
X159869190Y-108347000D01*
X160345381Y-109347000D02*
X159345381Y-109347000D01*
X159345381Y-110013666D02*
X159345381Y-110204143D01*
X159393000Y-110299381D01*
X159488238Y-110394619D01*
X159678714Y-110442238D01*
X160012048Y-110442238D01*
X160202524Y-110394619D01*
X160297762Y-110299381D01*
X160345381Y-110204143D01*
X160345381Y-110013666D01*
X160297762Y-109918428D01*
X160202524Y-109823190D01*
X160012048Y-109775571D01*
X159678714Y-109775571D01*
X159488238Y-109823190D01*
X159393000Y-109918428D01*
X159345381Y-110013666D01*
X159345381Y-111347000D02*
X159345381Y-110870809D01*
X159821571Y-110823190D01*
X159773952Y-110870809D01*
X159726333Y-110966047D01*
X159726333Y-111204143D01*
X159773952Y-111299381D01*
X159821571Y-111347000D01*
X159916810Y-111394619D01*
X160154905Y-111394619D01*
X160250143Y-111347000D01*
X160297762Y-111299381D01*
X160345381Y-111204143D01*
X160345381Y-110966047D01*
X160297762Y-110870809D01*
X160250143Y-110823190D01*
X161933000Y-109220096D02*
X161885381Y-109124858D01*
X161885381Y-108982001D01*
X161933000Y-108839143D01*
X162028238Y-108743905D01*
X162123476Y-108696286D01*
X162313952Y-108648667D01*
X162456810Y-108648667D01*
X162647286Y-108696286D01*
X162742524Y-108743905D01*
X162837762Y-108839143D01*
X162885381Y-108982001D01*
X162885381Y-109077239D01*
X162837762Y-109220096D01*
X162790143Y-109267715D01*
X162456810Y-109267715D01*
X162456810Y-109077239D01*
X162885381Y-109696286D02*
X161885381Y-109696286D01*
X162885381Y-110267715D01*
X161885381Y-110267715D01*
X162885381Y-110743905D02*
X161885381Y-110743905D01*
X161885381Y-110982000D01*
X161933000Y-111124858D01*
X162028238Y-111220096D01*
X162123476Y-111267715D01*
X162313952Y-111315334D01*
X162456810Y-111315334D01*
X162647286Y-111267715D01*
X162742524Y-111220096D01*
X162837762Y-111124858D01*
X162885381Y-110982000D01*
X162885381Y-110743905D01*
X164552381Y-108870905D02*
X164552381Y-109489953D01*
X164933333Y-109156619D01*
X164933333Y-109299477D01*
X164980952Y-109394715D01*
X165028571Y-109442334D01*
X165123810Y-109489953D01*
X165361905Y-109489953D01*
X165457143Y-109442334D01*
X165504762Y-109394715D01*
X165552381Y-109299477D01*
X165552381Y-109013762D01*
X165504762Y-108918524D01*
X165457143Y-108870905D01*
X164552381Y-109775667D02*
X165552381Y-110109000D01*
X164552381Y-110442334D01*
X164552381Y-110680429D02*
X164552381Y-111299477D01*
X164933333Y-110966143D01*
X164933333Y-111109001D01*
X164980952Y-111204239D01*
X165028571Y-111251858D01*
X165123810Y-111299477D01*
X165361905Y-111299477D01*
X165457143Y-111251858D01*
X165504762Y-111204239D01*
X165552381Y-111109001D01*
X165552381Y-110823286D01*
X165504762Y-110728048D01*
X165457143Y-110680429D01*
X141613000Y-92837096D02*
X141565381Y-92741858D01*
X141565381Y-92599001D01*
X141613000Y-92456143D01*
X141708238Y-92360905D01*
X141803476Y-92313286D01*
X141993952Y-92265667D01*
X142136810Y-92265667D01*
X142327286Y-92313286D01*
X142422524Y-92360905D01*
X142517762Y-92456143D01*
X142565381Y-92599001D01*
X142565381Y-92694239D01*
X142517762Y-92837096D01*
X142470143Y-92884715D01*
X142136810Y-92884715D01*
X142136810Y-92694239D01*
X142565381Y-93313286D02*
X141565381Y-93313286D01*
X142565381Y-93884715D01*
X141565381Y-93884715D01*
X142565381Y-94360905D02*
X141565381Y-94360905D01*
X141565381Y-94599000D01*
X141613000Y-94741858D01*
X141708238Y-94837096D01*
X141803476Y-94884715D01*
X141993952Y-94932334D01*
X142136810Y-94932334D01*
X142327286Y-94884715D01*
X142422524Y-94837096D01*
X142517762Y-94741858D01*
X142565381Y-94599000D01*
X142565381Y-94360905D01*
X144280000Y-92964096D02*
X144232381Y-92868858D01*
X144232381Y-92726001D01*
X144280000Y-92583143D01*
X144375238Y-92487905D01*
X144470476Y-92440286D01*
X144660952Y-92392667D01*
X144803810Y-92392667D01*
X144994286Y-92440286D01*
X145089524Y-92487905D01*
X145184762Y-92583143D01*
X145232381Y-92726001D01*
X145232381Y-92821239D01*
X145184762Y-92964096D01*
X145137143Y-93011715D01*
X144803810Y-93011715D01*
X144803810Y-92821239D01*
X145232381Y-93440286D02*
X144232381Y-93440286D01*
X145232381Y-94011715D01*
X144232381Y-94011715D01*
X145232381Y-94487905D02*
X144232381Y-94487905D01*
X144232381Y-94726000D01*
X144280000Y-94868858D01*
X144375238Y-94964096D01*
X144470476Y-95011715D01*
X144660952Y-95059334D01*
X144803810Y-95059334D01*
X144994286Y-95011715D01*
X145089524Y-94964096D01*
X145184762Y-94868858D01*
X145232381Y-94726000D01*
X145232381Y-94487905D01*
X146772381Y-92265667D02*
X147772381Y-92599000D01*
X146772381Y-92932334D01*
X147677143Y-93837096D02*
X147724762Y-93789477D01*
X147772381Y-93646620D01*
X147772381Y-93551382D01*
X147724762Y-93408524D01*
X147629524Y-93313286D01*
X147534286Y-93265667D01*
X147343810Y-93218048D01*
X147200952Y-93218048D01*
X147010476Y-93265667D01*
X146915238Y-93313286D01*
X146820000Y-93408524D01*
X146772381Y-93551382D01*
X146772381Y-93646620D01*
X146820000Y-93789477D01*
X146867619Y-93837096D01*
X147677143Y-94837096D02*
X147724762Y-94789477D01*
X147772381Y-94646620D01*
X147772381Y-94551382D01*
X147724762Y-94408524D01*
X147629524Y-94313286D01*
X147534286Y-94265667D01*
X147343810Y-94218048D01*
X147200952Y-94218048D01*
X147010476Y-94265667D01*
X146915238Y-94313286D01*
X146820000Y-94408524D01*
X146772381Y-94551382D01*
X146772381Y-94646620D01*
X146820000Y-94789477D01*
X146867619Y-94837096D01*
X149312381Y-92360905D02*
X149312381Y-92979953D01*
X149693333Y-92646619D01*
X149693333Y-92789477D01*
X149740952Y-92884715D01*
X149788571Y-92932334D01*
X149883810Y-92979953D01*
X150121905Y-92979953D01*
X150217143Y-92932334D01*
X150264762Y-92884715D01*
X150312381Y-92789477D01*
X150312381Y-92503762D01*
X150264762Y-92408524D01*
X150217143Y-92360905D01*
X149312381Y-93265667D02*
X150312381Y-93599000D01*
X149312381Y-93932334D01*
X149312381Y-94170429D02*
X149312381Y-94789477D01*
X149693333Y-94456143D01*
X149693333Y-94599001D01*
X149740952Y-94694239D01*
X149788571Y-94741858D01*
X149883810Y-94789477D01*
X150121905Y-94789477D01*
X150217143Y-94741858D01*
X150264762Y-94694239D01*
X150312381Y-94599001D01*
X150312381Y-94313286D01*
X150264762Y-94218048D01*
X150217143Y-94170429D01*
X151900000Y-92884810D02*
X151852381Y-92789572D01*
X151852381Y-92646715D01*
X151900000Y-92503857D01*
X151995238Y-92408619D01*
X152090476Y-92361000D01*
X152280952Y-92313381D01*
X152423810Y-92313381D01*
X152614286Y-92361000D01*
X152709524Y-92408619D01*
X152804762Y-92503857D01*
X152852381Y-92646715D01*
X152852381Y-92741953D01*
X152804762Y-92884810D01*
X152757143Y-92932429D01*
X152423810Y-92932429D01*
X152423810Y-92741953D01*
X152852381Y-93361000D02*
X151852381Y-93361000D01*
X151852381Y-93741953D01*
X151900000Y-93837191D01*
X151947619Y-93884810D01*
X152042857Y-93932429D01*
X152185714Y-93932429D01*
X152280952Y-93884810D01*
X152328571Y-93837191D01*
X152376190Y-93741953D01*
X152376190Y-93361000D01*
X152852381Y-94361000D02*
X151852381Y-94361000D01*
X151852381Y-95027666D02*
X151852381Y-95218143D01*
X151900000Y-95313381D01*
X151995238Y-95408619D01*
X152185714Y-95456238D01*
X152519048Y-95456238D01*
X152709524Y-95408619D01*
X152804762Y-95313381D01*
X152852381Y-95218143D01*
X152852381Y-95027666D01*
X152804762Y-94932428D01*
X152709524Y-94837190D01*
X152519048Y-94789571D01*
X152185714Y-94789571D01*
X151995238Y-94837190D01*
X151900000Y-94932428D01*
X151852381Y-95027666D01*
X151852381Y-96075285D02*
X151852381Y-96170524D01*
X151900000Y-96265762D01*
X151947619Y-96313381D01*
X152042857Y-96361000D01*
X152233333Y-96408619D01*
X152471429Y-96408619D01*
X152661905Y-96361000D01*
X152757143Y-96313381D01*
X152804762Y-96265762D01*
X152852381Y-96170524D01*
X152852381Y-96075285D01*
X152804762Y-95980047D01*
X152757143Y-95932428D01*
X152661905Y-95884809D01*
X152471429Y-95837190D01*
X152233333Y-95837190D01*
X152042857Y-95884809D01*
X151947619Y-95932428D01*
X151900000Y-95980047D01*
X151852381Y-96075285D01*
X154313000Y-92916620D02*
X154265381Y-92821382D01*
X154265381Y-92678525D01*
X154313000Y-92535667D01*
X154408238Y-92440429D01*
X154503476Y-92392810D01*
X154693952Y-92345191D01*
X154836810Y-92345191D01*
X155027286Y-92392810D01*
X155122524Y-92440429D01*
X155217762Y-92535667D01*
X155265381Y-92678525D01*
X155265381Y-92773763D01*
X155217762Y-92916620D01*
X155170143Y-92964239D01*
X154836810Y-92964239D01*
X154836810Y-92773763D01*
X155265381Y-93392810D02*
X154265381Y-93392810D01*
X154265381Y-93773763D01*
X154313000Y-93869001D01*
X154360619Y-93916620D01*
X154455857Y-93964239D01*
X154598714Y-93964239D01*
X154693952Y-93916620D01*
X154741571Y-93869001D01*
X154789190Y-93773763D01*
X154789190Y-93392810D01*
X155265381Y-94392810D02*
X154265381Y-94392810D01*
X154265381Y-95059476D02*
X154265381Y-95249953D01*
X154313000Y-95345191D01*
X154408238Y-95440429D01*
X154598714Y-95488048D01*
X154932048Y-95488048D01*
X155122524Y-95440429D01*
X155217762Y-95345191D01*
X155265381Y-95249953D01*
X155265381Y-95059476D01*
X155217762Y-94964238D01*
X155122524Y-94869000D01*
X154932048Y-94821381D01*
X154598714Y-94821381D01*
X154408238Y-94869000D01*
X154313000Y-94964238D01*
X154265381Y-95059476D01*
X154265381Y-96107095D02*
X154265381Y-96202334D01*
X154313000Y-96297572D01*
X154360619Y-96345191D01*
X154455857Y-96392810D01*
X154646333Y-96440429D01*
X154884429Y-96440429D01*
X155074905Y-96392810D01*
X155170143Y-96345191D01*
X155217762Y-96297572D01*
X155265381Y-96202334D01*
X155265381Y-96107095D01*
X155217762Y-96011857D01*
X155170143Y-95964238D01*
X155074905Y-95916619D01*
X154884429Y-95869000D01*
X154646333Y-95869000D01*
X154455857Y-95916619D01*
X154360619Y-95964238D01*
X154313000Y-96011857D01*
X154265381Y-96107095D01*
X154360619Y-96821381D02*
X154313000Y-96869000D01*
X154265381Y-96964238D01*
X154265381Y-97202334D01*
X154313000Y-97297572D01*
X154360619Y-97345191D01*
X154455857Y-97392810D01*
X154551095Y-97392810D01*
X154693952Y-97345191D01*
X155265381Y-96773762D01*
X155265381Y-97392810D01*
X156853000Y-92916620D02*
X156805381Y-92821382D01*
X156805381Y-92678525D01*
X156853000Y-92535667D01*
X156948238Y-92440429D01*
X157043476Y-92392810D01*
X157233952Y-92345191D01*
X157376810Y-92345191D01*
X157567286Y-92392810D01*
X157662524Y-92440429D01*
X157757762Y-92535667D01*
X157805381Y-92678525D01*
X157805381Y-92773763D01*
X157757762Y-92916620D01*
X157710143Y-92964239D01*
X157376810Y-92964239D01*
X157376810Y-92773763D01*
X157805381Y-93392810D02*
X156805381Y-93392810D01*
X156805381Y-93773763D01*
X156853000Y-93869001D01*
X156900619Y-93916620D01*
X156995857Y-93964239D01*
X157138714Y-93964239D01*
X157233952Y-93916620D01*
X157281571Y-93869001D01*
X157329190Y-93773763D01*
X157329190Y-93392810D01*
X157805381Y-94392810D02*
X156805381Y-94392810D01*
X156805381Y-95059476D02*
X156805381Y-95249953D01*
X156853000Y-95345191D01*
X156948238Y-95440429D01*
X157138714Y-95488048D01*
X157472048Y-95488048D01*
X157662524Y-95440429D01*
X157757762Y-95345191D01*
X157805381Y-95249953D01*
X157805381Y-95059476D01*
X157757762Y-94964238D01*
X157662524Y-94869000D01*
X157472048Y-94821381D01*
X157138714Y-94821381D01*
X156948238Y-94869000D01*
X156853000Y-94964238D01*
X156805381Y-95059476D01*
X157805381Y-96440429D02*
X157805381Y-95869000D01*
X157805381Y-96154714D02*
X156805381Y-96154714D01*
X156948238Y-96059476D01*
X157043476Y-95964238D01*
X157091095Y-95869000D01*
X156805381Y-97297572D02*
X156805381Y-97107095D01*
X156853000Y-97011857D01*
X156900619Y-96964238D01*
X157043476Y-96869000D01*
X157233952Y-96821381D01*
X157614905Y-96821381D01*
X157710143Y-96869000D01*
X157757762Y-96916619D01*
X157805381Y-97011857D01*
X157805381Y-97202334D01*
X157757762Y-97297572D01*
X157710143Y-97345191D01*
X157614905Y-97392810D01*
X157376810Y-97392810D01*
X157281571Y-97345191D01*
X157233952Y-97297572D01*
X157186333Y-97202334D01*
X157186333Y-97011857D01*
X157233952Y-96916619D01*
X157281571Y-96869000D01*
X157376810Y-96821381D01*
X159821571Y-92345190D02*
X159821571Y-92678524D01*
X160345381Y-92821381D02*
X160345381Y-92345190D01*
X159345381Y-92345190D01*
X159345381Y-92821381D01*
X160345381Y-93249952D02*
X159345381Y-93249952D01*
X160345381Y-93821381D01*
X159345381Y-93821381D01*
X160059667Y-94249952D02*
X160059667Y-94726143D01*
X160345381Y-94154714D02*
X159345381Y-94488047D01*
X160345381Y-94821381D01*
X159821571Y-95488048D02*
X159869190Y-95630905D01*
X159916810Y-95678524D01*
X160012048Y-95726143D01*
X160154905Y-95726143D01*
X160250143Y-95678524D01*
X160297762Y-95630905D01*
X160345381Y-95535667D01*
X160345381Y-95154714D01*
X159345381Y-95154714D01*
X159345381Y-95488048D01*
X159393000Y-95583286D01*
X159440619Y-95630905D01*
X159535857Y-95678524D01*
X159631095Y-95678524D01*
X159726333Y-95630905D01*
X159773952Y-95583286D01*
X159821571Y-95488048D01*
X159821571Y-95154714D01*
X160345381Y-96630905D02*
X160345381Y-96154714D01*
X159345381Y-96154714D01*
X159821571Y-96964238D02*
X159821571Y-97297572D01*
X160345381Y-97440429D02*
X160345381Y-96964238D01*
X159345381Y-96964238D01*
X159345381Y-97440429D01*
X162726667Y-92361048D02*
X162726667Y-92837239D01*
X163012381Y-92265810D02*
X162012381Y-92599143D01*
X163012381Y-92932477D01*
X163012381Y-93265810D02*
X162012381Y-93265810D01*
X162012381Y-93503905D01*
X162060000Y-93646763D01*
X162155238Y-93742001D01*
X162250476Y-93789620D01*
X162440952Y-93837239D01*
X162583810Y-93837239D01*
X162774286Y-93789620D01*
X162869524Y-93742001D01*
X162964762Y-93646763D01*
X163012381Y-93503905D01*
X163012381Y-93265810D01*
X162917143Y-94837239D02*
X162964762Y-94789620D01*
X163012381Y-94646763D01*
X163012381Y-94551525D01*
X162964762Y-94408667D01*
X162869524Y-94313429D01*
X162774286Y-94265810D01*
X162583810Y-94218191D01*
X162440952Y-94218191D01*
X162250476Y-94265810D01*
X162155238Y-94313429D01*
X162060000Y-94408667D01*
X162012381Y-94551525D01*
X162012381Y-94646763D01*
X162060000Y-94789620D01*
X162107619Y-94837239D01*
X163107619Y-95027715D02*
X163107619Y-95789620D01*
X163012381Y-96027715D02*
X162012381Y-96027715D01*
X163012381Y-96503905D02*
X162012381Y-96503905D01*
X163012381Y-97075334D01*
X162012381Y-97075334D01*
X165552381Y-92908619D02*
X165076190Y-92575285D01*
X165552381Y-92337190D02*
X164552381Y-92337190D01*
X164552381Y-92718143D01*
X164600000Y-92813381D01*
X164647619Y-92861000D01*
X164742857Y-92908619D01*
X164885714Y-92908619D01*
X164980952Y-92861000D01*
X165028571Y-92813381D01*
X165076190Y-92718143D01*
X165076190Y-92337190D01*
X165028571Y-93337190D02*
X165028571Y-93670524D01*
X165552381Y-93813381D02*
X165552381Y-93337190D01*
X164552381Y-93337190D01*
X164552381Y-93813381D01*
X165504762Y-94194333D02*
X165552381Y-94337190D01*
X165552381Y-94575286D01*
X165504762Y-94670524D01*
X165457143Y-94718143D01*
X165361905Y-94765762D01*
X165266667Y-94765762D01*
X165171429Y-94718143D01*
X165123810Y-94670524D01*
X165076190Y-94575286D01*
X165028571Y-94384809D01*
X164980952Y-94289571D01*
X164933333Y-94241952D01*
X164838095Y-94194333D01*
X164742857Y-94194333D01*
X164647619Y-94241952D01*
X164600000Y-94289571D01*
X164552381Y-94384809D01*
X164552381Y-94622905D01*
X164600000Y-94765762D01*
X165028571Y-95194333D02*
X165028571Y-95527667D01*
X165552381Y-95670524D02*
X165552381Y-95194333D01*
X164552381Y-95194333D01*
X164552381Y-95670524D01*
X164552381Y-95956238D02*
X164552381Y-96527667D01*
X165552381Y-96241952D02*
X164552381Y-96241952D01*
D15*
G36*
X160585426Y-99205774D02*
X146449774Y-99205774D01*
X146449774Y-99514991D01*
X153142121Y-99514991D01*
X153371274Y-99515476D01*
X153462241Y-99516237D01*
X153533141Y-99518167D01*
X153585968Y-99521379D01*
X153622717Y-99525985D01*
X153642197Y-99530863D01*
X153711052Y-99564561D01*
X153761102Y-99609775D01*
X153792283Y-99666421D01*
X153804530Y-99734414D01*
X153804730Y-99745224D01*
X153801735Y-99786760D01*
X153794159Y-99825497D01*
X153789666Y-99838883D01*
X153770413Y-99870186D01*
X153741351Y-99902435D01*
X153710092Y-99927960D01*
X153691942Y-99937400D01*
X153689071Y-99947149D01*
X153704968Y-99967615D01*
X153712552Y-99975018D01*
X153745967Y-100020036D01*
X153764874Y-100074734D01*
X153768790Y-100132877D01*
X153757233Y-100188224D01*
X153732407Y-100231446D01*
X153712257Y-100253471D01*
X153691323Y-100270605D01*
X153666544Y-100283518D01*
X153634854Y-100292882D01*
X153593192Y-100299370D01*
X153576982Y-100300639D01*
X153837860Y-100300639D01*
X153843284Y-100288641D01*
X153858526Y-100260416D01*
X153882044Y-100218677D01*
X153912295Y-100166137D01*
X153947736Y-100105510D01*
X153975904Y-100057865D01*
X154113947Y-99825434D01*
X154113947Y-99514991D01*
X154301687Y-99514991D01*
X154301687Y-99780035D01*
X156421034Y-99780035D01*
X156428601Y-99738622D01*
X156452550Y-99661264D01*
X156493298Y-99598144D01*
X156550437Y-99549648D01*
X156623563Y-99516165D01*
X156675279Y-99503381D01*
X156732641Y-99498017D01*
X156798977Y-99499515D01*
X156864194Y-99507159D01*
X156918196Y-99520237D01*
X156919405Y-99520659D01*
X156921916Y-99521907D01*
X157106730Y-99521907D01*
X157116898Y-99518681D01*
X157143966Y-99516923D01*
X157182779Y-99516894D01*
X157197193Y-99517305D01*
X157287655Y-99520513D01*
X157343329Y-99692295D01*
X157486651Y-99689230D01*
X157629972Y-99686165D01*
X157685480Y-99514991D01*
X157777105Y-99514991D01*
X157818964Y-99515998D01*
X157850784Y-99518679D01*
X157867435Y-99522528D01*
X157868730Y-99524044D01*
X157865054Y-99535592D01*
X157854718Y-99565018D01*
X157838759Y-99609500D01*
X157818215Y-99666215D01*
X157794124Y-99732339D01*
X157767522Y-99805049D01*
X157739449Y-99881522D01*
X157710940Y-99958934D01*
X157683034Y-100034463D01*
X157656769Y-100105286D01*
X157633182Y-100168578D01*
X157613310Y-100221518D01*
X157598191Y-100261281D01*
X157590995Y-100279752D01*
X157584013Y-100294739D01*
X157574367Y-100303751D01*
X157556965Y-100308307D01*
X157526712Y-100309924D01*
X157489094Y-100310122D01*
X157399268Y-100310122D01*
X157252999Y-99919918D01*
X157220125Y-99832020D01*
X157189830Y-99750632D01*
X157162965Y-99678067D01*
X157140378Y-99616638D01*
X157122920Y-99568656D01*
X157111440Y-99536435D01*
X157106789Y-99522286D01*
X157106730Y-99521907D01*
X156921916Y-99521907D01*
X156988227Y-99554861D01*
X157039921Y-99602272D01*
X157073591Y-99661698D01*
X157088339Y-99731941D01*
X157088936Y-99746904D01*
X157080321Y-99816009D01*
X157052844Y-99874416D01*
X157007162Y-99920795D01*
X157000563Y-99925437D01*
X156972122Y-99940284D01*
X156927616Y-99958297D01*
X156872448Y-99977457D01*
X156813779Y-99995250D01*
X156759109Y-100011522D01*
X156711000Y-100027452D01*
X156674092Y-100041391D01*
X156653023Y-100051688D01*
X156651187Y-100053102D01*
X156634914Y-100081133D01*
X156634163Y-100115525D01*
X156648607Y-100147249D01*
X156654822Y-100153958D01*
X156689809Y-100174450D01*
X156732632Y-100182179D01*
X156778176Y-100178591D01*
X156821323Y-100165132D01*
X156856959Y-100143250D01*
X156879967Y-100114390D01*
X156885860Y-100088636D01*
X156887857Y-100077925D01*
X156896797Y-100071504D01*
X156917103Y-100068298D01*
X156953200Y-100067233D01*
X156974208Y-100067165D01*
X157062556Y-100067165D01*
X157062452Y-100103056D01*
X157052586Y-100151982D01*
X157026002Y-100202219D01*
X156986820Y-100247758D01*
X156939447Y-100282436D01*
X156906148Y-100298859D01*
X156874515Y-100309247D01*
X156836914Y-100315347D01*
X156785710Y-100318910D01*
X156778913Y-100319222D01*
X156700287Y-100318873D01*
X156636760Y-100309099D01*
X156582876Y-100288563D01*
X156538803Y-100260297D01*
X156495727Y-100214566D01*
X156467698Y-100157677D01*
X156455899Y-100095206D01*
X156461514Y-100032732D01*
X156480326Y-99984730D01*
X156512866Y-99943431D01*
X156561189Y-99908223D01*
X156627379Y-99877900D01*
X156709165Y-99852399D01*
X156781560Y-99832026D01*
X156834986Y-99813830D01*
X156872286Y-99796535D01*
X156896307Y-99778865D01*
X156908082Y-99763219D01*
X156917179Y-99728301D01*
X156907808Y-99697279D01*
X156883440Y-99671507D01*
X156847546Y-99652338D01*
X156803599Y-99641125D01*
X156755069Y-99639222D01*
X156705429Y-99647981D01*
X156661164Y-99666967D01*
X156626939Y-99699495D01*
X156610114Y-99733622D01*
X156593889Y-99780035D01*
X156421034Y-99780035D01*
X154301687Y-99780035D01*
X154301687Y-99826128D01*
X154445248Y-100065364D01*
X154588810Y-100304600D01*
X154492377Y-100307828D01*
X154456577Y-100309384D01*
X154429745Y-100309674D01*
X154409004Y-100306269D01*
X154391479Y-100296742D01*
X154374294Y-100278667D01*
X154354572Y-100249615D01*
X154329439Y-100207160D01*
X154296017Y-100148874D01*
X154288419Y-100135683D01*
X154210057Y-99999896D01*
X154030581Y-100304600D01*
X153934221Y-100307791D01*
X153889606Y-100308165D01*
X153856472Y-100306274D01*
X153839285Y-100302447D01*
X153837860Y-100300639D01*
X153576982Y-100300639D01*
X153538493Y-100303652D01*
X153467695Y-100306400D01*
X153382317Y-100308210D01*
X153142121Y-100312285D01*
X153142121Y-99514991D01*
X146449774Y-99514991D01*
X146449774Y-102325556D01*
X146565730Y-102325556D01*
X146565730Y-100691122D01*
X147077930Y-100680078D01*
X147139274Y-100582346D01*
X147229528Y-100451595D01*
X147334731Y-100321363D01*
X147449271Y-100197969D01*
X147567537Y-100087729D01*
X147609861Y-100052545D01*
X147691020Y-99991966D01*
X147785205Y-99929188D01*
X147884531Y-99869114D01*
X147981110Y-99816645D01*
X148020388Y-99797380D01*
X148186181Y-99727252D01*
X148354350Y-99672784D01*
X148529803Y-99632713D01*
X148717448Y-99605774D01*
X148790991Y-99598878D01*
X148839077Y-99597058D01*
X148902970Y-99597614D01*
X148976551Y-99600230D01*
X149053706Y-99604594D01*
X149128318Y-99610389D01*
X149194269Y-99617303D01*
X149221687Y-99621021D01*
X149427845Y-99662931D01*
X149627696Y-99725525D01*
X149819872Y-99807959D01*
X150003001Y-99909389D01*
X150175715Y-100028970D01*
X150336644Y-100165858D01*
X150484418Y-100319209D01*
X150609014Y-100476098D01*
X150642511Y-100523746D01*
X150674005Y-100570703D01*
X150699466Y-100610844D01*
X150712531Y-100633455D01*
X150740114Y-100685575D01*
X155604791Y-100688348D01*
X160469469Y-100691122D01*
X160472709Y-102275861D01*
X160473041Y-102462260D01*
X160473265Y-102643260D01*
X160473386Y-102817563D01*
X160473406Y-102983871D01*
X160473328Y-103140887D01*
X160473156Y-103287314D01*
X160472892Y-103421852D01*
X160472540Y-103543206D01*
X160472102Y-103650076D01*
X160471581Y-103741165D01*
X160470981Y-103815176D01*
X160470305Y-103870811D01*
X160469555Y-103906772D01*
X160468855Y-103920971D01*
X160461342Y-103961932D01*
X160446999Y-103992081D01*
X160420453Y-104022648D01*
X160419979Y-104023123D01*
X160378198Y-104064904D01*
X153523364Y-104064904D01*
X153055996Y-104064901D01*
X152610207Y-104064892D01*
X152185488Y-104064874D01*
X151781331Y-104064848D01*
X151397228Y-104064810D01*
X151032670Y-104064761D01*
X150687148Y-104064698D01*
X150360155Y-104064620D01*
X150051182Y-104064527D01*
X149759721Y-104064416D01*
X149485263Y-104064287D01*
X149227300Y-104064138D01*
X148985324Y-104063967D01*
X148758826Y-104063774D01*
X148547298Y-104063556D01*
X148350231Y-104063314D01*
X148167118Y-104063045D01*
X147997449Y-104062747D01*
X147840717Y-104062421D01*
X147696413Y-104062064D01*
X147564029Y-104061674D01*
X147443056Y-104061252D01*
X147332986Y-104060795D01*
X147233311Y-104060302D01*
X147143522Y-104059771D01*
X147063111Y-104059202D01*
X146991569Y-104058593D01*
X146928389Y-104057943D01*
X146873062Y-104057249D01*
X146825079Y-104056512D01*
X146783932Y-104055730D01*
X146749113Y-104054901D01*
X146720113Y-104054024D01*
X146696425Y-104053098D01*
X146677539Y-104052121D01*
X146662947Y-104051092D01*
X146652142Y-104050009D01*
X146644614Y-104048872D01*
X146639855Y-104047680D01*
X146637953Y-104046842D01*
X146610553Y-104024300D01*
X146586940Y-103995020D01*
X146586553Y-103994386D01*
X146583724Y-103989159D01*
X146581164Y-103982567D01*
X146578858Y-103973541D01*
X146576794Y-103961011D01*
X146574958Y-103943908D01*
X146573337Y-103921162D01*
X146571918Y-103891704D01*
X146570686Y-103854464D01*
X146569630Y-103808372D01*
X146568735Y-103752359D01*
X146567988Y-103685355D01*
X146567376Y-103606292D01*
X146566885Y-103514098D01*
X146566503Y-103407705D01*
X146566215Y-103286043D01*
X146566009Y-103148042D01*
X146565871Y-102992634D01*
X146565787Y-102818748D01*
X146565745Y-102625315D01*
X146565731Y-102411265D01*
X146565730Y-102325556D01*
X146449774Y-102325556D01*
X146449774Y-104186382D01*
X160585426Y-104186382D01*
X160585426Y-99205774D01*
X160585426Y-99205774D01*
G37*
X160585426Y-99205774D02*
X146449774Y-99205774D01*
X146449774Y-99514991D01*
X153142121Y-99514991D01*
X153371274Y-99515476D01*
X153462241Y-99516237D01*
X153533141Y-99518167D01*
X153585968Y-99521379D01*
X153622717Y-99525985D01*
X153642197Y-99530863D01*
X153711052Y-99564561D01*
X153761102Y-99609775D01*
X153792283Y-99666421D01*
X153804530Y-99734414D01*
X153804730Y-99745224D01*
X153801735Y-99786760D01*
X153794159Y-99825497D01*
X153789666Y-99838883D01*
X153770413Y-99870186D01*
X153741351Y-99902435D01*
X153710092Y-99927960D01*
X153691942Y-99937400D01*
X153689071Y-99947149D01*
X153704968Y-99967615D01*
X153712552Y-99975018D01*
X153745967Y-100020036D01*
X153764874Y-100074734D01*
X153768790Y-100132877D01*
X153757233Y-100188224D01*
X153732407Y-100231446D01*
X153712257Y-100253471D01*
X153691323Y-100270605D01*
X153666544Y-100283518D01*
X153634854Y-100292882D01*
X153593192Y-100299370D01*
X153576982Y-100300639D01*
X153837860Y-100300639D01*
X153843284Y-100288641D01*
X153858526Y-100260416D01*
X153882044Y-100218677D01*
X153912295Y-100166137D01*
X153947736Y-100105510D01*
X153975904Y-100057865D01*
X154113947Y-99825434D01*
X154113947Y-99514991D01*
X154301687Y-99514991D01*
X154301687Y-99780035D01*
X156421034Y-99780035D01*
X156428601Y-99738622D01*
X156452550Y-99661264D01*
X156493298Y-99598144D01*
X156550437Y-99549648D01*
X156623563Y-99516165D01*
X156675279Y-99503381D01*
X156732641Y-99498017D01*
X156798977Y-99499515D01*
X156864194Y-99507159D01*
X156918196Y-99520237D01*
X156919405Y-99520659D01*
X156921916Y-99521907D01*
X157106730Y-99521907D01*
X157116898Y-99518681D01*
X157143966Y-99516923D01*
X157182779Y-99516894D01*
X157197193Y-99517305D01*
X157287655Y-99520513D01*
X157343329Y-99692295D01*
X157486651Y-99689230D01*
X157629972Y-99686165D01*
X157685480Y-99514991D01*
X157777105Y-99514991D01*
X157818964Y-99515998D01*
X157850784Y-99518679D01*
X157867435Y-99522528D01*
X157868730Y-99524044D01*
X157865054Y-99535592D01*
X157854718Y-99565018D01*
X157838759Y-99609500D01*
X157818215Y-99666215D01*
X157794124Y-99732339D01*
X157767522Y-99805049D01*
X157739449Y-99881522D01*
X157710940Y-99958934D01*
X157683034Y-100034463D01*
X157656769Y-100105286D01*
X157633182Y-100168578D01*
X157613310Y-100221518D01*
X157598191Y-100261281D01*
X157590995Y-100279752D01*
X157584013Y-100294739D01*
X157574367Y-100303751D01*
X157556965Y-100308307D01*
X157526712Y-100309924D01*
X157489094Y-100310122D01*
X157399268Y-100310122D01*
X157252999Y-99919918D01*
X157220125Y-99832020D01*
X157189830Y-99750632D01*
X157162965Y-99678067D01*
X157140378Y-99616638D01*
X157122920Y-99568656D01*
X157111440Y-99536435D01*
X157106789Y-99522286D01*
X157106730Y-99521907D01*
X156921916Y-99521907D01*
X156988227Y-99554861D01*
X157039921Y-99602272D01*
X157073591Y-99661698D01*
X157088339Y-99731941D01*
X157088936Y-99746904D01*
X157080321Y-99816009D01*
X157052844Y-99874416D01*
X157007162Y-99920795D01*
X157000563Y-99925437D01*
X156972122Y-99940284D01*
X156927616Y-99958297D01*
X156872448Y-99977457D01*
X156813779Y-99995250D01*
X156759109Y-100011522D01*
X156711000Y-100027452D01*
X156674092Y-100041391D01*
X156653023Y-100051688D01*
X156651187Y-100053102D01*
X156634914Y-100081133D01*
X156634163Y-100115525D01*
X156648607Y-100147249D01*
X156654822Y-100153958D01*
X156689809Y-100174450D01*
X156732632Y-100182179D01*
X156778176Y-100178591D01*
X156821323Y-100165132D01*
X156856959Y-100143250D01*
X156879967Y-100114390D01*
X156885860Y-100088636D01*
X156887857Y-100077925D01*
X156896797Y-100071504D01*
X156917103Y-100068298D01*
X156953200Y-100067233D01*
X156974208Y-100067165D01*
X157062556Y-100067165D01*
X157062452Y-100103056D01*
X157052586Y-100151982D01*
X157026002Y-100202219D01*
X156986820Y-100247758D01*
X156939447Y-100282436D01*
X156906148Y-100298859D01*
X156874515Y-100309247D01*
X156836914Y-100315347D01*
X156785710Y-100318910D01*
X156778913Y-100319222D01*
X156700287Y-100318873D01*
X156636760Y-100309099D01*
X156582876Y-100288563D01*
X156538803Y-100260297D01*
X156495727Y-100214566D01*
X156467698Y-100157677D01*
X156455899Y-100095206D01*
X156461514Y-100032732D01*
X156480326Y-99984730D01*
X156512866Y-99943431D01*
X156561189Y-99908223D01*
X156627379Y-99877900D01*
X156709165Y-99852399D01*
X156781560Y-99832026D01*
X156834986Y-99813830D01*
X156872286Y-99796535D01*
X156896307Y-99778865D01*
X156908082Y-99763219D01*
X156917179Y-99728301D01*
X156907808Y-99697279D01*
X156883440Y-99671507D01*
X156847546Y-99652338D01*
X156803599Y-99641125D01*
X156755069Y-99639222D01*
X156705429Y-99647981D01*
X156661164Y-99666967D01*
X156626939Y-99699495D01*
X156610114Y-99733622D01*
X156593889Y-99780035D01*
X156421034Y-99780035D01*
X154301687Y-99780035D01*
X154301687Y-99826128D01*
X154445248Y-100065364D01*
X154588810Y-100304600D01*
X154492377Y-100307828D01*
X154456577Y-100309384D01*
X154429745Y-100309674D01*
X154409004Y-100306269D01*
X154391479Y-100296742D01*
X154374294Y-100278667D01*
X154354572Y-100249615D01*
X154329439Y-100207160D01*
X154296017Y-100148874D01*
X154288419Y-100135683D01*
X154210057Y-99999896D01*
X154030581Y-100304600D01*
X153934221Y-100307791D01*
X153889606Y-100308165D01*
X153856472Y-100306274D01*
X153839285Y-100302447D01*
X153837860Y-100300639D01*
X153576982Y-100300639D01*
X153538493Y-100303652D01*
X153467695Y-100306400D01*
X153382317Y-100308210D01*
X153142121Y-100312285D01*
X153142121Y-99514991D01*
X146449774Y-99514991D01*
X146449774Y-102325556D01*
X146565730Y-102325556D01*
X146565730Y-100691122D01*
X147077930Y-100680078D01*
X147139274Y-100582346D01*
X147229528Y-100451595D01*
X147334731Y-100321363D01*
X147449271Y-100197969D01*
X147567537Y-100087729D01*
X147609861Y-100052545D01*
X147691020Y-99991966D01*
X147785205Y-99929188D01*
X147884531Y-99869114D01*
X147981110Y-99816645D01*
X148020388Y-99797380D01*
X148186181Y-99727252D01*
X148354350Y-99672784D01*
X148529803Y-99632713D01*
X148717448Y-99605774D01*
X148790991Y-99598878D01*
X148839077Y-99597058D01*
X148902970Y-99597614D01*
X148976551Y-99600230D01*
X149053706Y-99604594D01*
X149128318Y-99610389D01*
X149194269Y-99617303D01*
X149221687Y-99621021D01*
X149427845Y-99662931D01*
X149627696Y-99725525D01*
X149819872Y-99807959D01*
X150003001Y-99909389D01*
X150175715Y-100028970D01*
X150336644Y-100165858D01*
X150484418Y-100319209D01*
X150609014Y-100476098D01*
X150642511Y-100523746D01*
X150674005Y-100570703D01*
X150699466Y-100610844D01*
X150712531Y-100633455D01*
X150740114Y-100685575D01*
X155604791Y-100688348D01*
X160469469Y-100691122D01*
X160472709Y-102275861D01*
X160473041Y-102462260D01*
X160473265Y-102643260D01*
X160473386Y-102817563D01*
X160473406Y-102983871D01*
X160473328Y-103140887D01*
X160473156Y-103287314D01*
X160472892Y-103421852D01*
X160472540Y-103543206D01*
X160472102Y-103650076D01*
X160471581Y-103741165D01*
X160470981Y-103815176D01*
X160470305Y-103870811D01*
X160469555Y-103906772D01*
X160468855Y-103920971D01*
X160461342Y-103961932D01*
X160446999Y-103992081D01*
X160420453Y-104022648D01*
X160419979Y-104023123D01*
X160378198Y-104064904D01*
X153523364Y-104064904D01*
X153055996Y-104064901D01*
X152610207Y-104064892D01*
X152185488Y-104064874D01*
X151781331Y-104064848D01*
X151397228Y-104064810D01*
X151032670Y-104064761D01*
X150687148Y-104064698D01*
X150360155Y-104064620D01*
X150051182Y-104064527D01*
X149759721Y-104064416D01*
X149485263Y-104064287D01*
X149227300Y-104064138D01*
X148985324Y-104063967D01*
X148758826Y-104063774D01*
X148547298Y-104063556D01*
X148350231Y-104063314D01*
X148167118Y-104063045D01*
X147997449Y-104062747D01*
X147840717Y-104062421D01*
X147696413Y-104062064D01*
X147564029Y-104061674D01*
X147443056Y-104061252D01*
X147332986Y-104060795D01*
X147233311Y-104060302D01*
X147143522Y-104059771D01*
X147063111Y-104059202D01*
X146991569Y-104058593D01*
X146928389Y-104057943D01*
X146873062Y-104057249D01*
X146825079Y-104056512D01*
X146783932Y-104055730D01*
X146749113Y-104054901D01*
X146720113Y-104054024D01*
X146696425Y-104053098D01*
X146677539Y-104052121D01*
X146662947Y-104051092D01*
X146652142Y-104050009D01*
X146644614Y-104048872D01*
X146639855Y-104047680D01*
X146637953Y-104046842D01*
X146610553Y-104024300D01*
X146586940Y-103995020D01*
X146586553Y-103994386D01*
X146583724Y-103989159D01*
X146581164Y-103982567D01*
X146578858Y-103973541D01*
X146576794Y-103961011D01*
X146574958Y-103943908D01*
X146573337Y-103921162D01*
X146571918Y-103891704D01*
X146570686Y-103854464D01*
X146569630Y-103808372D01*
X146568735Y-103752359D01*
X146567988Y-103685355D01*
X146567376Y-103606292D01*
X146566885Y-103514098D01*
X146566503Y-103407705D01*
X146566215Y-103286043D01*
X146566009Y-103148042D01*
X146565871Y-102992634D01*
X146565787Y-102818748D01*
X146565745Y-102625315D01*
X146565731Y-102411265D01*
X146565730Y-102325556D01*
X146449774Y-102325556D01*
X146449774Y-104186382D01*
X160585426Y-104186382D01*
X160585426Y-99205774D01*
G36*
X153445950Y-99865630D02*
X153511724Y-99860705D01*
X153558797Y-99852711D01*
X153590501Y-99840146D01*
X153610165Y-99821509D01*
X153621121Y-99795298D01*
X153623212Y-99785713D01*
X153627324Y-99740572D01*
X153619144Y-99706800D01*
X153596755Y-99683059D01*
X153558236Y-99668010D01*
X153501671Y-99660316D01*
X153440844Y-99658556D01*
X153329860Y-99658556D01*
X153329860Y-99871554D01*
X153445950Y-99865630D01*
X153445950Y-99865630D01*
G37*
X153445950Y-99865630D02*
X153511724Y-99860705D01*
X153558797Y-99852711D01*
X153590501Y-99840146D01*
X153610165Y-99821509D01*
X153621121Y-99795298D01*
X153623212Y-99785713D01*
X153627324Y-99740572D01*
X153619144Y-99706800D01*
X153596755Y-99683059D01*
X153558236Y-99668010D01*
X153501671Y-99660316D01*
X153440844Y-99658556D01*
X153329860Y-99658556D01*
X153329860Y-99871554D01*
X153445950Y-99865630D01*
G36*
X153485838Y-100163733D02*
X153535978Y-100154411D01*
X153569305Y-100137317D01*
X153588140Y-100111176D01*
X153594809Y-100074712D01*
X153594904Y-100068693D01*
X153585208Y-100033600D01*
X153565806Y-100012749D01*
X153548428Y-100001621D01*
X153527130Y-99994738D01*
X153496418Y-99991153D01*
X153450798Y-99989916D01*
X153433284Y-99989861D01*
X153329860Y-99989861D01*
X153329860Y-100166556D01*
X153416560Y-100166556D01*
X153485838Y-100163733D01*
X153485838Y-100163733D01*
G37*
X153485838Y-100163733D02*
X153535978Y-100154411D01*
X153569305Y-100137317D01*
X153588140Y-100111176D01*
X153594809Y-100074712D01*
X153594904Y-100068693D01*
X153585208Y-100033600D01*
X153565806Y-100012749D01*
X153548428Y-100001621D01*
X153527130Y-99994738D01*
X153496418Y-99991153D01*
X153450798Y-99989916D01*
X153433284Y-99989861D01*
X153329860Y-99989861D01*
X153329860Y-100166556D01*
X153416560Y-100166556D01*
X153485838Y-100163733D01*
G36*
X157534468Y-99964237D02*
X157552141Y-99913861D01*
X157566793Y-99871654D01*
X157577045Y-99841627D01*
X157581513Y-99827792D01*
X157581600Y-99827356D01*
X157571396Y-99825942D01*
X157544146Y-99824857D01*
X157504888Y-99824268D01*
X157486548Y-99824209D01*
X157438444Y-99825055D01*
X157409571Y-99827881D01*
X157397126Y-99833117D01*
X157396519Y-99838013D01*
X157401978Y-99853439D01*
X157413056Y-99885029D01*
X157428109Y-99928088D01*
X157444439Y-99974894D01*
X157487337Y-100097971D01*
X157534468Y-99964237D01*
X157534468Y-99964237D01*
G37*
X157534468Y-99964237D02*
X157552141Y-99913861D01*
X157566793Y-99871654D01*
X157577045Y-99841627D01*
X157581513Y-99827792D01*
X157581600Y-99827356D01*
X157571396Y-99825942D01*
X157544146Y-99824857D01*
X157504888Y-99824268D01*
X157486548Y-99824209D01*
X157438444Y-99825055D01*
X157409571Y-99827881D01*
X157397126Y-99833117D01*
X157396519Y-99838013D01*
X157401978Y-99853439D01*
X157413056Y-99885029D01*
X157428109Y-99928088D01*
X157444439Y-99974894D01*
X157487337Y-100097971D01*
X157534468Y-99964237D01*
G36*
X148993860Y-103705420D02*
X149062747Y-103704762D01*
X149117663Y-103703228D01*
X149162669Y-103700548D01*
X149201820Y-103696456D01*
X149239175Y-103690683D01*
X149278791Y-103682961D01*
X149292909Y-103679970D01*
X149489271Y-103627299D01*
X149673912Y-103555968D01*
X149847326Y-103465695D01*
X150010006Y-103356198D01*
X150162446Y-103227195D01*
X150263471Y-103124976D01*
X150392709Y-102969261D01*
X150501762Y-102804587D01*
X150590616Y-102630994D01*
X150659256Y-102448525D01*
X150707667Y-102257220D01*
X150735835Y-102057121D01*
X150743744Y-101848268D01*
X150742184Y-101784426D01*
X150724371Y-101577921D01*
X150687084Y-101381812D01*
X150630235Y-101195916D01*
X150553740Y-101020051D01*
X150457513Y-100854034D01*
X150341466Y-100697681D01*
X150205514Y-100550811D01*
X150127751Y-100478851D01*
X149966471Y-100351080D01*
X149796348Y-100243448D01*
X149618114Y-100156192D01*
X149432503Y-100089547D01*
X149240249Y-100043751D01*
X149042086Y-100019040D01*
X148838746Y-100015651D01*
X148716464Y-100023765D01*
X148525246Y-100053205D01*
X148339819Y-100103810D01*
X148160894Y-100175253D01*
X147989179Y-100267206D01*
X147825385Y-100379341D01*
X147677626Y-100504388D01*
X147531274Y-100654411D01*
X147405280Y-100812767D01*
X147299343Y-100979974D01*
X147213165Y-101156552D01*
X147146444Y-101343018D01*
X147110082Y-101484620D01*
X147101889Y-101525041D01*
X147095713Y-101563501D01*
X147091272Y-101604153D01*
X147088285Y-101651153D01*
X147086469Y-101708654D01*
X147085542Y-101780813D01*
X147085255Y-101850687D01*
X147085344Y-101865109D01*
X147399513Y-101865109D01*
X147409823Y-101681459D01*
X147440783Y-101505589D01*
X147492432Y-101337399D01*
X147564810Y-101176787D01*
X147657960Y-101023655D01*
X147771920Y-100877900D01*
X147818623Y-100826607D01*
X147954922Y-100697369D01*
X148100717Y-100587348D01*
X148255113Y-100497016D01*
X148417217Y-100426848D01*
X148586135Y-100377317D01*
X148708165Y-100355150D01*
X148765880Y-100350019D01*
X148838636Y-100347696D01*
X148920168Y-100347985D01*
X149004214Y-100350692D01*
X149084509Y-100355621D01*
X149154792Y-100362580D01*
X149205121Y-100370585D01*
X149373033Y-100416372D01*
X149535633Y-100481801D01*
X149690693Y-100565197D01*
X149835989Y-100664882D01*
X149969294Y-100779178D01*
X150088383Y-100906409D01*
X150191029Y-101044897D01*
X150262013Y-101166934D01*
X150315564Y-101280151D01*
X150356514Y-101388555D01*
X150386078Y-101497493D01*
X150405470Y-101612309D01*
X150415905Y-101738349D01*
X150418635Y-101856209D01*
X150417493Y-101960625D01*
X150413037Y-102049173D01*
X150404436Y-102127931D01*
X150390864Y-102202977D01*
X150371491Y-102280389D01*
X150351843Y-102346252D01*
X150292140Y-102500769D01*
X150212603Y-102650082D01*
X150115305Y-102791790D01*
X150002319Y-102923494D01*
X149875720Y-103042795D01*
X149737580Y-103147292D01*
X149589973Y-103234586D01*
X149579707Y-103239806D01*
X149494303Y-103277858D01*
X149395624Y-103313734D01*
X149292468Y-103344501D01*
X149203346Y-103365341D01*
X149135226Y-103375312D01*
X149052351Y-103381950D01*
X148960766Y-103385262D01*
X148866518Y-103385255D01*
X148775654Y-103381934D01*
X148694219Y-103375305D01*
X148628260Y-103365375D01*
X148625339Y-103364762D01*
X148457125Y-103320853D01*
X148304250Y-103263499D01*
X148163296Y-103190924D01*
X148030850Y-103101350D01*
X147903495Y-102993002D01*
X147894789Y-102984770D01*
X147761645Y-102844491D01*
X147649328Y-102696869D01*
X147557823Y-102541868D01*
X147487114Y-102379452D01*
X147437185Y-102209587D01*
X147408020Y-102032237D01*
X147399513Y-101865109D01*
X147085344Y-101865109D01*
X147085942Y-101961134D01*
X147088902Y-102054400D01*
X147094798Y-102135331D01*
X147104291Y-102208773D01*
X147118043Y-102279573D01*
X147136718Y-102352577D01*
X147160977Y-102432632D01*
X147167550Y-102452964D01*
X147236017Y-102628859D01*
X147323470Y-102797480D01*
X147428156Y-102957040D01*
X147548322Y-103105751D01*
X147682217Y-103241826D01*
X147828088Y-103363478D01*
X147984183Y-103468917D01*
X148148749Y-103556358D01*
X148313371Y-103621807D01*
X148392915Y-103647248D01*
X148463962Y-103667066D01*
X148531263Y-103681932D01*
X148599566Y-103692513D01*
X148673621Y-103699481D01*
X148758175Y-103703503D01*
X148857979Y-103705250D01*
X148906947Y-103705469D01*
X148993860Y-103705420D01*
X148993860Y-103705420D01*
G37*
X148993860Y-103705420D02*
X149062747Y-103704762D01*
X149117663Y-103703228D01*
X149162669Y-103700548D01*
X149201820Y-103696456D01*
X149239175Y-103690683D01*
X149278791Y-103682961D01*
X149292909Y-103679970D01*
X149489271Y-103627299D01*
X149673912Y-103555968D01*
X149847326Y-103465695D01*
X150010006Y-103356198D01*
X150162446Y-103227195D01*
X150263471Y-103124976D01*
X150392709Y-102969261D01*
X150501762Y-102804587D01*
X150590616Y-102630994D01*
X150659256Y-102448525D01*
X150707667Y-102257220D01*
X150735835Y-102057121D01*
X150743744Y-101848268D01*
X150742184Y-101784426D01*
X150724371Y-101577921D01*
X150687084Y-101381812D01*
X150630235Y-101195916D01*
X150553740Y-101020051D01*
X150457513Y-100854034D01*
X150341466Y-100697681D01*
X150205514Y-100550811D01*
X150127751Y-100478851D01*
X149966471Y-100351080D01*
X149796348Y-100243448D01*
X149618114Y-100156192D01*
X149432503Y-100089547D01*
X149240249Y-100043751D01*
X149042086Y-100019040D01*
X148838746Y-100015651D01*
X148716464Y-100023765D01*
X148525246Y-100053205D01*
X148339819Y-100103810D01*
X148160894Y-100175253D01*
X147989179Y-100267206D01*
X147825385Y-100379341D01*
X147677626Y-100504388D01*
X147531274Y-100654411D01*
X147405280Y-100812767D01*
X147299343Y-100979974D01*
X147213165Y-101156552D01*
X147146444Y-101343018D01*
X147110082Y-101484620D01*
X147101889Y-101525041D01*
X147095713Y-101563501D01*
X147091272Y-101604153D01*
X147088285Y-101651153D01*
X147086469Y-101708654D01*
X147085542Y-101780813D01*
X147085255Y-101850687D01*
X147085344Y-101865109D01*
X147399513Y-101865109D01*
X147409823Y-101681459D01*
X147440783Y-101505589D01*
X147492432Y-101337399D01*
X147564810Y-101176787D01*
X147657960Y-101023655D01*
X147771920Y-100877900D01*
X147818623Y-100826607D01*
X147954922Y-100697369D01*
X148100717Y-100587348D01*
X148255113Y-100497016D01*
X148417217Y-100426848D01*
X148586135Y-100377317D01*
X148708165Y-100355150D01*
X148765880Y-100350019D01*
X148838636Y-100347696D01*
X148920168Y-100347985D01*
X149004214Y-100350692D01*
X149084509Y-100355621D01*
X149154792Y-100362580D01*
X149205121Y-100370585D01*
X149373033Y-100416372D01*
X149535633Y-100481801D01*
X149690693Y-100565197D01*
X149835989Y-100664882D01*
X149969294Y-100779178D01*
X150088383Y-100906409D01*
X150191029Y-101044897D01*
X150262013Y-101166934D01*
X150315564Y-101280151D01*
X150356514Y-101388555D01*
X150386078Y-101497493D01*
X150405470Y-101612309D01*
X150415905Y-101738349D01*
X150418635Y-101856209D01*
X150417493Y-101960625D01*
X150413037Y-102049173D01*
X150404436Y-102127931D01*
X150390864Y-102202977D01*
X150371491Y-102280389D01*
X150351843Y-102346252D01*
X150292140Y-102500769D01*
X150212603Y-102650082D01*
X150115305Y-102791790D01*
X150002319Y-102923494D01*
X149875720Y-103042795D01*
X149737580Y-103147292D01*
X149589973Y-103234586D01*
X149579707Y-103239806D01*
X149494303Y-103277858D01*
X149395624Y-103313734D01*
X149292468Y-103344501D01*
X149203346Y-103365341D01*
X149135226Y-103375312D01*
X149052351Y-103381950D01*
X148960766Y-103385262D01*
X148866518Y-103385255D01*
X148775654Y-103381934D01*
X148694219Y-103375305D01*
X148628260Y-103365375D01*
X148625339Y-103364762D01*
X148457125Y-103320853D01*
X148304250Y-103263499D01*
X148163296Y-103190924D01*
X148030850Y-103101350D01*
X147903495Y-102993002D01*
X147894789Y-102984770D01*
X147761645Y-102844491D01*
X147649328Y-102696869D01*
X147557823Y-102541868D01*
X147487114Y-102379452D01*
X147437185Y-102209587D01*
X147408020Y-102032237D01*
X147399513Y-101865109D01*
X147085344Y-101865109D01*
X147085942Y-101961134D01*
X147088902Y-102054400D01*
X147094798Y-102135331D01*
X147104291Y-102208773D01*
X147118043Y-102279573D01*
X147136718Y-102352577D01*
X147160977Y-102432632D01*
X147167550Y-102452964D01*
X147236017Y-102628859D01*
X147323470Y-102797480D01*
X147428156Y-102957040D01*
X147548322Y-103105751D01*
X147682217Y-103241826D01*
X147828088Y-103363478D01*
X147984183Y-103468917D01*
X148148749Y-103556358D01*
X148313371Y-103621807D01*
X148392915Y-103647248D01*
X148463962Y-103667066D01*
X148531263Y-103681932D01*
X148599566Y-103692513D01*
X148673621Y-103699481D01*
X148758175Y-103703503D01*
X148857979Y-103705250D01*
X148906947Y-103705469D01*
X148993860Y-103705420D01*
G36*
X154143115Y-103759988D02*
X154300441Y-103728171D01*
X154447195Y-103678444D01*
X154585718Y-103609836D01*
X154718352Y-103521381D01*
X154845851Y-103413592D01*
X154964367Y-103288202D01*
X155064150Y-103151472D01*
X155144835Y-103004329D01*
X155206058Y-102847698D01*
X155247454Y-102682506D01*
X155268659Y-102509678D01*
X155269677Y-102337376D01*
X155253484Y-102168603D01*
X155221452Y-102013770D01*
X155172484Y-101870371D01*
X155105483Y-101735901D01*
X155019351Y-101607851D01*
X154912992Y-101483715D01*
X154882172Y-101452054D01*
X154787490Y-101362732D01*
X154696175Y-101289092D01*
X154602342Y-101226760D01*
X154513218Y-101177892D01*
X154372785Y-101118613D01*
X154221014Y-101075453D01*
X154062344Y-101049074D01*
X153901212Y-101040137D01*
X153742057Y-101049305D01*
X153694295Y-101055851D01*
X153535582Y-101091744D01*
X153381762Y-101148194D01*
X153234746Y-101223869D01*
X153096447Y-101317441D01*
X152968776Y-101427582D01*
X152853646Y-101552960D01*
X152752969Y-101692247D01*
X152733332Y-101723987D01*
X152660554Y-101866037D01*
X152606072Y-102017818D01*
X152570010Y-102176505D01*
X152552495Y-102339270D01*
X152552982Y-102408382D01*
X152794677Y-102408382D01*
X152795302Y-102335500D01*
X152797422Y-102278752D01*
X152801602Y-102232204D01*
X152808407Y-102189925D01*
X152818405Y-102145979D01*
X152820488Y-102137817D01*
X152869516Y-101991091D01*
X152937544Y-101853705D01*
X153022902Y-101727222D01*
X153123917Y-101613202D01*
X153238920Y-101513205D01*
X153366240Y-101428793D01*
X153504205Y-101361526D01*
X153651145Y-101312964D01*
X153720072Y-101297568D01*
X153786158Y-101289243D01*
X153866424Y-101285678D01*
X153953620Y-101286623D01*
X154040492Y-101291829D01*
X154119787Y-101301048D01*
X154182146Y-101313465D01*
X154332234Y-101363789D01*
X154471220Y-101432858D01*
X154600455Y-101521431D01*
X154686335Y-101595908D01*
X154795138Y-101713115D01*
X154884544Y-101839819D01*
X154954013Y-101975143D01*
X154999351Y-102104687D01*
X155008122Y-102138772D01*
X155014547Y-102171415D01*
X155018979Y-102206973D01*
X155021768Y-102249801D01*
X155023267Y-102304254D01*
X155023826Y-102374689D01*
X155023866Y-102408382D01*
X155022868Y-102505050D01*
X155019190Y-102584698D01*
X155011804Y-102652332D01*
X154999681Y-102712956D01*
X154981794Y-102771575D01*
X154957116Y-102833196D01*
X154924618Y-102902823D01*
X154920682Y-102910861D01*
X154842167Y-103046112D01*
X154746759Y-103168127D01*
X154636178Y-103275560D01*
X154512146Y-103367063D01*
X154376384Y-103441289D01*
X154230613Y-103496889D01*
X154142584Y-103519979D01*
X154079083Y-103529822D01*
X154000862Y-103535654D01*
X153914918Y-103537492D01*
X153828246Y-103535360D01*
X153747843Y-103529275D01*
X153680704Y-103519259D01*
X153677730Y-103518636D01*
X153532582Y-103476592D01*
X153395136Y-103414648D01*
X153267086Y-103334160D01*
X153150124Y-103236480D01*
X153045945Y-103122964D01*
X152956240Y-102994967D01*
X152904113Y-102899817D01*
X152863042Y-102810118D01*
X152833085Y-102728506D01*
X152812782Y-102648424D01*
X152800672Y-102563312D01*
X152795296Y-102466612D01*
X152794677Y-102408382D01*
X152552982Y-102408382D01*
X152553653Y-102503290D01*
X152573607Y-102665737D01*
X152612484Y-102823787D01*
X152670410Y-102974613D01*
X152677187Y-102989048D01*
X152736125Y-103101470D01*
X152800799Y-103201678D01*
X152876231Y-103296724D01*
X152959904Y-103386129D01*
X153087145Y-103500976D01*
X153219915Y-103595128D01*
X153359519Y-103669085D01*
X153507261Y-103723347D01*
X153664446Y-103758415D01*
X153832379Y-103774790D01*
X153972875Y-103774863D01*
X154143115Y-103759988D01*
X154143115Y-103759988D01*
G37*
X154143115Y-103759988D02*
X154300441Y-103728171D01*
X154447195Y-103678444D01*
X154585718Y-103609836D01*
X154718352Y-103521381D01*
X154845851Y-103413592D01*
X154964367Y-103288202D01*
X155064150Y-103151472D01*
X155144835Y-103004329D01*
X155206058Y-102847698D01*
X155247454Y-102682506D01*
X155268659Y-102509678D01*
X155269677Y-102337376D01*
X155253484Y-102168603D01*
X155221452Y-102013770D01*
X155172484Y-101870371D01*
X155105483Y-101735901D01*
X155019351Y-101607851D01*
X154912992Y-101483715D01*
X154882172Y-101452054D01*
X154787490Y-101362732D01*
X154696175Y-101289092D01*
X154602342Y-101226760D01*
X154513218Y-101177892D01*
X154372785Y-101118613D01*
X154221014Y-101075453D01*
X154062344Y-101049074D01*
X153901212Y-101040137D01*
X153742057Y-101049305D01*
X153694295Y-101055851D01*
X153535582Y-101091744D01*
X153381762Y-101148194D01*
X153234746Y-101223869D01*
X153096447Y-101317441D01*
X152968776Y-101427582D01*
X152853646Y-101552960D01*
X152752969Y-101692247D01*
X152733332Y-101723987D01*
X152660554Y-101866037D01*
X152606072Y-102017818D01*
X152570010Y-102176505D01*
X152552495Y-102339270D01*
X152552982Y-102408382D01*
X152794677Y-102408382D01*
X152795302Y-102335500D01*
X152797422Y-102278752D01*
X152801602Y-102232204D01*
X152808407Y-102189925D01*
X152818405Y-102145979D01*
X152820488Y-102137817D01*
X152869516Y-101991091D01*
X152937544Y-101853705D01*
X153022902Y-101727222D01*
X153123917Y-101613202D01*
X153238920Y-101513205D01*
X153366240Y-101428793D01*
X153504205Y-101361526D01*
X153651145Y-101312964D01*
X153720072Y-101297568D01*
X153786158Y-101289243D01*
X153866424Y-101285678D01*
X153953620Y-101286623D01*
X154040492Y-101291829D01*
X154119787Y-101301048D01*
X154182146Y-101313465D01*
X154332234Y-101363789D01*
X154471220Y-101432858D01*
X154600455Y-101521431D01*
X154686335Y-101595908D01*
X154795138Y-101713115D01*
X154884544Y-101839819D01*
X154954013Y-101975143D01*
X154999351Y-102104687D01*
X155008122Y-102138772D01*
X155014547Y-102171415D01*
X155018979Y-102206973D01*
X155021768Y-102249801D01*
X155023267Y-102304254D01*
X155023826Y-102374689D01*
X155023866Y-102408382D01*
X155022868Y-102505050D01*
X155019190Y-102584698D01*
X155011804Y-102652332D01*
X154999681Y-102712956D01*
X154981794Y-102771575D01*
X154957116Y-102833196D01*
X154924618Y-102902823D01*
X154920682Y-102910861D01*
X154842167Y-103046112D01*
X154746759Y-103168127D01*
X154636178Y-103275560D01*
X154512146Y-103367063D01*
X154376384Y-103441289D01*
X154230613Y-103496889D01*
X154142584Y-103519979D01*
X154079083Y-103529822D01*
X154000862Y-103535654D01*
X153914918Y-103537492D01*
X153828246Y-103535360D01*
X153747843Y-103529275D01*
X153680704Y-103519259D01*
X153677730Y-103518636D01*
X153532582Y-103476592D01*
X153395136Y-103414648D01*
X153267086Y-103334160D01*
X153150124Y-103236480D01*
X153045945Y-103122964D01*
X152956240Y-102994967D01*
X152904113Y-102899817D01*
X152863042Y-102810118D01*
X152833085Y-102728506D01*
X152812782Y-102648424D01*
X152800672Y-102563312D01*
X152795296Y-102466612D01*
X152794677Y-102408382D01*
X152552982Y-102408382D01*
X152553653Y-102503290D01*
X152573607Y-102665737D01*
X152612484Y-102823787D01*
X152670410Y-102974613D01*
X152677187Y-102989048D01*
X152736125Y-103101470D01*
X152800799Y-103201678D01*
X152876231Y-103296724D01*
X152959904Y-103386129D01*
X153087145Y-103500976D01*
X153219915Y-103595128D01*
X153359519Y-103669085D01*
X153507261Y-103723347D01*
X153664446Y-103758415D01*
X153832379Y-103774790D01*
X153972875Y-103774863D01*
X154143115Y-103759988D01*
G36*
X157400497Y-103771301D02*
X157554058Y-103749703D01*
X157700215Y-103712250D01*
X157703078Y-103711324D01*
X157848467Y-103652790D01*
X157987684Y-103574564D01*
X158118408Y-103478702D01*
X158238318Y-103367260D01*
X158345094Y-103242295D01*
X158436414Y-103105863D01*
X158481871Y-103021296D01*
X158545674Y-102867645D01*
X158589975Y-102708239D01*
X158615054Y-102545323D01*
X158621191Y-102381139D01*
X158608665Y-102217932D01*
X158577754Y-102057947D01*
X158528739Y-101903427D01*
X158461899Y-101756616D01*
X158377513Y-101619759D01*
X158294407Y-101515401D01*
X158165899Y-101386764D01*
X158027541Y-101277888D01*
X157879249Y-101188723D01*
X157720939Y-101119220D01*
X157552528Y-101069328D01*
X157535632Y-101065526D01*
X157474019Y-101055571D01*
X157397095Y-101048464D01*
X157311471Y-101044342D01*
X157223757Y-101043345D01*
X157140562Y-101045611D01*
X157068498Y-101051279D01*
X157040469Y-101055139D01*
X156877582Y-101092182D01*
X156724074Y-101148468D01*
X156578887Y-101224553D01*
X156440962Y-101320994D01*
X156309240Y-101438349D01*
X156305683Y-101441890D01*
X156193123Y-101565040D01*
X156100882Y-101690515D01*
X156027210Y-101821567D01*
X155970359Y-101961449D01*
X155928579Y-102113414D01*
X155918827Y-102161296D01*
X155908787Y-102234191D01*
X155902636Y-102321344D01*
X155900456Y-102415252D01*
X155900608Y-102422843D01*
X156139776Y-102422843D01*
X156141392Y-102328468D01*
X156148134Y-102240176D01*
X156160000Y-102164454D01*
X156165759Y-102140665D01*
X156208524Y-102008872D01*
X156261677Y-101891979D01*
X156328427Y-101784414D01*
X156411984Y-101680608D01*
X156460687Y-101628763D01*
X156581828Y-101518960D01*
X156709428Y-101430149D01*
X156844055Y-101362033D01*
X156986278Y-101314317D01*
X157112252Y-101289754D01*
X157168858Y-101285088D01*
X157238928Y-101283737D01*
X157314120Y-101285492D01*
X157386095Y-101290147D01*
X157446511Y-101297495D01*
X157450392Y-101298157D01*
X157599854Y-101334639D01*
X157739712Y-101390313D01*
X157871020Y-101465757D01*
X157994829Y-101561549D01*
X158080285Y-101643826D01*
X158138543Y-101707337D01*
X158184326Y-101764085D01*
X158222493Y-101820994D01*
X158257904Y-101884988D01*
X158277686Y-101925126D01*
X158327250Y-102052415D01*
X158360746Y-102190942D01*
X158377813Y-102336419D01*
X158378090Y-102484558D01*
X158361217Y-102631069D01*
X158343821Y-102712078D01*
X158298543Y-102846819D01*
X158233711Y-102975734D01*
X158151560Y-103096605D01*
X158054325Y-103207209D01*
X157944244Y-103305328D01*
X157823551Y-103388740D01*
X157694482Y-103455226D01*
X157559274Y-103502565D01*
X157543724Y-103506608D01*
X157408771Y-103531050D01*
X157266499Y-103539741D01*
X157123918Y-103532748D01*
X156988039Y-103510140D01*
X156951596Y-103500869D01*
X156818442Y-103452944D01*
X156691225Y-103385457D01*
X156572033Y-103300594D01*
X156462950Y-103200539D01*
X156366066Y-103087480D01*
X156283465Y-102963603D01*
X156217236Y-102831092D01*
X156169465Y-102692135D01*
X156165688Y-102677589D01*
X156151923Y-102603890D01*
X156143286Y-102516812D01*
X156139776Y-102422843D01*
X155900608Y-102422843D01*
X155902330Y-102508418D01*
X155908342Y-102593339D01*
X155913589Y-102634774D01*
X155942529Y-102766869D01*
X155988112Y-102902869D01*
X156047560Y-103036159D01*
X156118096Y-103160125D01*
X156159548Y-103220495D01*
X156240623Y-103318930D01*
X156336033Y-103415266D01*
X156440415Y-103504924D01*
X156548402Y-103583322D01*
X156654629Y-103645880D01*
X156662373Y-103649804D01*
X156792636Y-103703910D01*
X156935601Y-103743350D01*
X157087247Y-103767887D01*
X157243553Y-103777284D01*
X157400497Y-103771301D01*
X157400497Y-103771301D01*
G37*
X157400497Y-103771301D02*
X157554058Y-103749703D01*
X157700215Y-103712250D01*
X157703078Y-103711324D01*
X157848467Y-103652790D01*
X157987684Y-103574564D01*
X158118408Y-103478702D01*
X158238318Y-103367260D01*
X158345094Y-103242295D01*
X158436414Y-103105863D01*
X158481871Y-103021296D01*
X158545674Y-102867645D01*
X158589975Y-102708239D01*
X158615054Y-102545323D01*
X158621191Y-102381139D01*
X158608665Y-102217932D01*
X158577754Y-102057947D01*
X158528739Y-101903427D01*
X158461899Y-101756616D01*
X158377513Y-101619759D01*
X158294407Y-101515401D01*
X158165899Y-101386764D01*
X158027541Y-101277888D01*
X157879249Y-101188723D01*
X157720939Y-101119220D01*
X157552528Y-101069328D01*
X157535632Y-101065526D01*
X157474019Y-101055571D01*
X157397095Y-101048464D01*
X157311471Y-101044342D01*
X157223757Y-101043345D01*
X157140562Y-101045611D01*
X157068498Y-101051279D01*
X157040469Y-101055139D01*
X156877582Y-101092182D01*
X156724074Y-101148468D01*
X156578887Y-101224553D01*
X156440962Y-101320994D01*
X156309240Y-101438349D01*
X156305683Y-101441890D01*
X156193123Y-101565040D01*
X156100882Y-101690515D01*
X156027210Y-101821567D01*
X155970359Y-101961449D01*
X155928579Y-102113414D01*
X155918827Y-102161296D01*
X155908787Y-102234191D01*
X155902636Y-102321344D01*
X155900456Y-102415252D01*
X155900608Y-102422843D01*
X156139776Y-102422843D01*
X156141392Y-102328468D01*
X156148134Y-102240176D01*
X156160000Y-102164454D01*
X156165759Y-102140665D01*
X156208524Y-102008872D01*
X156261677Y-101891979D01*
X156328427Y-101784414D01*
X156411984Y-101680608D01*
X156460687Y-101628763D01*
X156581828Y-101518960D01*
X156709428Y-101430149D01*
X156844055Y-101362033D01*
X156986278Y-101314317D01*
X157112252Y-101289754D01*
X157168858Y-101285088D01*
X157238928Y-101283737D01*
X157314120Y-101285492D01*
X157386095Y-101290147D01*
X157446511Y-101297495D01*
X157450392Y-101298157D01*
X157599854Y-101334639D01*
X157739712Y-101390313D01*
X157871020Y-101465757D01*
X157994829Y-101561549D01*
X158080285Y-101643826D01*
X158138543Y-101707337D01*
X158184326Y-101764085D01*
X158222493Y-101820994D01*
X158257904Y-101884988D01*
X158277686Y-101925126D01*
X158327250Y-102052415D01*
X158360746Y-102190942D01*
X158377813Y-102336419D01*
X158378090Y-102484558D01*
X158361217Y-102631069D01*
X158343821Y-102712078D01*
X158298543Y-102846819D01*
X158233711Y-102975734D01*
X158151560Y-103096605D01*
X158054325Y-103207209D01*
X157944244Y-103305328D01*
X157823551Y-103388740D01*
X157694482Y-103455226D01*
X157559274Y-103502565D01*
X157543724Y-103506608D01*
X157408771Y-103531050D01*
X157266499Y-103539741D01*
X157123918Y-103532748D01*
X156988039Y-103510140D01*
X156951596Y-103500869D01*
X156818442Y-103452944D01*
X156691225Y-103385457D01*
X156572033Y-103300594D01*
X156462950Y-103200539D01*
X156366066Y-103087480D01*
X156283465Y-102963603D01*
X156217236Y-102831092D01*
X156169465Y-102692135D01*
X156165688Y-102677589D01*
X156151923Y-102603890D01*
X156143286Y-102516812D01*
X156139776Y-102422843D01*
X155900608Y-102422843D01*
X155902330Y-102508418D01*
X155908342Y-102593339D01*
X155913589Y-102634774D01*
X155942529Y-102766869D01*
X155988112Y-102902869D01*
X156047560Y-103036159D01*
X156118096Y-103160125D01*
X156159548Y-103220495D01*
X156240623Y-103318930D01*
X156336033Y-103415266D01*
X156440415Y-103504924D01*
X156548402Y-103583322D01*
X156654629Y-103645880D01*
X156662373Y-103649804D01*
X156792636Y-103703910D01*
X156935601Y-103743350D01*
X157087247Y-103767887D01*
X157243553Y-103777284D01*
X157400497Y-103771301D01*
G36*
X148508269Y-102424825D02*
X148598661Y-102407039D01*
X148677291Y-102375837D01*
X148747895Y-102329942D01*
X148781595Y-102300860D01*
X148811181Y-102270772D01*
X148838968Y-102238432D01*
X148861619Y-102208301D01*
X148875794Y-102184843D01*
X148878155Y-102172520D01*
X148877838Y-102172224D01*
X148857728Y-102159484D01*
X148825598Y-102141966D01*
X148786242Y-102121956D01*
X148744456Y-102101743D01*
X148705034Y-102083614D01*
X148672771Y-102069855D01*
X148652463Y-102062755D01*
X148648043Y-102062599D01*
X148637529Y-102076301D01*
X148619327Y-102100744D01*
X148609446Y-102114171D01*
X148565010Y-102157103D01*
X148508304Y-102185344D01*
X148444541Y-102197704D01*
X148378932Y-102192992D01*
X148331819Y-102177614D01*
X148282631Y-102147200D01*
X148245674Y-102104985D01*
X148219793Y-102048633D01*
X148203835Y-101975807D01*
X148197519Y-101905780D01*
X148197899Y-101802331D01*
X148210497Y-101716765D01*
X148235574Y-101648391D01*
X148273396Y-101596518D01*
X148324226Y-101560456D01*
X148330607Y-101557432D01*
X148386477Y-101540912D01*
X148448879Y-101536364D01*
X148508715Y-101543790D01*
X148546759Y-101557384D01*
X148588175Y-101585883D01*
X148629932Y-101626738D01*
X148663842Y-101671928D01*
X148663991Y-101672173D01*
X148670857Y-101679033D01*
X148682293Y-101679814D01*
X148701881Y-101673297D01*
X148733200Y-101658264D01*
X148779833Y-101633495D01*
X148783580Y-101631464D01*
X148892127Y-101572599D01*
X148838245Y-101501817D01*
X148780632Y-101438517D01*
X148712018Y-101382926D01*
X148639097Y-101339928D01*
X148588798Y-101319851D01*
X148550041Y-101311247D01*
X148497904Y-101304162D01*
X148439654Y-101299101D01*
X148382561Y-101296569D01*
X148333891Y-101297071D01*
X148305078Y-101300156D01*
X148196013Y-101331844D01*
X148101399Y-101379896D01*
X148022042Y-101443419D01*
X147958747Y-101521520D01*
X147912319Y-101613307D01*
X147883566Y-101717889D01*
X147876022Y-101775232D01*
X147872128Y-101899432D01*
X147883885Y-102009590D01*
X147911757Y-102107699D01*
X147956211Y-102195756D01*
X147983156Y-102234489D01*
X148053143Y-102310624D01*
X148133057Y-102367699D01*
X148223952Y-102406208D01*
X148326882Y-102426643D01*
X148402381Y-102430469D01*
X148508269Y-102424825D01*
X148508269Y-102424825D01*
G37*
X148508269Y-102424825D02*
X148598661Y-102407039D01*
X148677291Y-102375837D01*
X148747895Y-102329942D01*
X148781595Y-102300860D01*
X148811181Y-102270772D01*
X148838968Y-102238432D01*
X148861619Y-102208301D01*
X148875794Y-102184843D01*
X148878155Y-102172520D01*
X148877838Y-102172224D01*
X148857728Y-102159484D01*
X148825598Y-102141966D01*
X148786242Y-102121956D01*
X148744456Y-102101743D01*
X148705034Y-102083614D01*
X148672771Y-102069855D01*
X148652463Y-102062755D01*
X148648043Y-102062599D01*
X148637529Y-102076301D01*
X148619327Y-102100744D01*
X148609446Y-102114171D01*
X148565010Y-102157103D01*
X148508304Y-102185344D01*
X148444541Y-102197704D01*
X148378932Y-102192992D01*
X148331819Y-102177614D01*
X148282631Y-102147200D01*
X148245674Y-102104985D01*
X148219793Y-102048633D01*
X148203835Y-101975807D01*
X148197519Y-101905780D01*
X148197899Y-101802331D01*
X148210497Y-101716765D01*
X148235574Y-101648391D01*
X148273396Y-101596518D01*
X148324226Y-101560456D01*
X148330607Y-101557432D01*
X148386477Y-101540912D01*
X148448879Y-101536364D01*
X148508715Y-101543790D01*
X148546759Y-101557384D01*
X148588175Y-101585883D01*
X148629932Y-101626738D01*
X148663842Y-101671928D01*
X148663991Y-101672173D01*
X148670857Y-101679033D01*
X148682293Y-101679814D01*
X148701881Y-101673297D01*
X148733200Y-101658264D01*
X148779833Y-101633495D01*
X148783580Y-101631464D01*
X148892127Y-101572599D01*
X148838245Y-101501817D01*
X148780632Y-101438517D01*
X148712018Y-101382926D01*
X148639097Y-101339928D01*
X148588798Y-101319851D01*
X148550041Y-101311247D01*
X148497904Y-101304162D01*
X148439654Y-101299101D01*
X148382561Y-101296569D01*
X148333891Y-101297071D01*
X148305078Y-101300156D01*
X148196013Y-101331844D01*
X148101399Y-101379896D01*
X148022042Y-101443419D01*
X147958747Y-101521520D01*
X147912319Y-101613307D01*
X147883566Y-101717889D01*
X147876022Y-101775232D01*
X147872128Y-101899432D01*
X147883885Y-102009590D01*
X147911757Y-102107699D01*
X147956211Y-102195756D01*
X147983156Y-102234489D01*
X148053143Y-102310624D01*
X148133057Y-102367699D01*
X148223952Y-102406208D01*
X148326882Y-102426643D01*
X148402381Y-102430469D01*
X148508269Y-102424825D01*
G36*
X149548702Y-102426683D02*
X149645581Y-102411229D01*
X149729755Y-102381480D01*
X149803993Y-102336515D01*
X149858972Y-102288071D01*
X149892359Y-102251651D01*
X149918759Y-102218088D01*
X149935507Y-102191240D01*
X149939940Y-102174961D01*
X149938609Y-102172822D01*
X149926527Y-102165698D01*
X149900197Y-102151351D01*
X149864447Y-102132305D01*
X149824103Y-102111086D01*
X149783995Y-102090219D01*
X149748949Y-102072231D01*
X149723794Y-102059647D01*
X149713380Y-102054991D01*
X149705062Y-102063298D01*
X149688627Y-102084695D01*
X149674420Y-102104758D01*
X149627869Y-102155512D01*
X149571375Y-102186567D01*
X149504390Y-102198209D01*
X149495453Y-102198314D01*
X149423125Y-102188318D01*
X149362064Y-102159575D01*
X149313447Y-102112985D01*
X149278450Y-102049451D01*
X149270451Y-102026125D01*
X149261157Y-101978576D01*
X149256130Y-101917107D01*
X149255336Y-101849462D01*
X149258741Y-101783386D01*
X149266312Y-101726623D01*
X149271856Y-101703449D01*
X149301478Y-101636364D01*
X149345164Y-101586194D01*
X149402339Y-101553320D01*
X149472425Y-101538120D01*
X149523593Y-101537832D01*
X149590459Y-101549410D01*
X149643722Y-101576321D01*
X149687840Y-101621183D01*
X149702965Y-101643214D01*
X149732597Y-101690093D01*
X149827772Y-101640597D01*
X149880288Y-101613435D01*
X149915701Y-101594173D01*
X149936101Y-101579781D01*
X149943577Y-101567231D01*
X149940221Y-101553494D01*
X149928123Y-101535542D01*
X149913624Y-101516204D01*
X149839994Y-101433171D01*
X149755480Y-101369058D01*
X149661272Y-101324289D01*
X149558558Y-101299289D01*
X149448529Y-101294482D01*
X149335022Y-101309712D01*
X149245234Y-101339075D01*
X149161261Y-101385325D01*
X149087300Y-101445212D01*
X149027549Y-101515483D01*
X148994317Y-101573634D01*
X148960393Y-101670048D01*
X148941161Y-101775357D01*
X148936543Y-101884263D01*
X148946461Y-101991469D01*
X148970836Y-102091676D01*
X149003055Y-102167753D01*
X149047928Y-102234238D01*
X149108302Y-102297979D01*
X149177823Y-102353051D01*
X149240597Y-102389205D01*
X149277218Y-102405414D01*
X149309087Y-102416103D01*
X149343151Y-102422675D01*
X149386357Y-102426535D01*
X149436350Y-102428764D01*
X149548702Y-102426683D01*
X149548702Y-102426683D01*
G37*
X149548702Y-102426683D02*
X149645581Y-102411229D01*
X149729755Y-102381480D01*
X149803993Y-102336515D01*
X149858972Y-102288071D01*
X149892359Y-102251651D01*
X149918759Y-102218088D01*
X149935507Y-102191240D01*
X149939940Y-102174961D01*
X149938609Y-102172822D01*
X149926527Y-102165698D01*
X149900197Y-102151351D01*
X149864447Y-102132305D01*
X149824103Y-102111086D01*
X149783995Y-102090219D01*
X149748949Y-102072231D01*
X149723794Y-102059647D01*
X149713380Y-102054991D01*
X149705062Y-102063298D01*
X149688627Y-102084695D01*
X149674420Y-102104758D01*
X149627869Y-102155512D01*
X149571375Y-102186567D01*
X149504390Y-102198209D01*
X149495453Y-102198314D01*
X149423125Y-102188318D01*
X149362064Y-102159575D01*
X149313447Y-102112985D01*
X149278450Y-102049451D01*
X149270451Y-102026125D01*
X149261157Y-101978576D01*
X149256130Y-101917107D01*
X149255336Y-101849462D01*
X149258741Y-101783386D01*
X149266312Y-101726623D01*
X149271856Y-101703449D01*
X149301478Y-101636364D01*
X149345164Y-101586194D01*
X149402339Y-101553320D01*
X149472425Y-101538120D01*
X149523593Y-101537832D01*
X149590459Y-101549410D01*
X149643722Y-101576321D01*
X149687840Y-101621183D01*
X149702965Y-101643214D01*
X149732597Y-101690093D01*
X149827772Y-101640597D01*
X149880288Y-101613435D01*
X149915701Y-101594173D01*
X149936101Y-101579781D01*
X149943577Y-101567231D01*
X149940221Y-101553494D01*
X149928123Y-101535542D01*
X149913624Y-101516204D01*
X149839994Y-101433171D01*
X149755480Y-101369058D01*
X149661272Y-101324289D01*
X149558558Y-101299289D01*
X149448529Y-101294482D01*
X149335022Y-101309712D01*
X149245234Y-101339075D01*
X149161261Y-101385325D01*
X149087300Y-101445212D01*
X149027549Y-101515483D01*
X148994317Y-101573634D01*
X148960393Y-101670048D01*
X148941161Y-101775357D01*
X148936543Y-101884263D01*
X148946461Y-101991469D01*
X148970836Y-102091676D01*
X149003055Y-102167753D01*
X149047928Y-102234238D01*
X149108302Y-102297979D01*
X149177823Y-102353051D01*
X149240597Y-102389205D01*
X149277218Y-102405414D01*
X149309087Y-102416103D01*
X149343151Y-102422675D01*
X149386357Y-102426535D01*
X149436350Y-102428764D01*
X149548702Y-102426683D01*
G36*
X153999998Y-102833519D02*
X154072127Y-102833280D01*
X154127325Y-102832650D01*
X154168171Y-102831437D01*
X154197242Y-102829452D01*
X154217118Y-102826505D01*
X154230377Y-102822404D01*
X154239595Y-102816961D01*
X154247353Y-102809983D01*
X154248923Y-102808420D01*
X154256426Y-102800338D01*
X154262300Y-102791096D01*
X154266780Y-102778025D01*
X154270099Y-102758459D01*
X154272494Y-102729732D01*
X154274199Y-102689176D01*
X154275447Y-102634125D01*
X154276475Y-102561913D01*
X154277346Y-102485398D01*
X154280614Y-102187513D01*
X154113947Y-102187513D01*
X154113947Y-101524904D01*
X153705339Y-101524904D01*
X153705339Y-102187513D01*
X153550730Y-102187513D01*
X153550730Y-102484463D01*
X153550824Y-102573704D01*
X153551224Y-102643537D01*
X153552105Y-102696639D01*
X153553641Y-102735689D01*
X153556008Y-102763365D01*
X153559380Y-102782344D01*
X153563933Y-102795306D01*
X153569842Y-102804928D01*
X153571841Y-102807485D01*
X153592952Y-102833556D01*
X153908361Y-102833556D01*
X153999998Y-102833519D01*
X153999998Y-102833519D01*
G37*
X153999998Y-102833519D02*
X154072127Y-102833280D01*
X154127325Y-102832650D01*
X154168171Y-102831437D01*
X154197242Y-102829452D01*
X154217118Y-102826505D01*
X154230377Y-102822404D01*
X154239595Y-102816961D01*
X154247353Y-102809983D01*
X154248923Y-102808420D01*
X154256426Y-102800338D01*
X154262300Y-102791096D01*
X154266780Y-102778025D01*
X154270099Y-102758459D01*
X154272494Y-102729732D01*
X154274199Y-102689176D01*
X154275447Y-102634125D01*
X154276475Y-102561913D01*
X154277346Y-102485398D01*
X154280614Y-102187513D01*
X154113947Y-102187513D01*
X154113947Y-101524904D01*
X153705339Y-101524904D01*
X153705339Y-102187513D01*
X153550730Y-102187513D01*
X153550730Y-102484463D01*
X153550824Y-102573704D01*
X153551224Y-102643537D01*
X153552105Y-102696639D01*
X153553641Y-102735689D01*
X153556008Y-102763365D01*
X153559380Y-102782344D01*
X153563933Y-102795306D01*
X153569842Y-102804928D01*
X153571841Y-102807485D01*
X153592952Y-102833556D01*
X153908361Y-102833556D01*
X153999998Y-102833519D01*
G36*
X153989872Y-103273291D02*
X154037758Y-103240018D01*
X154046670Y-103230592D01*
X154081277Y-103176665D01*
X154096358Y-103119191D01*
X154092705Y-103062123D01*
X154071112Y-103009412D01*
X154032371Y-102965011D01*
X153987815Y-102937325D01*
X153932735Y-102919605D01*
X153881747Y-102920726D01*
X153829281Y-102939779D01*
X153781115Y-102975099D01*
X153747449Y-103023460D01*
X153729941Y-103079933D01*
X153730250Y-103139588D01*
X153745545Y-103188663D01*
X153779502Y-103236888D01*
X153825582Y-103270113D01*
X153879116Y-103287689D01*
X153935436Y-103288965D01*
X153989872Y-103273291D01*
X153989872Y-103273291D01*
G37*
X153989872Y-103273291D02*
X154037758Y-103240018D01*
X154046670Y-103230592D01*
X154081277Y-103176665D01*
X154096358Y-103119191D01*
X154092705Y-103062123D01*
X154071112Y-103009412D01*
X154032371Y-102965011D01*
X153987815Y-102937325D01*
X153932735Y-102919605D01*
X153881747Y-102920726D01*
X153829281Y-102939779D01*
X153781115Y-102975099D01*
X153747449Y-103023460D01*
X153729941Y-103079933D01*
X153730250Y-103139588D01*
X153745545Y-103188663D01*
X153779502Y-103236888D01*
X153825582Y-103270113D01*
X153879116Y-103287689D01*
X153935436Y-103288965D01*
X153989872Y-103273291D01*
G36*
X157335120Y-103123655D02*
X157395120Y-103117967D01*
X157418165Y-103114002D01*
X157455778Y-103103455D01*
X157504294Y-103086153D01*
X157554908Y-103065310D01*
X157569363Y-103058766D01*
X157665353Y-103002245D01*
X157750178Y-102927886D01*
X157822152Y-102837799D01*
X157879591Y-102734097D01*
X157920811Y-102618888D01*
X157920994Y-102618209D01*
X157930508Y-102573292D01*
X157936632Y-102519480D01*
X157939779Y-102451971D01*
X157940433Y-102391817D01*
X157940077Y-102327430D01*
X157938415Y-102279030D01*
X157934671Y-102240522D01*
X157928068Y-102205813D01*
X157917832Y-102168809D01*
X157908190Y-102138583D01*
X157859464Y-102022088D01*
X157794687Y-101920462D01*
X157714270Y-101834186D01*
X157618622Y-101763746D01*
X157565034Y-101734528D01*
X157448028Y-101688786D01*
X157327938Y-101664129D01*
X157206915Y-101660837D01*
X157106730Y-101674655D01*
X157000210Y-101708484D01*
X156904009Y-101760824D01*
X156820059Y-101829752D01*
X156750292Y-101913344D01*
X156696641Y-102009679D01*
X156661037Y-102116833D01*
X156660656Y-102118491D01*
X156644863Y-102187513D01*
X156985252Y-102187513D01*
X156985252Y-102159550D01*
X156989543Y-102130796D01*
X157000099Y-102096238D01*
X157002377Y-102090528D01*
X157038542Y-102030863D01*
X157090697Y-101986014D01*
X157158083Y-101956396D01*
X157239941Y-101942427D01*
X157273929Y-101941308D01*
X157354722Y-101951137D01*
X157425540Y-101979874D01*
X157485714Y-102026400D01*
X157534576Y-102089592D01*
X157571457Y-102168329D01*
X157595688Y-102261489D01*
X157606601Y-102367952D01*
X157603526Y-102486596D01*
X157602967Y-102493129D01*
X157586765Y-102597079D01*
X157558097Y-102682869D01*
X157516833Y-102750656D01*
X157462846Y-102800599D01*
X157396010Y-102832855D01*
X157316958Y-102847530D01*
X157226738Y-102845937D01*
X157149098Y-102827728D01*
X157085080Y-102793396D01*
X157035727Y-102743435D01*
X157012155Y-102703137D01*
X156992457Y-102656137D01*
X156985420Y-102624549D01*
X156991365Y-102605467D01*
X157010614Y-102595983D01*
X157024216Y-102594027D01*
X157063181Y-102590600D01*
X156813725Y-102342114D01*
X156687082Y-102469118D01*
X156560438Y-102596122D01*
X156606982Y-102596122D01*
X156636945Y-102597715D01*
X156651950Y-102605194D01*
X156659052Y-102622606D01*
X156659906Y-102626491D01*
X156694552Y-102746836D01*
X156744485Y-102852122D01*
X156809152Y-102941724D01*
X156888002Y-103015014D01*
X156980483Y-103071365D01*
X157086043Y-103110153D01*
X157086089Y-103110165D01*
X157134546Y-103118798D01*
X157197255Y-103123982D01*
X157266639Y-103125630D01*
X157335120Y-103123655D01*
X157335120Y-103123655D01*
G37*
X157335120Y-103123655D02*
X157395120Y-103117967D01*
X157418165Y-103114002D01*
X157455778Y-103103455D01*
X157504294Y-103086153D01*
X157554908Y-103065310D01*
X157569363Y-103058766D01*
X157665353Y-103002245D01*
X157750178Y-102927886D01*
X157822152Y-102837799D01*
X157879591Y-102734097D01*
X157920811Y-102618888D01*
X157920994Y-102618209D01*
X157930508Y-102573292D01*
X157936632Y-102519480D01*
X157939779Y-102451971D01*
X157940433Y-102391817D01*
X157940077Y-102327430D01*
X157938415Y-102279030D01*
X157934671Y-102240522D01*
X157928068Y-102205813D01*
X157917832Y-102168809D01*
X157908190Y-102138583D01*
X157859464Y-102022088D01*
X157794687Y-101920462D01*
X157714270Y-101834186D01*
X157618622Y-101763746D01*
X157565034Y-101734528D01*
X157448028Y-101688786D01*
X157327938Y-101664129D01*
X157206915Y-101660837D01*
X157106730Y-101674655D01*
X157000210Y-101708484D01*
X156904009Y-101760824D01*
X156820059Y-101829752D01*
X156750292Y-101913344D01*
X156696641Y-102009679D01*
X156661037Y-102116833D01*
X156660656Y-102118491D01*
X156644863Y-102187513D01*
X156985252Y-102187513D01*
X156985252Y-102159550D01*
X156989543Y-102130796D01*
X157000099Y-102096238D01*
X157002377Y-102090528D01*
X157038542Y-102030863D01*
X157090697Y-101986014D01*
X157158083Y-101956396D01*
X157239941Y-101942427D01*
X157273929Y-101941308D01*
X157354722Y-101951137D01*
X157425540Y-101979874D01*
X157485714Y-102026400D01*
X157534576Y-102089592D01*
X157571457Y-102168329D01*
X157595688Y-102261489D01*
X157606601Y-102367952D01*
X157603526Y-102486596D01*
X157602967Y-102493129D01*
X157586765Y-102597079D01*
X157558097Y-102682869D01*
X157516833Y-102750656D01*
X157462846Y-102800599D01*
X157396010Y-102832855D01*
X157316958Y-102847530D01*
X157226738Y-102845937D01*
X157149098Y-102827728D01*
X157085080Y-102793396D01*
X157035727Y-102743435D01*
X157012155Y-102703137D01*
X156992457Y-102656137D01*
X156985420Y-102624549D01*
X156991365Y-102605467D01*
X157010614Y-102595983D01*
X157024216Y-102594027D01*
X157063181Y-102590600D01*
X156813725Y-102342114D01*
X156687082Y-102469118D01*
X156560438Y-102596122D01*
X156606982Y-102596122D01*
X156636945Y-102597715D01*
X156651950Y-102605194D01*
X156659052Y-102622606D01*
X156659906Y-102626491D01*
X156694552Y-102746836D01*
X156744485Y-102852122D01*
X156809152Y-102941724D01*
X156888002Y-103015014D01*
X156980483Y-103071365D01*
X157086043Y-103110153D01*
X157086089Y-103110165D01*
X157134546Y-103118798D01*
X157197255Y-103123982D01*
X157266639Y-103125630D01*
X157335120Y-103123655D01*
G36*
X138899419Y-102673091D02*
X138994444Y-102625676D01*
X139016282Y-102564390D01*
X139033449Y-102426755D01*
X139046282Y-102204041D01*
X139055120Y-101887523D01*
X139060301Y-101468471D01*
X139062161Y-100938157D01*
X139062178Y-100875296D01*
X139061978Y-100381577D01*
X139060718Y-99994801D01*
X139057405Y-99700958D01*
X139051048Y-99486038D01*
X139040655Y-99336033D01*
X139025234Y-99236932D01*
X139003793Y-99174727D01*
X138975340Y-99135406D01*
X138938884Y-99104962D01*
X138936729Y-99103343D01*
X138781493Y-99039451D01*
X138547095Y-99010314D01*
X138485174Y-99009200D01*
X138159067Y-99009200D01*
X138159067Y-100758689D01*
X138159757Y-101273980D01*
X138162253Y-101681560D01*
X138167192Y-101994666D01*
X138175208Y-102226533D01*
X138186940Y-102390398D01*
X138203024Y-102499496D01*
X138224095Y-102567063D01*
X138247765Y-102603213D01*
X138359730Y-102660892D01*
X138535126Y-102692651D01*
X138729756Y-102697161D01*
X138899419Y-102673091D01*
X138899419Y-102673091D01*
G37*
X138899419Y-102673091D02*
X138994444Y-102625676D01*
X139016282Y-102564390D01*
X139033449Y-102426755D01*
X139046282Y-102204041D01*
X139055120Y-101887523D01*
X139060301Y-101468471D01*
X139062161Y-100938157D01*
X139062178Y-100875296D01*
X139061978Y-100381577D01*
X139060718Y-99994801D01*
X139057405Y-99700958D01*
X139051048Y-99486038D01*
X139040655Y-99336033D01*
X139025234Y-99236932D01*
X139003793Y-99174727D01*
X138975340Y-99135406D01*
X138938884Y-99104962D01*
X138936729Y-99103343D01*
X138781493Y-99039451D01*
X138547095Y-99010314D01*
X138485174Y-99009200D01*
X138159067Y-99009200D01*
X138159067Y-100758689D01*
X138159757Y-101273980D01*
X138162253Y-101681560D01*
X138167192Y-101994666D01*
X138175208Y-102226533D01*
X138186940Y-102390398D01*
X138203024Y-102499496D01*
X138224095Y-102567063D01*
X138247765Y-102603213D01*
X138359730Y-102660892D01*
X138535126Y-102692651D01*
X138729756Y-102697161D01*
X138899419Y-102673091D01*
G36*
X141667747Y-102676277D02*
X141722173Y-102623679D01*
X141760202Y-102525583D01*
X141862806Y-102373588D01*
X142025616Y-102296202D01*
X142211642Y-102306514D01*
X142286446Y-102339367D01*
X142366806Y-102371684D01*
X142441157Y-102351651D01*
X142538918Y-102264062D01*
X142631126Y-102161202D01*
X142752870Y-102014765D01*
X142806084Y-101921261D01*
X142802394Y-101848457D01*
X142766994Y-101784538D01*
X142716410Y-101675949D01*
X142727136Y-101559502D01*
X142759319Y-101468215D01*
X142856864Y-101314128D01*
X142965983Y-101244754D01*
X143042800Y-101211209D01*
X143085622Y-101138494D01*
X143107205Y-100994633D01*
X143114732Y-100871795D01*
X143121046Y-100678118D01*
X143107148Y-100572369D01*
X143060589Y-100521812D01*
X142971157Y-100494235D01*
X142818765Y-100404293D01*
X142730034Y-100246333D01*
X142720511Y-100061752D01*
X142765101Y-99945564D01*
X142809567Y-99856873D01*
X142803389Y-99781982D01*
X142734666Y-99684767D01*
X142647695Y-99589143D01*
X142505180Y-99446989D01*
X142403474Y-99384642D01*
X142310150Y-99389865D01*
X142226904Y-99430333D01*
X142104264Y-99452923D01*
X141958814Y-99421093D01*
X141833818Y-99351982D01*
X141772542Y-99262728D01*
X141771511Y-99249941D01*
X141733909Y-99124099D01*
X141703778Y-99081771D01*
X141608008Y-99039567D01*
X141448112Y-99017194D01*
X141271703Y-99017254D01*
X141126393Y-99042345D01*
X141108289Y-99049252D01*
X141051821Y-99127115D01*
X141037733Y-99212647D01*
X140988366Y-99329595D01*
X140867989Y-99417935D01*
X140718183Y-99457790D01*
X140582340Y-99430333D01*
X140462748Y-99380853D01*
X140359161Y-99399030D01*
X140239296Y-99496783D01*
X140155503Y-99587910D01*
X140042409Y-99729443D01*
X140002160Y-99827193D01*
X140021464Y-99915554D01*
X140025596Y-99924076D01*
X140066328Y-100113149D01*
X140022532Y-100299485D01*
X139908590Y-100439020D01*
X139846845Y-100471765D01*
X139755182Y-100514132D01*
X139706206Y-100576158D01*
X139686604Y-100691823D01*
X139683067Y-100889878D01*
X139684142Y-100958704D01*
X140438382Y-100958704D01*
X140450753Y-100663717D01*
X140554529Y-100382371D01*
X140629524Y-100270971D01*
X140759551Y-100130575D01*
X140914904Y-99996841D01*
X141061155Y-99896456D01*
X141163880Y-99856104D01*
X141164733Y-99856092D01*
X141190757Y-99909784D01*
X141205680Y-100044850D01*
X141207067Y-100108992D01*
X141174392Y-100345604D01*
X141081349Y-100505497D01*
X140979909Y-100692944D01*
X140950851Y-100911278D01*
X141250670Y-100911278D01*
X141259936Y-100802440D01*
X141274039Y-100779656D01*
X141379025Y-100715432D01*
X141481131Y-100749593D01*
X141534346Y-100859633D01*
X141512164Y-100995535D01*
X141468876Y-101058446D01*
X141381773Y-101077390D01*
X141300160Y-101015632D01*
X141250670Y-100911278D01*
X140950851Y-100911278D01*
X140950760Y-100911956D01*
X140993535Y-101118692D01*
X141087602Y-101253275D01*
X141261478Y-101342135D01*
X141464025Y-101360418D01*
X141642572Y-101305228D01*
X141670514Y-101285324D01*
X141787424Y-101127733D01*
X141853579Y-100917995D01*
X141851494Y-100734309D01*
X141786726Y-100592023D01*
X141682069Y-100455821D01*
X141574825Y-100290545D01*
X141545733Y-100087229D01*
X141558417Y-99927768D01*
X141609993Y-99866008D01*
X141720750Y-99891535D01*
X141824035Y-99944409D01*
X142046100Y-100124422D01*
X142232414Y-100381272D01*
X142343386Y-100644782D01*
X142374354Y-100949477D01*
X142308513Y-101244772D01*
X142161421Y-101509665D01*
X141948636Y-101723152D01*
X141685718Y-101864230D01*
X141404622Y-101912057D01*
X141106960Y-101860091D01*
X140851705Y-101718024D01*
X140648658Y-101506605D01*
X140507617Y-101246582D01*
X140438382Y-100958704D01*
X139684142Y-100958704D01*
X139686177Y-101088939D01*
X139703044Y-101195701D01*
X139744970Y-101238786D01*
X139823259Y-101246819D01*
X139824016Y-101246819D01*
X139957398Y-101299113D01*
X140049182Y-101429755D01*
X140083739Y-101599386D01*
X140045445Y-101768647D01*
X140037182Y-101783740D01*
X139994707Y-101871888D01*
X139999353Y-101946586D01*
X140063323Y-102041599D01*
X140175068Y-102165280D01*
X140307424Y-102299723D01*
X140396720Y-102359532D01*
X140475975Y-102359434D01*
X140545457Y-102330488D01*
X140713686Y-102296521D01*
X140879804Y-102336562D01*
X141004922Y-102434581D01*
X141048642Y-102537854D01*
X141073219Y-102613705D01*
X141140010Y-102656477D01*
X141277124Y-102678579D01*
X141384074Y-102685940D01*
X141565912Y-102692399D01*
X141667747Y-102676277D01*
X141667747Y-102676277D01*
G37*
X141667747Y-102676277D02*
X141722173Y-102623679D01*
X141760202Y-102525583D01*
X141862806Y-102373588D01*
X142025616Y-102296202D01*
X142211642Y-102306514D01*
X142286446Y-102339367D01*
X142366806Y-102371684D01*
X142441157Y-102351651D01*
X142538918Y-102264062D01*
X142631126Y-102161202D01*
X142752870Y-102014765D01*
X142806084Y-101921261D01*
X142802394Y-101848457D01*
X142766994Y-101784538D01*
X142716410Y-101675949D01*
X142727136Y-101559502D01*
X142759319Y-101468215D01*
X142856864Y-101314128D01*
X142965983Y-101244754D01*
X143042800Y-101211209D01*
X143085622Y-101138494D01*
X143107205Y-100994633D01*
X143114732Y-100871795D01*
X143121046Y-100678118D01*
X143107148Y-100572369D01*
X143060589Y-100521812D01*
X142971157Y-100494235D01*
X142818765Y-100404293D01*
X142730034Y-100246333D01*
X142720511Y-100061752D01*
X142765101Y-99945564D01*
X142809567Y-99856873D01*
X142803389Y-99781982D01*
X142734666Y-99684767D01*
X142647695Y-99589143D01*
X142505180Y-99446989D01*
X142403474Y-99384642D01*
X142310150Y-99389865D01*
X142226904Y-99430333D01*
X142104264Y-99452923D01*
X141958814Y-99421093D01*
X141833818Y-99351982D01*
X141772542Y-99262728D01*
X141771511Y-99249941D01*
X141733909Y-99124099D01*
X141703778Y-99081771D01*
X141608008Y-99039567D01*
X141448112Y-99017194D01*
X141271703Y-99017254D01*
X141126393Y-99042345D01*
X141108289Y-99049252D01*
X141051821Y-99127115D01*
X141037733Y-99212647D01*
X140988366Y-99329595D01*
X140867989Y-99417935D01*
X140718183Y-99457790D01*
X140582340Y-99430333D01*
X140462748Y-99380853D01*
X140359161Y-99399030D01*
X140239296Y-99496783D01*
X140155503Y-99587910D01*
X140042409Y-99729443D01*
X140002160Y-99827193D01*
X140021464Y-99915554D01*
X140025596Y-99924076D01*
X140066328Y-100113149D01*
X140022532Y-100299485D01*
X139908590Y-100439020D01*
X139846845Y-100471765D01*
X139755182Y-100514132D01*
X139706206Y-100576158D01*
X139686604Y-100691823D01*
X139683067Y-100889878D01*
X139684142Y-100958704D01*
X140438382Y-100958704D01*
X140450753Y-100663717D01*
X140554529Y-100382371D01*
X140629524Y-100270971D01*
X140759551Y-100130575D01*
X140914904Y-99996841D01*
X141061155Y-99896456D01*
X141163880Y-99856104D01*
X141164733Y-99856092D01*
X141190757Y-99909784D01*
X141205680Y-100044850D01*
X141207067Y-100108992D01*
X141174392Y-100345604D01*
X141081349Y-100505497D01*
X140979909Y-100692944D01*
X140950851Y-100911278D01*
X141250670Y-100911278D01*
X141259936Y-100802440D01*
X141274039Y-100779656D01*
X141379025Y-100715432D01*
X141481131Y-100749593D01*
X141534346Y-100859633D01*
X141512164Y-100995535D01*
X141468876Y-101058446D01*
X141381773Y-101077390D01*
X141300160Y-101015632D01*
X141250670Y-100911278D01*
X140950851Y-100911278D01*
X140950760Y-100911956D01*
X140993535Y-101118692D01*
X141087602Y-101253275D01*
X141261478Y-101342135D01*
X141464025Y-101360418D01*
X141642572Y-101305228D01*
X141670514Y-101285324D01*
X141787424Y-101127733D01*
X141853579Y-100917995D01*
X141851494Y-100734309D01*
X141786726Y-100592023D01*
X141682069Y-100455821D01*
X141574825Y-100290545D01*
X141545733Y-100087229D01*
X141558417Y-99927768D01*
X141609993Y-99866008D01*
X141720750Y-99891535D01*
X141824035Y-99944409D01*
X142046100Y-100124422D01*
X142232414Y-100381272D01*
X142343386Y-100644782D01*
X142374354Y-100949477D01*
X142308513Y-101244772D01*
X142161421Y-101509665D01*
X141948636Y-101723152D01*
X141685718Y-101864230D01*
X141404622Y-101912057D01*
X141106960Y-101860091D01*
X140851705Y-101718024D01*
X140648658Y-101506605D01*
X140507617Y-101246582D01*
X140438382Y-100958704D01*
X139684142Y-100958704D01*
X139686177Y-101088939D01*
X139703044Y-101195701D01*
X139744970Y-101238786D01*
X139823259Y-101246819D01*
X139824016Y-101246819D01*
X139957398Y-101299113D01*
X140049182Y-101429755D01*
X140083739Y-101599386D01*
X140045445Y-101768647D01*
X140037182Y-101783740D01*
X139994707Y-101871888D01*
X139999353Y-101946586D01*
X140063323Y-102041599D01*
X140175068Y-102165280D01*
X140307424Y-102299723D01*
X140396720Y-102359532D01*
X140475975Y-102359434D01*
X140545457Y-102330488D01*
X140713686Y-102296521D01*
X140879804Y-102336562D01*
X141004922Y-102434581D01*
X141048642Y-102537854D01*
X141073219Y-102613705D01*
X141140010Y-102656477D01*
X141277124Y-102678579D01*
X141384074Y-102685940D01*
X141565912Y-102692399D01*
X141667747Y-102676277D01*
G36*
X145609733Y-103661891D02*
X145602134Y-103387969D01*
X145566286Y-103212787D01*
X145482609Y-103114491D01*
X145331525Y-103071224D01*
X145093456Y-103061133D01*
X145071525Y-103061104D01*
X144650178Y-103061104D01*
X144650178Y-101156104D01*
X144649888Y-100625037D01*
X144648528Y-100201672D01*
X144645360Y-99872760D01*
X144639643Y-99625053D01*
X144630642Y-99445300D01*
X144617616Y-99320253D01*
X144599829Y-99236662D01*
X144576541Y-99181279D01*
X144547015Y-99140853D01*
X144537289Y-99130152D01*
X144381926Y-99038284D01*
X144178111Y-99010357D01*
X143974326Y-99048325D01*
X143872515Y-99103343D01*
X143837862Y-99131537D01*
X143810262Y-99167052D01*
X143788912Y-99222849D01*
X143773010Y-99311887D01*
X143761754Y-99447126D01*
X143754340Y-99641525D01*
X143749967Y-99908044D01*
X143747832Y-100259643D01*
X143747132Y-100709281D01*
X143747067Y-101129296D01*
X143747067Y-103061104D01*
X143332481Y-103061104D01*
X143099162Y-103067733D01*
X142950097Y-103091704D01*
X142857138Y-103139146D01*
X142824481Y-103171700D01*
X142749684Y-103336979D01*
X142730695Y-103552505D01*
X142766085Y-103764271D01*
X142843955Y-103907771D01*
X142885713Y-103946213D01*
X142939696Y-103975534D01*
X143020528Y-103996962D01*
X143142830Y-104011726D01*
X143321225Y-104021055D01*
X143570334Y-104026178D01*
X143904779Y-104028323D01*
X144283289Y-104028723D01*
X145609733Y-104028723D01*
X145609733Y-103661891D01*
X145609733Y-103661891D01*
G37*
X145609733Y-103661891D02*
X145602134Y-103387969D01*
X145566286Y-103212787D01*
X145482609Y-103114491D01*
X145331525Y-103071224D01*
X145093456Y-103061133D01*
X145071525Y-103061104D01*
X144650178Y-103061104D01*
X144650178Y-101156104D01*
X144649888Y-100625037D01*
X144648528Y-100201672D01*
X144645360Y-99872760D01*
X144639643Y-99625053D01*
X144630642Y-99445300D01*
X144617616Y-99320253D01*
X144599829Y-99236662D01*
X144576541Y-99181279D01*
X144547015Y-99140853D01*
X144537289Y-99130152D01*
X144381926Y-99038284D01*
X144178111Y-99010357D01*
X143974326Y-99048325D01*
X143872515Y-99103343D01*
X143837862Y-99131537D01*
X143810262Y-99167052D01*
X143788912Y-99222849D01*
X143773010Y-99311887D01*
X143761754Y-99447126D01*
X143754340Y-99641525D01*
X143749967Y-99908044D01*
X143747832Y-100259643D01*
X143747132Y-100709281D01*
X143747067Y-101129296D01*
X143747067Y-103061104D01*
X143332481Y-103061104D01*
X143099162Y-103067733D01*
X142950097Y-103091704D01*
X142857138Y-103139146D01*
X142824481Y-103171700D01*
X142749684Y-103336979D01*
X142730695Y-103552505D01*
X142766085Y-103764271D01*
X142843955Y-103907771D01*
X142885713Y-103946213D01*
X142939696Y-103975534D01*
X143020528Y-103996962D01*
X143142830Y-104011726D01*
X143321225Y-104021055D01*
X143570334Y-104026178D01*
X143904779Y-104028323D01*
X144283289Y-104028723D01*
X145609733Y-104028723D01*
X145609733Y-103661891D01*
G36*
X138506128Y-104016364D02*
X138774838Y-103967356D01*
X138949653Y-103863235D01*
X139041371Y-103694127D01*
X139062178Y-103507976D01*
X139016443Y-103282084D01*
X138884950Y-103131200D01*
X138676265Y-103063878D01*
X138614719Y-103061104D01*
X138437617Y-103084875D01*
X138314214Y-103172841D01*
X138276052Y-103220451D01*
X138196102Y-103378743D01*
X138162091Y-103592405D01*
X138159067Y-103711529D01*
X138159067Y-104043260D01*
X138506128Y-104016364D01*
X138506128Y-104016364D01*
G37*
X138506128Y-104016364D02*
X138774838Y-103967356D01*
X138949653Y-103863235D01*
X139041371Y-103694127D01*
X139062178Y-103507976D01*
X139016443Y-103282084D01*
X138884950Y-103131200D01*
X138676265Y-103063878D01*
X138614719Y-103061104D01*
X138437617Y-103084875D01*
X138314214Y-103172841D01*
X138276052Y-103220451D01*
X138196102Y-103378743D01*
X138162091Y-103592405D01*
X138159067Y-103711529D01*
X138159067Y-104043260D01*
X138506128Y-104016364D01*
G36*
X163973961Y-104190387D02*
X164083945Y-104189249D01*
X164164823Y-104187541D01*
X164207617Y-104185419D01*
X164212072Y-104184450D01*
X164216902Y-104158620D01*
X164229476Y-104091803D01*
X164248109Y-103992929D01*
X164271120Y-103870931D01*
X164282193Y-103812252D01*
X164351242Y-103446404D01*
X164613768Y-103336616D01*
X164711798Y-103294892D01*
X164785780Y-103265787D01*
X164845193Y-103251363D01*
X164899515Y-103253683D01*
X164958224Y-103274810D01*
X165030798Y-103316805D01*
X165126716Y-103381733D01*
X165255456Y-103471654D01*
X165265100Y-103478353D01*
X165519100Y-103654665D01*
X165766750Y-103408859D01*
X165857093Y-103317169D01*
X165932678Y-103236608D01*
X165986863Y-103174550D01*
X166013008Y-103138368D01*
X166014399Y-103133896D01*
X166000796Y-103103068D01*
X165963554Y-103039229D01*
X165908027Y-102951084D01*
X165839569Y-102847337D01*
X165823899Y-102824159D01*
X165753202Y-102716540D01*
X165694610Y-102620689D01*
X165653509Y-102545916D01*
X165635282Y-102501532D01*
X165634851Y-102497240D01*
X165645476Y-102455471D01*
X165672976Y-102379782D01*
X165712734Y-102282284D01*
X165744464Y-102209600D01*
X165852626Y-101968300D01*
X166028763Y-101935256D01*
X166151326Y-101911516D01*
X166289374Y-101883682D01*
X166389050Y-101862857D01*
X166573200Y-101823501D01*
X166573200Y-101097508D01*
X166274750Y-101043070D01*
X166152721Y-101020679D01*
X166045064Y-101000682D01*
X165963916Y-100985349D01*
X165922783Y-100977244D01*
X165894126Y-100960483D01*
X165861993Y-100917797D01*
X165822626Y-100842599D01*
X165772267Y-100728300D01*
X165749766Y-100673974D01*
X165630267Y-100382092D01*
X165822333Y-100103671D01*
X165893596Y-99997937D01*
X165952890Y-99905329D01*
X165994775Y-99834694D01*
X166013813Y-99794876D01*
X166014400Y-99791374D01*
X165997079Y-99758394D01*
X165950603Y-99701346D01*
X165883197Y-99628205D01*
X165803088Y-99546946D01*
X165718503Y-99465545D01*
X165637668Y-99391976D01*
X165568810Y-99334214D01*
X165520156Y-99300235D01*
X165502319Y-99294947D01*
X165469131Y-99313847D01*
X165403430Y-99355530D01*
X165314531Y-99413956D01*
X165211753Y-99483086D01*
X165205314Y-99487467D01*
X164942328Y-99666463D01*
X164805405Y-99599310D01*
X164720291Y-99563139D01*
X164664081Y-99551053D01*
X164647665Y-99556429D01*
X164629878Y-99588782D01*
X164597991Y-99657379D01*
X164556914Y-99751354D01*
X164521895Y-99834700D01*
X164468815Y-99963162D01*
X164404906Y-100117830D01*
X164338740Y-100277961D01*
X164286305Y-100404861D01*
X164155666Y-100721022D01*
X164227542Y-100773161D01*
X164352853Y-100872893D01*
X164444650Y-100969607D01*
X164516739Y-101078760D01*
X164540010Y-101123044D01*
X164604408Y-101303423D01*
X164622235Y-101484338D01*
X164597244Y-101659373D01*
X164533186Y-101822112D01*
X164433811Y-101966136D01*
X164302873Y-102085031D01*
X164144122Y-102172380D01*
X163961310Y-102221765D01*
X163893500Y-102228821D01*
X163699897Y-102217978D01*
X163524187Y-102164109D01*
X163370781Y-102073165D01*
X163244087Y-101951098D01*
X163148517Y-101803858D01*
X163088479Y-101637398D01*
X163068385Y-101457668D01*
X163092644Y-101270621D01*
X163119645Y-101184472D01*
X163185723Y-101057730D01*
X163285281Y-100928130D01*
X163404811Y-100812118D01*
X163460684Y-100769311D01*
X163535868Y-100716553D01*
X163400040Y-100389927D01*
X163302889Y-100156105D01*
X163224032Y-99965842D01*
X163162117Y-99815845D01*
X163115792Y-99702826D01*
X163083707Y-99623494D01*
X163064509Y-99574559D01*
X163059369Y-99560602D01*
X163046859Y-99538020D01*
X163023775Y-99533963D01*
X162978980Y-99550554D01*
X162901339Y-99589914D01*
X162898955Y-99591169D01*
X162820330Y-99628076D01*
X162757791Y-99649267D01*
X162727110Y-99650608D01*
X162696370Y-99630374D01*
X162633066Y-99587653D01*
X162546490Y-99528745D01*
X162447887Y-99461291D01*
X162349180Y-99394403D01*
X162266051Y-99339584D01*
X162207181Y-99302454D01*
X162181253Y-99288634D01*
X162181187Y-99288632D01*
X162158622Y-99305482D01*
X162107088Y-99351664D01*
X162033611Y-99420665D01*
X161945218Y-99505971D01*
X161918650Y-99531992D01*
X161828222Y-99622400D01*
X161752590Y-99700988D01*
X161698412Y-99760606D01*
X161672352Y-99794107D01*
X161671000Y-99797782D01*
X161684812Y-99826148D01*
X161722467Y-99887035D01*
X161778286Y-99971621D01*
X161846592Y-100071081D01*
X161849813Y-100075685D01*
X161919944Y-100177066D01*
X161979404Y-100265261D01*
X162021990Y-100330919D01*
X162041501Y-100364685D01*
X162041611Y-100364965D01*
X162037827Y-100402145D01*
X162017221Y-100473515D01*
X161984492Y-100567250D01*
X161944342Y-100671524D01*
X161901471Y-100774514D01*
X161860580Y-100864393D01*
X161826371Y-100929338D01*
X161806856Y-100955489D01*
X161760375Y-100977115D01*
X161687780Y-100995991D01*
X161664118Y-101000043D01*
X161588365Y-101012308D01*
X161482405Y-101030729D01*
X161365913Y-101051864D01*
X161334450Y-101057731D01*
X161112200Y-101099455D01*
X161112199Y-101461923D01*
X161112199Y-101824391D01*
X161232849Y-101849859D01*
X161314077Y-101866249D01*
X161425396Y-101887732D01*
X161546887Y-101910485D01*
X161587364Y-101917903D01*
X161691970Y-101939512D01*
X161777605Y-101961981D01*
X161831835Y-101981816D01*
X161843390Y-101989790D01*
X161862057Y-102024306D01*
X161895085Y-102094542D01*
X161937333Y-102189308D01*
X161971564Y-102268780D01*
X162077577Y-102518459D01*
X161874288Y-102816018D01*
X161801301Y-102924533D01*
X161740011Y-103018864D01*
X161695590Y-103090798D01*
X161673213Y-103132126D01*
X161671546Y-103137839D01*
X161688780Y-103163758D01*
X161735670Y-103218036D01*
X161805631Y-103293433D01*
X161892076Y-103382710D01*
X161919452Y-103410328D01*
X162166812Y-103658555D01*
X162484717Y-103441104D01*
X162802623Y-103223653D01*
X163068661Y-103332781D01*
X163334700Y-103441908D01*
X163389271Y-103721104D01*
X163413295Y-103845018D01*
X163435297Y-103960300D01*
X163452423Y-104051904D01*
X163460272Y-104095550D01*
X163476701Y-104190800D01*
X163843850Y-104190800D01*
X163973961Y-104190387D01*
X163973961Y-104190387D01*
G37*
X163973961Y-104190387D02*
X164083945Y-104189249D01*
X164164823Y-104187541D01*
X164207617Y-104185419D01*
X164212072Y-104184450D01*
X164216902Y-104158620D01*
X164229476Y-104091803D01*
X164248109Y-103992929D01*
X164271120Y-103870931D01*
X164282193Y-103812252D01*
X164351242Y-103446404D01*
X164613768Y-103336616D01*
X164711798Y-103294892D01*
X164785780Y-103265787D01*
X164845193Y-103251363D01*
X164899515Y-103253683D01*
X164958224Y-103274810D01*
X165030798Y-103316805D01*
X165126716Y-103381733D01*
X165255456Y-103471654D01*
X165265100Y-103478353D01*
X165519100Y-103654665D01*
X165766750Y-103408859D01*
X165857093Y-103317169D01*
X165932678Y-103236608D01*
X165986863Y-103174550D01*
X166013008Y-103138368D01*
X166014399Y-103133896D01*
X166000796Y-103103068D01*
X165963554Y-103039229D01*
X165908027Y-102951084D01*
X165839569Y-102847337D01*
X165823899Y-102824159D01*
X165753202Y-102716540D01*
X165694610Y-102620689D01*
X165653509Y-102545916D01*
X165635282Y-102501532D01*
X165634851Y-102497240D01*
X165645476Y-102455471D01*
X165672976Y-102379782D01*
X165712734Y-102282284D01*
X165744464Y-102209600D01*
X165852626Y-101968300D01*
X166028763Y-101935256D01*
X166151326Y-101911516D01*
X166289374Y-101883682D01*
X166389050Y-101862857D01*
X166573200Y-101823501D01*
X166573200Y-101097508D01*
X166274750Y-101043070D01*
X166152721Y-101020679D01*
X166045064Y-101000682D01*
X165963916Y-100985349D01*
X165922783Y-100977244D01*
X165894126Y-100960483D01*
X165861993Y-100917797D01*
X165822626Y-100842599D01*
X165772267Y-100728300D01*
X165749766Y-100673974D01*
X165630267Y-100382092D01*
X165822333Y-100103671D01*
X165893596Y-99997937D01*
X165952890Y-99905329D01*
X165994775Y-99834694D01*
X166013813Y-99794876D01*
X166014400Y-99791374D01*
X165997079Y-99758394D01*
X165950603Y-99701346D01*
X165883197Y-99628205D01*
X165803088Y-99546946D01*
X165718503Y-99465545D01*
X165637668Y-99391976D01*
X165568810Y-99334214D01*
X165520156Y-99300235D01*
X165502319Y-99294947D01*
X165469131Y-99313847D01*
X165403430Y-99355530D01*
X165314531Y-99413956D01*
X165211753Y-99483086D01*
X165205314Y-99487467D01*
X164942328Y-99666463D01*
X164805405Y-99599310D01*
X164720291Y-99563139D01*
X164664081Y-99551053D01*
X164647665Y-99556429D01*
X164629878Y-99588782D01*
X164597991Y-99657379D01*
X164556914Y-99751354D01*
X164521895Y-99834700D01*
X164468815Y-99963162D01*
X164404906Y-100117830D01*
X164338740Y-100277961D01*
X164286305Y-100404861D01*
X164155666Y-100721022D01*
X164227542Y-100773161D01*
X164352853Y-100872893D01*
X164444650Y-100969607D01*
X164516739Y-101078760D01*
X164540010Y-101123044D01*
X164604408Y-101303423D01*
X164622235Y-101484338D01*
X164597244Y-101659373D01*
X164533186Y-101822112D01*
X164433811Y-101966136D01*
X164302873Y-102085031D01*
X164144122Y-102172380D01*
X163961310Y-102221765D01*
X163893500Y-102228821D01*
X163699897Y-102217978D01*
X163524187Y-102164109D01*
X163370781Y-102073165D01*
X163244087Y-101951098D01*
X163148517Y-101803858D01*
X163088479Y-101637398D01*
X163068385Y-101457668D01*
X163092644Y-101270621D01*
X163119645Y-101184472D01*
X163185723Y-101057730D01*
X163285281Y-100928130D01*
X163404811Y-100812118D01*
X163460684Y-100769311D01*
X163535868Y-100716553D01*
X163400040Y-100389927D01*
X163302889Y-100156105D01*
X163224032Y-99965842D01*
X163162117Y-99815845D01*
X163115792Y-99702826D01*
X163083707Y-99623494D01*
X163064509Y-99574559D01*
X163059369Y-99560602D01*
X163046859Y-99538020D01*
X163023775Y-99533963D01*
X162978980Y-99550554D01*
X162901339Y-99589914D01*
X162898955Y-99591169D01*
X162820330Y-99628076D01*
X162757791Y-99649267D01*
X162727110Y-99650608D01*
X162696370Y-99630374D01*
X162633066Y-99587653D01*
X162546490Y-99528745D01*
X162447887Y-99461291D01*
X162349180Y-99394403D01*
X162266051Y-99339584D01*
X162207181Y-99302454D01*
X162181253Y-99288634D01*
X162181187Y-99288632D01*
X162158622Y-99305482D01*
X162107088Y-99351664D01*
X162033611Y-99420665D01*
X161945218Y-99505971D01*
X161918650Y-99531992D01*
X161828222Y-99622400D01*
X161752590Y-99700988D01*
X161698412Y-99760606D01*
X161672352Y-99794107D01*
X161671000Y-99797782D01*
X161684812Y-99826148D01*
X161722467Y-99887035D01*
X161778286Y-99971621D01*
X161846592Y-100071081D01*
X161849813Y-100075685D01*
X161919944Y-100177066D01*
X161979404Y-100265261D01*
X162021990Y-100330919D01*
X162041501Y-100364685D01*
X162041611Y-100364965D01*
X162037827Y-100402145D01*
X162017221Y-100473515D01*
X161984492Y-100567250D01*
X161944342Y-100671524D01*
X161901471Y-100774514D01*
X161860580Y-100864393D01*
X161826371Y-100929338D01*
X161806856Y-100955489D01*
X161760375Y-100977115D01*
X161687780Y-100995991D01*
X161664118Y-101000043D01*
X161588365Y-101012308D01*
X161482405Y-101030729D01*
X161365913Y-101051864D01*
X161334450Y-101057731D01*
X161112200Y-101099455D01*
X161112199Y-101461923D01*
X161112199Y-101824391D01*
X161232849Y-101849859D01*
X161314077Y-101866249D01*
X161425396Y-101887732D01*
X161546887Y-101910485D01*
X161587364Y-101917903D01*
X161691970Y-101939512D01*
X161777605Y-101961981D01*
X161831835Y-101981816D01*
X161843390Y-101989790D01*
X161862057Y-102024306D01*
X161895085Y-102094542D01*
X161937333Y-102189308D01*
X161971564Y-102268780D01*
X162077577Y-102518459D01*
X161874288Y-102816018D01*
X161801301Y-102924533D01*
X161740011Y-103018864D01*
X161695590Y-103090798D01*
X161673213Y-103132126D01*
X161671546Y-103137839D01*
X161688780Y-103163758D01*
X161735670Y-103218036D01*
X161805631Y-103293433D01*
X161892076Y-103382710D01*
X161919452Y-103410328D01*
X162166812Y-103658555D01*
X162484717Y-103441104D01*
X162802623Y-103223653D01*
X163068661Y-103332781D01*
X163334700Y-103441908D01*
X163389271Y-103721104D01*
X163413295Y-103845018D01*
X163435297Y-103960300D01*
X163452423Y-104051904D01*
X163460272Y-104095550D01*
X163476701Y-104190800D01*
X163843850Y-104190800D01*
X163973961Y-104190387D01*
M02*
