G04 #@! TF.FileFunction,Legend,Bot*
%FSLAX46Y46*%
G04 Gerber Fmt 4.6, Leading zero omitted, Abs format (unit mm)*
G04 Created by KiCad (PCBNEW 4.0.6-e0-6349~53~ubuntu16.04.1) date Sun Nov  5 14:33:26 2017*
%MOMM*%
%LPD*%
G01*
G04 APERTURE LIST*
%ADD10C,0.100000*%
%ADD11C,0.200000*%
%ADD12C,0.010000*%
G04 APERTURE END LIST*
D10*
D11*
X42971981Y-5974866D02*
X41971981Y-5974866D01*
X41971981Y-6212961D01*
X42019600Y-6355819D01*
X42114838Y-6451057D01*
X42210076Y-6498676D01*
X42400552Y-6546295D01*
X42543410Y-6546295D01*
X42733886Y-6498676D01*
X42829124Y-6451057D01*
X42924362Y-6355819D01*
X42971981Y-6212961D01*
X42971981Y-5974866D01*
X42924362Y-7355819D02*
X42971981Y-7260581D01*
X42971981Y-7070104D01*
X42924362Y-6974866D01*
X42829124Y-6927247D01*
X42448171Y-6927247D01*
X42352933Y-6974866D01*
X42305314Y-7070104D01*
X42305314Y-7260581D01*
X42352933Y-7355819D01*
X42448171Y-7403438D01*
X42543410Y-7403438D01*
X42638648Y-6927247D01*
X42924362Y-7784390D02*
X42971981Y-7879628D01*
X42971981Y-8070104D01*
X42924362Y-8165343D01*
X42829124Y-8212962D01*
X42781505Y-8212962D01*
X42686267Y-8165343D01*
X42638648Y-8070104D01*
X42638648Y-7927247D01*
X42591029Y-7832009D01*
X42495790Y-7784390D01*
X42448171Y-7784390D01*
X42352933Y-7832009D01*
X42305314Y-7927247D01*
X42305314Y-8070104D01*
X42352933Y-8165343D01*
X42971981Y-8641533D02*
X42305314Y-8641533D01*
X41971981Y-8641533D02*
X42019600Y-8593914D01*
X42067219Y-8641533D01*
X42019600Y-8689152D01*
X41971981Y-8641533D01*
X42067219Y-8641533D01*
X42305314Y-9546295D02*
X43114838Y-9546295D01*
X43210076Y-9498676D01*
X43257695Y-9451057D01*
X43305314Y-9355818D01*
X43305314Y-9212961D01*
X43257695Y-9117723D01*
X42924362Y-9546295D02*
X42971981Y-9451057D01*
X42971981Y-9260580D01*
X42924362Y-9165342D01*
X42876743Y-9117723D01*
X42781505Y-9070104D01*
X42495790Y-9070104D01*
X42400552Y-9117723D01*
X42352933Y-9165342D01*
X42305314Y-9260580D01*
X42305314Y-9451057D01*
X42352933Y-9546295D01*
X42305314Y-10022485D02*
X42971981Y-10022485D01*
X42400552Y-10022485D02*
X42352933Y-10070104D01*
X42305314Y-10165342D01*
X42305314Y-10308200D01*
X42352933Y-10403438D01*
X42448171Y-10451057D01*
X42971981Y-10451057D01*
X42924362Y-11308200D02*
X42971981Y-11212962D01*
X42971981Y-11022485D01*
X42924362Y-10927247D01*
X42829124Y-10879628D01*
X42448171Y-10879628D01*
X42352933Y-10927247D01*
X42305314Y-11022485D01*
X42305314Y-11212962D01*
X42352933Y-11308200D01*
X42448171Y-11355819D01*
X42543410Y-11355819D01*
X42638648Y-10879628D01*
X42971981Y-12212962D02*
X41971981Y-12212962D01*
X42924362Y-12212962D02*
X42971981Y-12117724D01*
X42971981Y-11927247D01*
X42924362Y-11832009D01*
X42876743Y-11784390D01*
X42781505Y-11736771D01*
X42495790Y-11736771D01*
X42400552Y-11784390D01*
X42352933Y-11832009D01*
X42305314Y-11927247D01*
X42305314Y-12117724D01*
X42352933Y-12212962D01*
X42971981Y-13451057D02*
X41971981Y-13451057D01*
X42352933Y-13451057D02*
X42305314Y-13546295D01*
X42305314Y-13736772D01*
X42352933Y-13832010D01*
X42400552Y-13879629D01*
X42495790Y-13927248D01*
X42781505Y-13927248D01*
X42876743Y-13879629D01*
X42924362Y-13832010D01*
X42971981Y-13736772D01*
X42971981Y-13546295D01*
X42924362Y-13451057D01*
X42305314Y-14260581D02*
X42971981Y-14498676D01*
X42305314Y-14736772D02*
X42971981Y-14498676D01*
X43210076Y-14403438D01*
X43257695Y-14355819D01*
X43305314Y-14260581D01*
X42971981Y-15879629D02*
X41971981Y-15879629D01*
X42971981Y-16498676D02*
X42924362Y-16403438D01*
X42876743Y-16355819D01*
X42781505Y-16308200D01*
X42495790Y-16308200D01*
X42400552Y-16355819D01*
X42352933Y-16403438D01*
X42305314Y-16498676D01*
X42305314Y-16641534D01*
X42352933Y-16736772D01*
X42400552Y-16784391D01*
X42495790Y-16832010D01*
X42781505Y-16832010D01*
X42876743Y-16784391D01*
X42924362Y-16736772D01*
X42971981Y-16641534D01*
X42971981Y-16498676D01*
X41971981Y-17117724D02*
X41971981Y-17689153D01*
X42971981Y-17403438D02*
X41971981Y-17403438D01*
X42971981Y-18022486D02*
X41971981Y-18022486D01*
X42686267Y-18355820D01*
X41971981Y-18689153D01*
X42971981Y-18689153D01*
X42971981Y-19593915D02*
X42448171Y-19593915D01*
X42352933Y-19546296D01*
X42305314Y-19451058D01*
X42305314Y-19260581D01*
X42352933Y-19165343D01*
X42924362Y-19593915D02*
X42971981Y-19498677D01*
X42971981Y-19260581D01*
X42924362Y-19165343D01*
X42829124Y-19117724D01*
X42733886Y-19117724D01*
X42638648Y-19165343D01*
X42591029Y-19260581D01*
X42591029Y-19498677D01*
X42543410Y-19593915D01*
X42971981Y-20070105D02*
X41971981Y-20070105D01*
X42591029Y-20165343D02*
X42971981Y-20451058D01*
X42305314Y-20451058D02*
X42686267Y-20070105D01*
X42924362Y-21260582D02*
X42971981Y-21165344D01*
X42971981Y-20974867D01*
X42924362Y-20879629D01*
X42829124Y-20832010D01*
X42448171Y-20832010D01*
X42352933Y-20879629D01*
X42305314Y-20974867D01*
X42305314Y-21165344D01*
X42352933Y-21260582D01*
X42448171Y-21308201D01*
X42543410Y-21308201D01*
X42638648Y-20832010D01*
X42971981Y-21736772D02*
X42305314Y-21736772D01*
X42495790Y-21736772D02*
X42400552Y-21784391D01*
X42352933Y-21832010D01*
X42305314Y-21927248D01*
X42305314Y-22022487D01*
X41971981Y-22212963D02*
X42971981Y-22546296D01*
X41971981Y-22879630D01*
X42305314Y-23212963D02*
X42971981Y-23212963D01*
X42400552Y-23212963D02*
X42352933Y-23260582D01*
X42305314Y-23355820D01*
X42305314Y-23498678D01*
X42352933Y-23593916D01*
X42448171Y-23641535D01*
X42971981Y-23641535D01*
X15883000Y-19764620D02*
X15835381Y-19669382D01*
X15835381Y-19526525D01*
X15883000Y-19383667D01*
X15978238Y-19288429D01*
X16073476Y-19240810D01*
X16263952Y-19193191D01*
X16406810Y-19193191D01*
X16597286Y-19240810D01*
X16692524Y-19288429D01*
X16787762Y-19383667D01*
X16835381Y-19526525D01*
X16835381Y-19621763D01*
X16787762Y-19764620D01*
X16740143Y-19812239D01*
X16406810Y-19812239D01*
X16406810Y-19621763D01*
X16835381Y-20240810D02*
X15835381Y-20240810D01*
X15835381Y-20621763D01*
X15883000Y-20717001D01*
X15930619Y-20764620D01*
X16025857Y-20812239D01*
X16168714Y-20812239D01*
X16263952Y-20764620D01*
X16311571Y-20717001D01*
X16359190Y-20621763D01*
X16359190Y-20240810D01*
X16835381Y-21240810D02*
X15835381Y-21240810D01*
X15835381Y-21907476D02*
X15835381Y-22097953D01*
X15883000Y-22193191D01*
X15978238Y-22288429D01*
X16168714Y-22336048D01*
X16502048Y-22336048D01*
X16692524Y-22288429D01*
X16787762Y-22193191D01*
X16835381Y-22097953D01*
X16835381Y-21907476D01*
X16787762Y-21812238D01*
X16692524Y-21717000D01*
X16502048Y-21669381D01*
X16168714Y-21669381D01*
X15978238Y-21717000D01*
X15883000Y-21812238D01*
X15835381Y-21907476D01*
X16835381Y-23288429D02*
X16835381Y-22717000D01*
X16835381Y-23002714D02*
X15835381Y-23002714D01*
X15978238Y-22907476D01*
X16073476Y-22812238D01*
X16121095Y-22717000D01*
X16168714Y-24145572D02*
X16835381Y-24145572D01*
X15787762Y-23907476D02*
X16502048Y-23669381D01*
X16502048Y-24288429D01*
X18423000Y-19891620D02*
X18375381Y-19796382D01*
X18375381Y-19653525D01*
X18423000Y-19510667D01*
X18518238Y-19415429D01*
X18613476Y-19367810D01*
X18803952Y-19320191D01*
X18946810Y-19320191D01*
X19137286Y-19367810D01*
X19232524Y-19415429D01*
X19327762Y-19510667D01*
X19375381Y-19653525D01*
X19375381Y-19748763D01*
X19327762Y-19891620D01*
X19280143Y-19939239D01*
X18946810Y-19939239D01*
X18946810Y-19748763D01*
X19375381Y-20367810D02*
X18375381Y-20367810D01*
X18375381Y-20748763D01*
X18423000Y-20844001D01*
X18470619Y-20891620D01*
X18565857Y-20939239D01*
X18708714Y-20939239D01*
X18803952Y-20891620D01*
X18851571Y-20844001D01*
X18899190Y-20748763D01*
X18899190Y-20367810D01*
X19375381Y-21367810D02*
X18375381Y-21367810D01*
X18375381Y-22034476D02*
X18375381Y-22224953D01*
X18423000Y-22320191D01*
X18518238Y-22415429D01*
X18708714Y-22463048D01*
X19042048Y-22463048D01*
X19232524Y-22415429D01*
X19327762Y-22320191D01*
X19375381Y-22224953D01*
X19375381Y-22034476D01*
X19327762Y-21939238D01*
X19232524Y-21844000D01*
X19042048Y-21796381D01*
X18708714Y-21796381D01*
X18518238Y-21844000D01*
X18423000Y-21939238D01*
X18375381Y-22034476D01*
X19375381Y-23415429D02*
X19375381Y-22844000D01*
X19375381Y-23129714D02*
X18375381Y-23129714D01*
X18518238Y-23034476D01*
X18613476Y-22939238D01*
X18661095Y-22844000D01*
X18470619Y-23796381D02*
X18423000Y-23844000D01*
X18375381Y-23939238D01*
X18375381Y-24177334D01*
X18423000Y-24272572D01*
X18470619Y-24320191D01*
X18565857Y-24367810D01*
X18661095Y-24367810D01*
X18803952Y-24320191D01*
X19375381Y-23748762D01*
X19375381Y-24367810D01*
X21090000Y-19891620D02*
X21042381Y-19796382D01*
X21042381Y-19653525D01*
X21090000Y-19510667D01*
X21185238Y-19415429D01*
X21280476Y-19367810D01*
X21470952Y-19320191D01*
X21613810Y-19320191D01*
X21804286Y-19367810D01*
X21899524Y-19415429D01*
X21994762Y-19510667D01*
X22042381Y-19653525D01*
X22042381Y-19748763D01*
X21994762Y-19891620D01*
X21947143Y-19939239D01*
X21613810Y-19939239D01*
X21613810Y-19748763D01*
X22042381Y-20367810D02*
X21042381Y-20367810D01*
X21042381Y-20748763D01*
X21090000Y-20844001D01*
X21137619Y-20891620D01*
X21232857Y-20939239D01*
X21375714Y-20939239D01*
X21470952Y-20891620D01*
X21518571Y-20844001D01*
X21566190Y-20748763D01*
X21566190Y-20367810D01*
X22042381Y-21367810D02*
X21042381Y-21367810D01*
X21042381Y-22034476D02*
X21042381Y-22224953D01*
X21090000Y-22320191D01*
X21185238Y-22415429D01*
X21375714Y-22463048D01*
X21709048Y-22463048D01*
X21899524Y-22415429D01*
X21994762Y-22320191D01*
X22042381Y-22224953D01*
X22042381Y-22034476D01*
X21994762Y-21939238D01*
X21899524Y-21844000D01*
X21709048Y-21796381D01*
X21375714Y-21796381D01*
X21185238Y-21844000D01*
X21090000Y-21939238D01*
X21042381Y-22034476D01*
X22042381Y-23415429D02*
X22042381Y-22844000D01*
X22042381Y-23129714D02*
X21042381Y-23129714D01*
X21185238Y-23034476D01*
X21280476Y-22939238D01*
X21328095Y-22844000D01*
X21042381Y-23748762D02*
X21042381Y-24367810D01*
X21423333Y-24034476D01*
X21423333Y-24177334D01*
X21470952Y-24272572D01*
X21518571Y-24320191D01*
X21613810Y-24367810D01*
X21851905Y-24367810D01*
X21947143Y-24320191D01*
X21994762Y-24272572D01*
X22042381Y-24177334D01*
X22042381Y-23891619D01*
X21994762Y-23796381D01*
X21947143Y-23748762D01*
X23630000Y-19891620D02*
X23582381Y-19796382D01*
X23582381Y-19653525D01*
X23630000Y-19510667D01*
X23725238Y-19415429D01*
X23820476Y-19367810D01*
X24010952Y-19320191D01*
X24153810Y-19320191D01*
X24344286Y-19367810D01*
X24439524Y-19415429D01*
X24534762Y-19510667D01*
X24582381Y-19653525D01*
X24582381Y-19748763D01*
X24534762Y-19891620D01*
X24487143Y-19939239D01*
X24153810Y-19939239D01*
X24153810Y-19748763D01*
X24582381Y-20367810D02*
X23582381Y-20367810D01*
X23582381Y-20748763D01*
X23630000Y-20844001D01*
X23677619Y-20891620D01*
X23772857Y-20939239D01*
X23915714Y-20939239D01*
X24010952Y-20891620D01*
X24058571Y-20844001D01*
X24106190Y-20748763D01*
X24106190Y-20367810D01*
X24582381Y-21367810D02*
X23582381Y-21367810D01*
X23582381Y-22034476D02*
X23582381Y-22224953D01*
X23630000Y-22320191D01*
X23725238Y-22415429D01*
X23915714Y-22463048D01*
X24249048Y-22463048D01*
X24439524Y-22415429D01*
X24534762Y-22320191D01*
X24582381Y-22224953D01*
X24582381Y-22034476D01*
X24534762Y-21939238D01*
X24439524Y-21844000D01*
X24249048Y-21796381D01*
X23915714Y-21796381D01*
X23725238Y-21844000D01*
X23630000Y-21939238D01*
X23582381Y-22034476D01*
X24582381Y-23415429D02*
X24582381Y-22844000D01*
X24582381Y-23129714D02*
X23582381Y-23129714D01*
X23725238Y-23034476D01*
X23820476Y-22939238D01*
X23868095Y-22844000D01*
X23582381Y-24320191D02*
X23582381Y-23844000D01*
X24058571Y-23796381D01*
X24010952Y-23844000D01*
X23963333Y-23939238D01*
X23963333Y-24177334D01*
X24010952Y-24272572D01*
X24058571Y-24320191D01*
X24153810Y-24367810D01*
X24391905Y-24367810D01*
X24487143Y-24320191D01*
X24534762Y-24272572D01*
X24582381Y-24177334D01*
X24582381Y-23939238D01*
X24534762Y-23844000D01*
X24487143Y-23796381D01*
X26995381Y-22320334D02*
X26519190Y-21987000D01*
X26995381Y-21748905D02*
X25995381Y-21748905D01*
X25995381Y-22129858D01*
X26043000Y-22225096D01*
X26090619Y-22272715D01*
X26185857Y-22320334D01*
X26328714Y-22320334D01*
X26423952Y-22272715D01*
X26471571Y-22225096D01*
X26519190Y-22129858D01*
X26519190Y-21748905D01*
X25995381Y-22653667D02*
X26995381Y-23320334D01*
X25995381Y-23320334D02*
X26995381Y-22653667D01*
X26995381Y-23701286D02*
X25995381Y-23701286D01*
X25995381Y-23939381D01*
X26043000Y-24082239D01*
X26138238Y-24177477D01*
X26233476Y-24225096D01*
X26423952Y-24272715D01*
X26566810Y-24272715D01*
X26757286Y-24225096D01*
X26852524Y-24177477D01*
X26947762Y-24082239D01*
X26995381Y-23939381D01*
X26995381Y-23701286D01*
X28535381Y-21852095D02*
X28535381Y-22423524D01*
X29535381Y-22137809D02*
X28535381Y-22137809D01*
X28535381Y-22661619D02*
X29535381Y-23328286D01*
X28535381Y-23328286D02*
X29535381Y-22661619D01*
X29535381Y-23709238D02*
X28535381Y-23709238D01*
X28535381Y-23947333D01*
X28583000Y-24090191D01*
X28678238Y-24185429D01*
X28773476Y-24233048D01*
X28963952Y-24280667D01*
X29106810Y-24280667D01*
X29297286Y-24233048D01*
X29392524Y-24185429D01*
X29487762Y-24090191D01*
X29535381Y-23947333D01*
X29535381Y-23709238D01*
X31123000Y-20621810D02*
X31075381Y-20526572D01*
X31075381Y-20383715D01*
X31123000Y-20240857D01*
X31218238Y-20145619D01*
X31313476Y-20098000D01*
X31503952Y-20050381D01*
X31646810Y-20050381D01*
X31837286Y-20098000D01*
X31932524Y-20145619D01*
X32027762Y-20240857D01*
X32075381Y-20383715D01*
X32075381Y-20478953D01*
X32027762Y-20621810D01*
X31980143Y-20669429D01*
X31646810Y-20669429D01*
X31646810Y-20478953D01*
X32075381Y-21098000D02*
X31075381Y-21098000D01*
X31075381Y-21478953D01*
X31123000Y-21574191D01*
X31170619Y-21621810D01*
X31265857Y-21669429D01*
X31408714Y-21669429D01*
X31503952Y-21621810D01*
X31551571Y-21574191D01*
X31599190Y-21478953D01*
X31599190Y-21098000D01*
X32075381Y-22098000D02*
X31075381Y-22098000D01*
X31075381Y-22764666D02*
X31075381Y-22955143D01*
X31123000Y-23050381D01*
X31218238Y-23145619D01*
X31408714Y-23193238D01*
X31742048Y-23193238D01*
X31932524Y-23145619D01*
X32027762Y-23050381D01*
X32075381Y-22955143D01*
X32075381Y-22764666D01*
X32027762Y-22669428D01*
X31932524Y-22574190D01*
X31742048Y-22526571D01*
X31408714Y-22526571D01*
X31218238Y-22574190D01*
X31123000Y-22669428D01*
X31075381Y-22764666D01*
X31408714Y-24050381D02*
X32075381Y-24050381D01*
X31027762Y-23812285D02*
X31742048Y-23574190D01*
X31742048Y-24193238D01*
X33663000Y-20875810D02*
X33615381Y-20780572D01*
X33615381Y-20637715D01*
X33663000Y-20494857D01*
X33758238Y-20399619D01*
X33853476Y-20352000D01*
X34043952Y-20304381D01*
X34186810Y-20304381D01*
X34377286Y-20352000D01*
X34472524Y-20399619D01*
X34567762Y-20494857D01*
X34615381Y-20637715D01*
X34615381Y-20732953D01*
X34567762Y-20875810D01*
X34520143Y-20923429D01*
X34186810Y-20923429D01*
X34186810Y-20732953D01*
X34615381Y-21352000D02*
X33615381Y-21352000D01*
X33615381Y-21732953D01*
X33663000Y-21828191D01*
X33710619Y-21875810D01*
X33805857Y-21923429D01*
X33948714Y-21923429D01*
X34043952Y-21875810D01*
X34091571Y-21828191D01*
X34139190Y-21732953D01*
X34139190Y-21352000D01*
X34615381Y-22352000D02*
X33615381Y-22352000D01*
X33615381Y-23018666D02*
X33615381Y-23209143D01*
X33663000Y-23304381D01*
X33758238Y-23399619D01*
X33948714Y-23447238D01*
X34282048Y-23447238D01*
X34472524Y-23399619D01*
X34567762Y-23304381D01*
X34615381Y-23209143D01*
X34615381Y-23018666D01*
X34567762Y-22923428D01*
X34472524Y-22828190D01*
X34282048Y-22780571D01*
X33948714Y-22780571D01*
X33758238Y-22828190D01*
X33663000Y-22923428D01*
X33615381Y-23018666D01*
X33615381Y-24352000D02*
X33615381Y-23875809D01*
X34091571Y-23828190D01*
X34043952Y-23875809D01*
X33996333Y-23971047D01*
X33996333Y-24209143D01*
X34043952Y-24304381D01*
X34091571Y-24352000D01*
X34186810Y-24399619D01*
X34424905Y-24399619D01*
X34520143Y-24352000D01*
X34567762Y-24304381D01*
X34615381Y-24209143D01*
X34615381Y-23971047D01*
X34567762Y-23875809D01*
X34520143Y-23828190D01*
X36203000Y-22225096D02*
X36155381Y-22129858D01*
X36155381Y-21987001D01*
X36203000Y-21844143D01*
X36298238Y-21748905D01*
X36393476Y-21701286D01*
X36583952Y-21653667D01*
X36726810Y-21653667D01*
X36917286Y-21701286D01*
X37012524Y-21748905D01*
X37107762Y-21844143D01*
X37155381Y-21987001D01*
X37155381Y-22082239D01*
X37107762Y-22225096D01*
X37060143Y-22272715D01*
X36726810Y-22272715D01*
X36726810Y-22082239D01*
X37155381Y-22701286D02*
X36155381Y-22701286D01*
X37155381Y-23272715D01*
X36155381Y-23272715D01*
X37155381Y-23748905D02*
X36155381Y-23748905D01*
X36155381Y-23987000D01*
X36203000Y-24129858D01*
X36298238Y-24225096D01*
X36393476Y-24272715D01*
X36583952Y-24320334D01*
X36726810Y-24320334D01*
X36917286Y-24272715D01*
X37012524Y-24225096D01*
X37107762Y-24129858D01*
X37155381Y-23987000D01*
X37155381Y-23748905D01*
X38822381Y-21875905D02*
X38822381Y-22494953D01*
X39203333Y-22161619D01*
X39203333Y-22304477D01*
X39250952Y-22399715D01*
X39298571Y-22447334D01*
X39393810Y-22494953D01*
X39631905Y-22494953D01*
X39727143Y-22447334D01*
X39774762Y-22399715D01*
X39822381Y-22304477D01*
X39822381Y-22018762D01*
X39774762Y-21923524D01*
X39727143Y-21875905D01*
X38822381Y-22780667D02*
X39822381Y-23114000D01*
X38822381Y-23447334D01*
X38822381Y-23685429D02*
X38822381Y-24304477D01*
X39203333Y-23971143D01*
X39203333Y-24114001D01*
X39250952Y-24209239D01*
X39298571Y-24256858D01*
X39393810Y-24304477D01*
X39631905Y-24304477D01*
X39727143Y-24256858D01*
X39774762Y-24209239D01*
X39822381Y-24114001D01*
X39822381Y-23828286D01*
X39774762Y-23733048D01*
X39727143Y-23685429D01*
X15883000Y-5842096D02*
X15835381Y-5746858D01*
X15835381Y-5604001D01*
X15883000Y-5461143D01*
X15978238Y-5365905D01*
X16073476Y-5318286D01*
X16263952Y-5270667D01*
X16406810Y-5270667D01*
X16597286Y-5318286D01*
X16692524Y-5365905D01*
X16787762Y-5461143D01*
X16835381Y-5604001D01*
X16835381Y-5699239D01*
X16787762Y-5842096D01*
X16740143Y-5889715D01*
X16406810Y-5889715D01*
X16406810Y-5699239D01*
X16835381Y-6318286D02*
X15835381Y-6318286D01*
X16835381Y-6889715D01*
X15835381Y-6889715D01*
X16835381Y-7365905D02*
X15835381Y-7365905D01*
X15835381Y-7604000D01*
X15883000Y-7746858D01*
X15978238Y-7842096D01*
X16073476Y-7889715D01*
X16263952Y-7937334D01*
X16406810Y-7937334D01*
X16597286Y-7889715D01*
X16692524Y-7842096D01*
X16787762Y-7746858D01*
X16835381Y-7604000D01*
X16835381Y-7365905D01*
X18550000Y-5969096D02*
X18502381Y-5873858D01*
X18502381Y-5731001D01*
X18550000Y-5588143D01*
X18645238Y-5492905D01*
X18740476Y-5445286D01*
X18930952Y-5397667D01*
X19073810Y-5397667D01*
X19264286Y-5445286D01*
X19359524Y-5492905D01*
X19454762Y-5588143D01*
X19502381Y-5731001D01*
X19502381Y-5826239D01*
X19454762Y-5969096D01*
X19407143Y-6016715D01*
X19073810Y-6016715D01*
X19073810Y-5826239D01*
X19502381Y-6445286D02*
X18502381Y-6445286D01*
X19502381Y-7016715D01*
X18502381Y-7016715D01*
X19502381Y-7492905D02*
X18502381Y-7492905D01*
X18502381Y-7731000D01*
X18550000Y-7873858D01*
X18645238Y-7969096D01*
X18740476Y-8016715D01*
X18930952Y-8064334D01*
X19073810Y-8064334D01*
X19264286Y-8016715D01*
X19359524Y-7969096D01*
X19454762Y-7873858D01*
X19502381Y-7731000D01*
X19502381Y-7492905D01*
X21042381Y-5270667D02*
X22042381Y-5604000D01*
X21042381Y-5937334D01*
X21947143Y-6842096D02*
X21994762Y-6794477D01*
X22042381Y-6651620D01*
X22042381Y-6556382D01*
X21994762Y-6413524D01*
X21899524Y-6318286D01*
X21804286Y-6270667D01*
X21613810Y-6223048D01*
X21470952Y-6223048D01*
X21280476Y-6270667D01*
X21185238Y-6318286D01*
X21090000Y-6413524D01*
X21042381Y-6556382D01*
X21042381Y-6651620D01*
X21090000Y-6794477D01*
X21137619Y-6842096D01*
X21947143Y-7842096D02*
X21994762Y-7794477D01*
X22042381Y-7651620D01*
X22042381Y-7556382D01*
X21994762Y-7413524D01*
X21899524Y-7318286D01*
X21804286Y-7270667D01*
X21613810Y-7223048D01*
X21470952Y-7223048D01*
X21280476Y-7270667D01*
X21185238Y-7318286D01*
X21090000Y-7413524D01*
X21042381Y-7556382D01*
X21042381Y-7651620D01*
X21090000Y-7794477D01*
X21137619Y-7842096D01*
X23582381Y-5365905D02*
X23582381Y-5984953D01*
X23963333Y-5651619D01*
X23963333Y-5794477D01*
X24010952Y-5889715D01*
X24058571Y-5937334D01*
X24153810Y-5984953D01*
X24391905Y-5984953D01*
X24487143Y-5937334D01*
X24534762Y-5889715D01*
X24582381Y-5794477D01*
X24582381Y-5508762D01*
X24534762Y-5413524D01*
X24487143Y-5365905D01*
X23582381Y-6270667D02*
X24582381Y-6604000D01*
X23582381Y-6937334D01*
X23582381Y-7175429D02*
X23582381Y-7794477D01*
X23963333Y-7461143D01*
X23963333Y-7604001D01*
X24010952Y-7699239D01*
X24058571Y-7746858D01*
X24153810Y-7794477D01*
X24391905Y-7794477D01*
X24487143Y-7746858D01*
X24534762Y-7699239D01*
X24582381Y-7604001D01*
X24582381Y-7318286D01*
X24534762Y-7223048D01*
X24487143Y-7175429D01*
X26170000Y-5889810D02*
X26122381Y-5794572D01*
X26122381Y-5651715D01*
X26170000Y-5508857D01*
X26265238Y-5413619D01*
X26360476Y-5366000D01*
X26550952Y-5318381D01*
X26693810Y-5318381D01*
X26884286Y-5366000D01*
X26979524Y-5413619D01*
X27074762Y-5508857D01*
X27122381Y-5651715D01*
X27122381Y-5746953D01*
X27074762Y-5889810D01*
X27027143Y-5937429D01*
X26693810Y-5937429D01*
X26693810Y-5746953D01*
X27122381Y-6366000D02*
X26122381Y-6366000D01*
X26122381Y-6746953D01*
X26170000Y-6842191D01*
X26217619Y-6889810D01*
X26312857Y-6937429D01*
X26455714Y-6937429D01*
X26550952Y-6889810D01*
X26598571Y-6842191D01*
X26646190Y-6746953D01*
X26646190Y-6366000D01*
X27122381Y-7366000D02*
X26122381Y-7366000D01*
X26122381Y-8032666D02*
X26122381Y-8223143D01*
X26170000Y-8318381D01*
X26265238Y-8413619D01*
X26455714Y-8461238D01*
X26789048Y-8461238D01*
X26979524Y-8413619D01*
X27074762Y-8318381D01*
X27122381Y-8223143D01*
X27122381Y-8032666D01*
X27074762Y-7937428D01*
X26979524Y-7842190D01*
X26789048Y-7794571D01*
X26455714Y-7794571D01*
X26265238Y-7842190D01*
X26170000Y-7937428D01*
X26122381Y-8032666D01*
X26122381Y-9080285D02*
X26122381Y-9175524D01*
X26170000Y-9270762D01*
X26217619Y-9318381D01*
X26312857Y-9366000D01*
X26503333Y-9413619D01*
X26741429Y-9413619D01*
X26931905Y-9366000D01*
X27027143Y-9318381D01*
X27074762Y-9270762D01*
X27122381Y-9175524D01*
X27122381Y-9080285D01*
X27074762Y-8985047D01*
X27027143Y-8937428D01*
X26931905Y-8889809D01*
X26741429Y-8842190D01*
X26503333Y-8842190D01*
X26312857Y-8889809D01*
X26217619Y-8937428D01*
X26170000Y-8985047D01*
X26122381Y-9080285D01*
X28583000Y-5921620D02*
X28535381Y-5826382D01*
X28535381Y-5683525D01*
X28583000Y-5540667D01*
X28678238Y-5445429D01*
X28773476Y-5397810D01*
X28963952Y-5350191D01*
X29106810Y-5350191D01*
X29297286Y-5397810D01*
X29392524Y-5445429D01*
X29487762Y-5540667D01*
X29535381Y-5683525D01*
X29535381Y-5778763D01*
X29487762Y-5921620D01*
X29440143Y-5969239D01*
X29106810Y-5969239D01*
X29106810Y-5778763D01*
X29535381Y-6397810D02*
X28535381Y-6397810D01*
X28535381Y-6778763D01*
X28583000Y-6874001D01*
X28630619Y-6921620D01*
X28725857Y-6969239D01*
X28868714Y-6969239D01*
X28963952Y-6921620D01*
X29011571Y-6874001D01*
X29059190Y-6778763D01*
X29059190Y-6397810D01*
X29535381Y-7397810D02*
X28535381Y-7397810D01*
X28535381Y-8064476D02*
X28535381Y-8254953D01*
X28583000Y-8350191D01*
X28678238Y-8445429D01*
X28868714Y-8493048D01*
X29202048Y-8493048D01*
X29392524Y-8445429D01*
X29487762Y-8350191D01*
X29535381Y-8254953D01*
X29535381Y-8064476D01*
X29487762Y-7969238D01*
X29392524Y-7874000D01*
X29202048Y-7826381D01*
X28868714Y-7826381D01*
X28678238Y-7874000D01*
X28583000Y-7969238D01*
X28535381Y-8064476D01*
X28535381Y-9112095D02*
X28535381Y-9207334D01*
X28583000Y-9302572D01*
X28630619Y-9350191D01*
X28725857Y-9397810D01*
X28916333Y-9445429D01*
X29154429Y-9445429D01*
X29344905Y-9397810D01*
X29440143Y-9350191D01*
X29487762Y-9302572D01*
X29535381Y-9207334D01*
X29535381Y-9112095D01*
X29487762Y-9016857D01*
X29440143Y-8969238D01*
X29344905Y-8921619D01*
X29154429Y-8874000D01*
X28916333Y-8874000D01*
X28725857Y-8921619D01*
X28630619Y-8969238D01*
X28583000Y-9016857D01*
X28535381Y-9112095D01*
X28630619Y-9826381D02*
X28583000Y-9874000D01*
X28535381Y-9969238D01*
X28535381Y-10207334D01*
X28583000Y-10302572D01*
X28630619Y-10350191D01*
X28725857Y-10397810D01*
X28821095Y-10397810D01*
X28963952Y-10350191D01*
X29535381Y-9778762D01*
X29535381Y-10397810D01*
X31123000Y-5921620D02*
X31075381Y-5826382D01*
X31075381Y-5683525D01*
X31123000Y-5540667D01*
X31218238Y-5445429D01*
X31313476Y-5397810D01*
X31503952Y-5350191D01*
X31646810Y-5350191D01*
X31837286Y-5397810D01*
X31932524Y-5445429D01*
X32027762Y-5540667D01*
X32075381Y-5683525D01*
X32075381Y-5778763D01*
X32027762Y-5921620D01*
X31980143Y-5969239D01*
X31646810Y-5969239D01*
X31646810Y-5778763D01*
X32075381Y-6397810D02*
X31075381Y-6397810D01*
X31075381Y-6778763D01*
X31123000Y-6874001D01*
X31170619Y-6921620D01*
X31265857Y-6969239D01*
X31408714Y-6969239D01*
X31503952Y-6921620D01*
X31551571Y-6874001D01*
X31599190Y-6778763D01*
X31599190Y-6397810D01*
X32075381Y-7397810D02*
X31075381Y-7397810D01*
X31075381Y-8064476D02*
X31075381Y-8254953D01*
X31123000Y-8350191D01*
X31218238Y-8445429D01*
X31408714Y-8493048D01*
X31742048Y-8493048D01*
X31932524Y-8445429D01*
X32027762Y-8350191D01*
X32075381Y-8254953D01*
X32075381Y-8064476D01*
X32027762Y-7969238D01*
X31932524Y-7874000D01*
X31742048Y-7826381D01*
X31408714Y-7826381D01*
X31218238Y-7874000D01*
X31123000Y-7969238D01*
X31075381Y-8064476D01*
X32075381Y-9445429D02*
X32075381Y-8874000D01*
X32075381Y-9159714D02*
X31075381Y-9159714D01*
X31218238Y-9064476D01*
X31313476Y-8969238D01*
X31361095Y-8874000D01*
X31075381Y-10302572D02*
X31075381Y-10112095D01*
X31123000Y-10016857D01*
X31170619Y-9969238D01*
X31313476Y-9874000D01*
X31503952Y-9826381D01*
X31884905Y-9826381D01*
X31980143Y-9874000D01*
X32027762Y-9921619D01*
X32075381Y-10016857D01*
X32075381Y-10207334D01*
X32027762Y-10302572D01*
X31980143Y-10350191D01*
X31884905Y-10397810D01*
X31646810Y-10397810D01*
X31551571Y-10350191D01*
X31503952Y-10302572D01*
X31456333Y-10207334D01*
X31456333Y-10016857D01*
X31503952Y-9921619D01*
X31551571Y-9874000D01*
X31646810Y-9826381D01*
X34091571Y-5350190D02*
X34091571Y-5683524D01*
X34615381Y-5826381D02*
X34615381Y-5350190D01*
X33615381Y-5350190D01*
X33615381Y-5826381D01*
X34615381Y-6254952D02*
X33615381Y-6254952D01*
X34615381Y-6826381D01*
X33615381Y-6826381D01*
X34329667Y-7254952D02*
X34329667Y-7731143D01*
X34615381Y-7159714D02*
X33615381Y-7493047D01*
X34615381Y-7826381D01*
X34091571Y-8493048D02*
X34139190Y-8635905D01*
X34186810Y-8683524D01*
X34282048Y-8731143D01*
X34424905Y-8731143D01*
X34520143Y-8683524D01*
X34567762Y-8635905D01*
X34615381Y-8540667D01*
X34615381Y-8159714D01*
X33615381Y-8159714D01*
X33615381Y-8493048D01*
X33663000Y-8588286D01*
X33710619Y-8635905D01*
X33805857Y-8683524D01*
X33901095Y-8683524D01*
X33996333Y-8635905D01*
X34043952Y-8588286D01*
X34091571Y-8493048D01*
X34091571Y-8159714D01*
X34615381Y-9635905D02*
X34615381Y-9159714D01*
X33615381Y-9159714D01*
X34091571Y-9969238D02*
X34091571Y-10302572D01*
X34615381Y-10445429D02*
X34615381Y-9969238D01*
X33615381Y-9969238D01*
X33615381Y-10445429D01*
X36996667Y-5366048D02*
X36996667Y-5842239D01*
X37282381Y-5270810D02*
X36282381Y-5604143D01*
X37282381Y-5937477D01*
X37282381Y-6270810D02*
X36282381Y-6270810D01*
X36282381Y-6508905D01*
X36330000Y-6651763D01*
X36425238Y-6747001D01*
X36520476Y-6794620D01*
X36710952Y-6842239D01*
X36853810Y-6842239D01*
X37044286Y-6794620D01*
X37139524Y-6747001D01*
X37234762Y-6651763D01*
X37282381Y-6508905D01*
X37282381Y-6270810D01*
X37187143Y-7842239D02*
X37234762Y-7794620D01*
X37282381Y-7651763D01*
X37282381Y-7556525D01*
X37234762Y-7413667D01*
X37139524Y-7318429D01*
X37044286Y-7270810D01*
X36853810Y-7223191D01*
X36710952Y-7223191D01*
X36520476Y-7270810D01*
X36425238Y-7318429D01*
X36330000Y-7413667D01*
X36282381Y-7556525D01*
X36282381Y-7651763D01*
X36330000Y-7794620D01*
X36377619Y-7842239D01*
X37377619Y-8032715D02*
X37377619Y-8794620D01*
X37282381Y-9032715D02*
X36282381Y-9032715D01*
X37282381Y-9508905D02*
X36282381Y-9508905D01*
X37282381Y-10080334D01*
X36282381Y-10080334D01*
X39822381Y-5913619D02*
X39346190Y-5580285D01*
X39822381Y-5342190D02*
X38822381Y-5342190D01*
X38822381Y-5723143D01*
X38870000Y-5818381D01*
X38917619Y-5866000D01*
X39012857Y-5913619D01*
X39155714Y-5913619D01*
X39250952Y-5866000D01*
X39298571Y-5818381D01*
X39346190Y-5723143D01*
X39346190Y-5342190D01*
X39298571Y-6342190D02*
X39298571Y-6675524D01*
X39822381Y-6818381D02*
X39822381Y-6342190D01*
X38822381Y-6342190D01*
X38822381Y-6818381D01*
X39774762Y-7199333D02*
X39822381Y-7342190D01*
X39822381Y-7580286D01*
X39774762Y-7675524D01*
X39727143Y-7723143D01*
X39631905Y-7770762D01*
X39536667Y-7770762D01*
X39441429Y-7723143D01*
X39393810Y-7675524D01*
X39346190Y-7580286D01*
X39298571Y-7389809D01*
X39250952Y-7294571D01*
X39203333Y-7246952D01*
X39108095Y-7199333D01*
X39012857Y-7199333D01*
X38917619Y-7246952D01*
X38870000Y-7294571D01*
X38822381Y-7389809D01*
X38822381Y-7627905D01*
X38870000Y-7770762D01*
X39298571Y-8199333D02*
X39298571Y-8532667D01*
X39822381Y-8675524D02*
X39822381Y-8199333D01*
X38822381Y-8199333D01*
X38822381Y-8675524D01*
X38822381Y-8961238D02*
X38822381Y-9532667D01*
X39822381Y-9246952D02*
X38822381Y-9246952D01*
D12*
G36*
X34906226Y-12312374D02*
X20770574Y-12312374D01*
X20770574Y-12621591D01*
X27462921Y-12621591D01*
X27692074Y-12622076D01*
X27783041Y-12622837D01*
X27853941Y-12624767D01*
X27906768Y-12627979D01*
X27943517Y-12632585D01*
X27962997Y-12637463D01*
X28031852Y-12671161D01*
X28081902Y-12716375D01*
X28113083Y-12773021D01*
X28125330Y-12841014D01*
X28125530Y-12851824D01*
X28122535Y-12893360D01*
X28114959Y-12932097D01*
X28110466Y-12945483D01*
X28091213Y-12976786D01*
X28062151Y-13009035D01*
X28030892Y-13034560D01*
X28012742Y-13044000D01*
X28009871Y-13053749D01*
X28025768Y-13074215D01*
X28033352Y-13081618D01*
X28066767Y-13126636D01*
X28085674Y-13181334D01*
X28089590Y-13239477D01*
X28078033Y-13294824D01*
X28053207Y-13338046D01*
X28033057Y-13360071D01*
X28012123Y-13377205D01*
X27987344Y-13390118D01*
X27955654Y-13399482D01*
X27913992Y-13405970D01*
X27897782Y-13407239D01*
X28158660Y-13407239D01*
X28164084Y-13395241D01*
X28179326Y-13367016D01*
X28202844Y-13325277D01*
X28233095Y-13272737D01*
X28268536Y-13212110D01*
X28296704Y-13164465D01*
X28434747Y-12932034D01*
X28434747Y-12621591D01*
X28622487Y-12621591D01*
X28622487Y-12886635D01*
X30741834Y-12886635D01*
X30749401Y-12845222D01*
X30773350Y-12767864D01*
X30814098Y-12704744D01*
X30871237Y-12656248D01*
X30944363Y-12622765D01*
X30996079Y-12609981D01*
X31053441Y-12604617D01*
X31119777Y-12606115D01*
X31184994Y-12613759D01*
X31238996Y-12626837D01*
X31240205Y-12627259D01*
X31242716Y-12628507D01*
X31427530Y-12628507D01*
X31437698Y-12625281D01*
X31464766Y-12623523D01*
X31503579Y-12623494D01*
X31517993Y-12623905D01*
X31608455Y-12627113D01*
X31664129Y-12798895D01*
X31807451Y-12795830D01*
X31950772Y-12792765D01*
X32006280Y-12621591D01*
X32097905Y-12621591D01*
X32139764Y-12622598D01*
X32171584Y-12625279D01*
X32188235Y-12629128D01*
X32189530Y-12630644D01*
X32185854Y-12642192D01*
X32175518Y-12671618D01*
X32159559Y-12716100D01*
X32139015Y-12772815D01*
X32114924Y-12838939D01*
X32088322Y-12911649D01*
X32060249Y-12988122D01*
X32031740Y-13065534D01*
X32003834Y-13141063D01*
X31977569Y-13211886D01*
X31953982Y-13275178D01*
X31934110Y-13328118D01*
X31918991Y-13367881D01*
X31911795Y-13386352D01*
X31904813Y-13401339D01*
X31895167Y-13410351D01*
X31877765Y-13414907D01*
X31847512Y-13416524D01*
X31809894Y-13416722D01*
X31720068Y-13416722D01*
X31573799Y-13026518D01*
X31540925Y-12938620D01*
X31510630Y-12857232D01*
X31483765Y-12784667D01*
X31461178Y-12723238D01*
X31443720Y-12675256D01*
X31432240Y-12643035D01*
X31427589Y-12628886D01*
X31427530Y-12628507D01*
X31242716Y-12628507D01*
X31309027Y-12661461D01*
X31360721Y-12708872D01*
X31394391Y-12768298D01*
X31409139Y-12838541D01*
X31409736Y-12853504D01*
X31401121Y-12922609D01*
X31373644Y-12981016D01*
X31327962Y-13027395D01*
X31321363Y-13032037D01*
X31292922Y-13046884D01*
X31248416Y-13064897D01*
X31193248Y-13084057D01*
X31134579Y-13101850D01*
X31079909Y-13118122D01*
X31031800Y-13134052D01*
X30994892Y-13147991D01*
X30973823Y-13158288D01*
X30971987Y-13159702D01*
X30955714Y-13187733D01*
X30954963Y-13222125D01*
X30969407Y-13253849D01*
X30975622Y-13260558D01*
X31010609Y-13281050D01*
X31053432Y-13288779D01*
X31098976Y-13285191D01*
X31142123Y-13271732D01*
X31177759Y-13249850D01*
X31200767Y-13220990D01*
X31206660Y-13195236D01*
X31208657Y-13184525D01*
X31217597Y-13178104D01*
X31237903Y-13174898D01*
X31274000Y-13173833D01*
X31295008Y-13173765D01*
X31383356Y-13173765D01*
X31383252Y-13209656D01*
X31373386Y-13258582D01*
X31346802Y-13308819D01*
X31307620Y-13354358D01*
X31260247Y-13389036D01*
X31226948Y-13405459D01*
X31195315Y-13415847D01*
X31157714Y-13421947D01*
X31106510Y-13425510D01*
X31099713Y-13425822D01*
X31021087Y-13425473D01*
X30957560Y-13415699D01*
X30903676Y-13395163D01*
X30859603Y-13366897D01*
X30816527Y-13321166D01*
X30788498Y-13264277D01*
X30776699Y-13201806D01*
X30782314Y-13139332D01*
X30801126Y-13091330D01*
X30833666Y-13050031D01*
X30881989Y-13014823D01*
X30948179Y-12984500D01*
X31029965Y-12958999D01*
X31102360Y-12938626D01*
X31155786Y-12920430D01*
X31193086Y-12903135D01*
X31217107Y-12885465D01*
X31228882Y-12869819D01*
X31237979Y-12834901D01*
X31228608Y-12803879D01*
X31204240Y-12778107D01*
X31168346Y-12758938D01*
X31124399Y-12747725D01*
X31075869Y-12745822D01*
X31026229Y-12754581D01*
X30981964Y-12773567D01*
X30947739Y-12806095D01*
X30930914Y-12840222D01*
X30914689Y-12886635D01*
X30741834Y-12886635D01*
X28622487Y-12886635D01*
X28622487Y-12932728D01*
X28766048Y-13171964D01*
X28909610Y-13411200D01*
X28813177Y-13414428D01*
X28777377Y-13415984D01*
X28750545Y-13416274D01*
X28729804Y-13412869D01*
X28712279Y-13403342D01*
X28695094Y-13385267D01*
X28675372Y-13356215D01*
X28650239Y-13313760D01*
X28616817Y-13255474D01*
X28609219Y-13242283D01*
X28530857Y-13106496D01*
X28351381Y-13411200D01*
X28255021Y-13414391D01*
X28210406Y-13414765D01*
X28177272Y-13412874D01*
X28160085Y-13409047D01*
X28158660Y-13407239D01*
X27897782Y-13407239D01*
X27859293Y-13410252D01*
X27788495Y-13413000D01*
X27703117Y-13414810D01*
X27462921Y-13418885D01*
X27462921Y-12621591D01*
X20770574Y-12621591D01*
X20770574Y-15432156D01*
X20886530Y-15432156D01*
X20886530Y-13797722D01*
X21398730Y-13786678D01*
X21460074Y-13688946D01*
X21550328Y-13558195D01*
X21655531Y-13427963D01*
X21770071Y-13304569D01*
X21888337Y-13194329D01*
X21930661Y-13159145D01*
X22011820Y-13098566D01*
X22106005Y-13035788D01*
X22205331Y-12975714D01*
X22301910Y-12923245D01*
X22341188Y-12903980D01*
X22506981Y-12833852D01*
X22675150Y-12779384D01*
X22850603Y-12739313D01*
X23038248Y-12712374D01*
X23111791Y-12705478D01*
X23159877Y-12703658D01*
X23223770Y-12704214D01*
X23297351Y-12706830D01*
X23374506Y-12711194D01*
X23449118Y-12716989D01*
X23515069Y-12723903D01*
X23542487Y-12727621D01*
X23748645Y-12769531D01*
X23948496Y-12832125D01*
X24140672Y-12914559D01*
X24323801Y-13015989D01*
X24496515Y-13135570D01*
X24657444Y-13272458D01*
X24805218Y-13425809D01*
X24929814Y-13582698D01*
X24963311Y-13630346D01*
X24994805Y-13677303D01*
X25020266Y-13717444D01*
X25033331Y-13740055D01*
X25060914Y-13792175D01*
X29925591Y-13794948D01*
X34790269Y-13797722D01*
X34793509Y-15382461D01*
X34793841Y-15568860D01*
X34794065Y-15749860D01*
X34794186Y-15924163D01*
X34794206Y-16090471D01*
X34794128Y-16247487D01*
X34793956Y-16393914D01*
X34793692Y-16528452D01*
X34793340Y-16649806D01*
X34792902Y-16756676D01*
X34792381Y-16847765D01*
X34791781Y-16921776D01*
X34791105Y-16977411D01*
X34790355Y-17013372D01*
X34789655Y-17027571D01*
X34782142Y-17068532D01*
X34767799Y-17098681D01*
X34741253Y-17129248D01*
X34740779Y-17129723D01*
X34698998Y-17171504D01*
X27844164Y-17171504D01*
X27376796Y-17171501D01*
X26931007Y-17171492D01*
X26506288Y-17171474D01*
X26102131Y-17171448D01*
X25718028Y-17171410D01*
X25353470Y-17171361D01*
X25007948Y-17171298D01*
X24680955Y-17171220D01*
X24371982Y-17171127D01*
X24080521Y-17171016D01*
X23806063Y-17170887D01*
X23548100Y-17170738D01*
X23306124Y-17170567D01*
X23079626Y-17170374D01*
X22868098Y-17170156D01*
X22671031Y-17169914D01*
X22487918Y-17169645D01*
X22318249Y-17169347D01*
X22161517Y-17169021D01*
X22017213Y-17168664D01*
X21884829Y-17168274D01*
X21763856Y-17167852D01*
X21653786Y-17167395D01*
X21554111Y-17166902D01*
X21464322Y-17166371D01*
X21383911Y-17165802D01*
X21312369Y-17165193D01*
X21249189Y-17164543D01*
X21193862Y-17163849D01*
X21145879Y-17163112D01*
X21104732Y-17162330D01*
X21069913Y-17161501D01*
X21040913Y-17160624D01*
X21017225Y-17159698D01*
X20998339Y-17158721D01*
X20983747Y-17157692D01*
X20972942Y-17156609D01*
X20965414Y-17155472D01*
X20960655Y-17154280D01*
X20958753Y-17153442D01*
X20931353Y-17130900D01*
X20907740Y-17101620D01*
X20907353Y-17100986D01*
X20904524Y-17095759D01*
X20901964Y-17089167D01*
X20899658Y-17080141D01*
X20897594Y-17067611D01*
X20895758Y-17050508D01*
X20894137Y-17027762D01*
X20892718Y-16998304D01*
X20891486Y-16961064D01*
X20890430Y-16914972D01*
X20889535Y-16858959D01*
X20888788Y-16791955D01*
X20888176Y-16712892D01*
X20887685Y-16620698D01*
X20887303Y-16514305D01*
X20887015Y-16392643D01*
X20886809Y-16254642D01*
X20886671Y-16099234D01*
X20886587Y-15925348D01*
X20886545Y-15731915D01*
X20886531Y-15517865D01*
X20886530Y-15432156D01*
X20770574Y-15432156D01*
X20770574Y-17292982D01*
X34906226Y-17292982D01*
X34906226Y-12312374D01*
X34906226Y-12312374D01*
G37*
X34906226Y-12312374D02*
X20770574Y-12312374D01*
X20770574Y-12621591D01*
X27462921Y-12621591D01*
X27692074Y-12622076D01*
X27783041Y-12622837D01*
X27853941Y-12624767D01*
X27906768Y-12627979D01*
X27943517Y-12632585D01*
X27962997Y-12637463D01*
X28031852Y-12671161D01*
X28081902Y-12716375D01*
X28113083Y-12773021D01*
X28125330Y-12841014D01*
X28125530Y-12851824D01*
X28122535Y-12893360D01*
X28114959Y-12932097D01*
X28110466Y-12945483D01*
X28091213Y-12976786D01*
X28062151Y-13009035D01*
X28030892Y-13034560D01*
X28012742Y-13044000D01*
X28009871Y-13053749D01*
X28025768Y-13074215D01*
X28033352Y-13081618D01*
X28066767Y-13126636D01*
X28085674Y-13181334D01*
X28089590Y-13239477D01*
X28078033Y-13294824D01*
X28053207Y-13338046D01*
X28033057Y-13360071D01*
X28012123Y-13377205D01*
X27987344Y-13390118D01*
X27955654Y-13399482D01*
X27913992Y-13405970D01*
X27897782Y-13407239D01*
X28158660Y-13407239D01*
X28164084Y-13395241D01*
X28179326Y-13367016D01*
X28202844Y-13325277D01*
X28233095Y-13272737D01*
X28268536Y-13212110D01*
X28296704Y-13164465D01*
X28434747Y-12932034D01*
X28434747Y-12621591D01*
X28622487Y-12621591D01*
X28622487Y-12886635D01*
X30741834Y-12886635D01*
X30749401Y-12845222D01*
X30773350Y-12767864D01*
X30814098Y-12704744D01*
X30871237Y-12656248D01*
X30944363Y-12622765D01*
X30996079Y-12609981D01*
X31053441Y-12604617D01*
X31119777Y-12606115D01*
X31184994Y-12613759D01*
X31238996Y-12626837D01*
X31240205Y-12627259D01*
X31242716Y-12628507D01*
X31427530Y-12628507D01*
X31437698Y-12625281D01*
X31464766Y-12623523D01*
X31503579Y-12623494D01*
X31517993Y-12623905D01*
X31608455Y-12627113D01*
X31664129Y-12798895D01*
X31807451Y-12795830D01*
X31950772Y-12792765D01*
X32006280Y-12621591D01*
X32097905Y-12621591D01*
X32139764Y-12622598D01*
X32171584Y-12625279D01*
X32188235Y-12629128D01*
X32189530Y-12630644D01*
X32185854Y-12642192D01*
X32175518Y-12671618D01*
X32159559Y-12716100D01*
X32139015Y-12772815D01*
X32114924Y-12838939D01*
X32088322Y-12911649D01*
X32060249Y-12988122D01*
X32031740Y-13065534D01*
X32003834Y-13141063D01*
X31977569Y-13211886D01*
X31953982Y-13275178D01*
X31934110Y-13328118D01*
X31918991Y-13367881D01*
X31911795Y-13386352D01*
X31904813Y-13401339D01*
X31895167Y-13410351D01*
X31877765Y-13414907D01*
X31847512Y-13416524D01*
X31809894Y-13416722D01*
X31720068Y-13416722D01*
X31573799Y-13026518D01*
X31540925Y-12938620D01*
X31510630Y-12857232D01*
X31483765Y-12784667D01*
X31461178Y-12723238D01*
X31443720Y-12675256D01*
X31432240Y-12643035D01*
X31427589Y-12628886D01*
X31427530Y-12628507D01*
X31242716Y-12628507D01*
X31309027Y-12661461D01*
X31360721Y-12708872D01*
X31394391Y-12768298D01*
X31409139Y-12838541D01*
X31409736Y-12853504D01*
X31401121Y-12922609D01*
X31373644Y-12981016D01*
X31327962Y-13027395D01*
X31321363Y-13032037D01*
X31292922Y-13046884D01*
X31248416Y-13064897D01*
X31193248Y-13084057D01*
X31134579Y-13101850D01*
X31079909Y-13118122D01*
X31031800Y-13134052D01*
X30994892Y-13147991D01*
X30973823Y-13158288D01*
X30971987Y-13159702D01*
X30955714Y-13187733D01*
X30954963Y-13222125D01*
X30969407Y-13253849D01*
X30975622Y-13260558D01*
X31010609Y-13281050D01*
X31053432Y-13288779D01*
X31098976Y-13285191D01*
X31142123Y-13271732D01*
X31177759Y-13249850D01*
X31200767Y-13220990D01*
X31206660Y-13195236D01*
X31208657Y-13184525D01*
X31217597Y-13178104D01*
X31237903Y-13174898D01*
X31274000Y-13173833D01*
X31295008Y-13173765D01*
X31383356Y-13173765D01*
X31383252Y-13209656D01*
X31373386Y-13258582D01*
X31346802Y-13308819D01*
X31307620Y-13354358D01*
X31260247Y-13389036D01*
X31226948Y-13405459D01*
X31195315Y-13415847D01*
X31157714Y-13421947D01*
X31106510Y-13425510D01*
X31099713Y-13425822D01*
X31021087Y-13425473D01*
X30957560Y-13415699D01*
X30903676Y-13395163D01*
X30859603Y-13366897D01*
X30816527Y-13321166D01*
X30788498Y-13264277D01*
X30776699Y-13201806D01*
X30782314Y-13139332D01*
X30801126Y-13091330D01*
X30833666Y-13050031D01*
X30881989Y-13014823D01*
X30948179Y-12984500D01*
X31029965Y-12958999D01*
X31102360Y-12938626D01*
X31155786Y-12920430D01*
X31193086Y-12903135D01*
X31217107Y-12885465D01*
X31228882Y-12869819D01*
X31237979Y-12834901D01*
X31228608Y-12803879D01*
X31204240Y-12778107D01*
X31168346Y-12758938D01*
X31124399Y-12747725D01*
X31075869Y-12745822D01*
X31026229Y-12754581D01*
X30981964Y-12773567D01*
X30947739Y-12806095D01*
X30930914Y-12840222D01*
X30914689Y-12886635D01*
X30741834Y-12886635D01*
X28622487Y-12886635D01*
X28622487Y-12932728D01*
X28766048Y-13171964D01*
X28909610Y-13411200D01*
X28813177Y-13414428D01*
X28777377Y-13415984D01*
X28750545Y-13416274D01*
X28729804Y-13412869D01*
X28712279Y-13403342D01*
X28695094Y-13385267D01*
X28675372Y-13356215D01*
X28650239Y-13313760D01*
X28616817Y-13255474D01*
X28609219Y-13242283D01*
X28530857Y-13106496D01*
X28351381Y-13411200D01*
X28255021Y-13414391D01*
X28210406Y-13414765D01*
X28177272Y-13412874D01*
X28160085Y-13409047D01*
X28158660Y-13407239D01*
X27897782Y-13407239D01*
X27859293Y-13410252D01*
X27788495Y-13413000D01*
X27703117Y-13414810D01*
X27462921Y-13418885D01*
X27462921Y-12621591D01*
X20770574Y-12621591D01*
X20770574Y-15432156D01*
X20886530Y-15432156D01*
X20886530Y-13797722D01*
X21398730Y-13786678D01*
X21460074Y-13688946D01*
X21550328Y-13558195D01*
X21655531Y-13427963D01*
X21770071Y-13304569D01*
X21888337Y-13194329D01*
X21930661Y-13159145D01*
X22011820Y-13098566D01*
X22106005Y-13035788D01*
X22205331Y-12975714D01*
X22301910Y-12923245D01*
X22341188Y-12903980D01*
X22506981Y-12833852D01*
X22675150Y-12779384D01*
X22850603Y-12739313D01*
X23038248Y-12712374D01*
X23111791Y-12705478D01*
X23159877Y-12703658D01*
X23223770Y-12704214D01*
X23297351Y-12706830D01*
X23374506Y-12711194D01*
X23449118Y-12716989D01*
X23515069Y-12723903D01*
X23542487Y-12727621D01*
X23748645Y-12769531D01*
X23948496Y-12832125D01*
X24140672Y-12914559D01*
X24323801Y-13015989D01*
X24496515Y-13135570D01*
X24657444Y-13272458D01*
X24805218Y-13425809D01*
X24929814Y-13582698D01*
X24963311Y-13630346D01*
X24994805Y-13677303D01*
X25020266Y-13717444D01*
X25033331Y-13740055D01*
X25060914Y-13792175D01*
X29925591Y-13794948D01*
X34790269Y-13797722D01*
X34793509Y-15382461D01*
X34793841Y-15568860D01*
X34794065Y-15749860D01*
X34794186Y-15924163D01*
X34794206Y-16090471D01*
X34794128Y-16247487D01*
X34793956Y-16393914D01*
X34793692Y-16528452D01*
X34793340Y-16649806D01*
X34792902Y-16756676D01*
X34792381Y-16847765D01*
X34791781Y-16921776D01*
X34791105Y-16977411D01*
X34790355Y-17013372D01*
X34789655Y-17027571D01*
X34782142Y-17068532D01*
X34767799Y-17098681D01*
X34741253Y-17129248D01*
X34740779Y-17129723D01*
X34698998Y-17171504D01*
X27844164Y-17171504D01*
X27376796Y-17171501D01*
X26931007Y-17171492D01*
X26506288Y-17171474D01*
X26102131Y-17171448D01*
X25718028Y-17171410D01*
X25353470Y-17171361D01*
X25007948Y-17171298D01*
X24680955Y-17171220D01*
X24371982Y-17171127D01*
X24080521Y-17171016D01*
X23806063Y-17170887D01*
X23548100Y-17170738D01*
X23306124Y-17170567D01*
X23079626Y-17170374D01*
X22868098Y-17170156D01*
X22671031Y-17169914D01*
X22487918Y-17169645D01*
X22318249Y-17169347D01*
X22161517Y-17169021D01*
X22017213Y-17168664D01*
X21884829Y-17168274D01*
X21763856Y-17167852D01*
X21653786Y-17167395D01*
X21554111Y-17166902D01*
X21464322Y-17166371D01*
X21383911Y-17165802D01*
X21312369Y-17165193D01*
X21249189Y-17164543D01*
X21193862Y-17163849D01*
X21145879Y-17163112D01*
X21104732Y-17162330D01*
X21069913Y-17161501D01*
X21040913Y-17160624D01*
X21017225Y-17159698D01*
X20998339Y-17158721D01*
X20983747Y-17157692D01*
X20972942Y-17156609D01*
X20965414Y-17155472D01*
X20960655Y-17154280D01*
X20958753Y-17153442D01*
X20931353Y-17130900D01*
X20907740Y-17101620D01*
X20907353Y-17100986D01*
X20904524Y-17095759D01*
X20901964Y-17089167D01*
X20899658Y-17080141D01*
X20897594Y-17067611D01*
X20895758Y-17050508D01*
X20894137Y-17027762D01*
X20892718Y-16998304D01*
X20891486Y-16961064D01*
X20890430Y-16914972D01*
X20889535Y-16858959D01*
X20888788Y-16791955D01*
X20888176Y-16712892D01*
X20887685Y-16620698D01*
X20887303Y-16514305D01*
X20887015Y-16392643D01*
X20886809Y-16254642D01*
X20886671Y-16099234D01*
X20886587Y-15925348D01*
X20886545Y-15731915D01*
X20886531Y-15517865D01*
X20886530Y-15432156D01*
X20770574Y-15432156D01*
X20770574Y-17292982D01*
X34906226Y-17292982D01*
X34906226Y-12312374D01*
G36*
X27766750Y-12972230D02*
X27832524Y-12967305D01*
X27879597Y-12959311D01*
X27911301Y-12946746D01*
X27930965Y-12928109D01*
X27941921Y-12901898D01*
X27944012Y-12892313D01*
X27948124Y-12847172D01*
X27939944Y-12813400D01*
X27917555Y-12789659D01*
X27879036Y-12774610D01*
X27822471Y-12766916D01*
X27761644Y-12765156D01*
X27650660Y-12765156D01*
X27650660Y-12978154D01*
X27766750Y-12972230D01*
X27766750Y-12972230D01*
G37*
X27766750Y-12972230D02*
X27832524Y-12967305D01*
X27879597Y-12959311D01*
X27911301Y-12946746D01*
X27930965Y-12928109D01*
X27941921Y-12901898D01*
X27944012Y-12892313D01*
X27948124Y-12847172D01*
X27939944Y-12813400D01*
X27917555Y-12789659D01*
X27879036Y-12774610D01*
X27822471Y-12766916D01*
X27761644Y-12765156D01*
X27650660Y-12765156D01*
X27650660Y-12978154D01*
X27766750Y-12972230D01*
G36*
X27806638Y-13270333D02*
X27856778Y-13261011D01*
X27890105Y-13243917D01*
X27908940Y-13217776D01*
X27915609Y-13181312D01*
X27915704Y-13175293D01*
X27906008Y-13140200D01*
X27886606Y-13119349D01*
X27869228Y-13108221D01*
X27847930Y-13101338D01*
X27817218Y-13097753D01*
X27771598Y-13096516D01*
X27754084Y-13096461D01*
X27650660Y-13096461D01*
X27650660Y-13273156D01*
X27737360Y-13273156D01*
X27806638Y-13270333D01*
X27806638Y-13270333D01*
G37*
X27806638Y-13270333D02*
X27856778Y-13261011D01*
X27890105Y-13243917D01*
X27908940Y-13217776D01*
X27915609Y-13181312D01*
X27915704Y-13175293D01*
X27906008Y-13140200D01*
X27886606Y-13119349D01*
X27869228Y-13108221D01*
X27847930Y-13101338D01*
X27817218Y-13097753D01*
X27771598Y-13096516D01*
X27754084Y-13096461D01*
X27650660Y-13096461D01*
X27650660Y-13273156D01*
X27737360Y-13273156D01*
X27806638Y-13270333D01*
G36*
X31855268Y-13070837D02*
X31872941Y-13020461D01*
X31887593Y-12978254D01*
X31897845Y-12948227D01*
X31902313Y-12934392D01*
X31902400Y-12933956D01*
X31892196Y-12932542D01*
X31864946Y-12931457D01*
X31825688Y-12930868D01*
X31807348Y-12930809D01*
X31759244Y-12931655D01*
X31730371Y-12934481D01*
X31717926Y-12939717D01*
X31717319Y-12944613D01*
X31722778Y-12960039D01*
X31733856Y-12991629D01*
X31748909Y-13034688D01*
X31765239Y-13081494D01*
X31808137Y-13204571D01*
X31855268Y-13070837D01*
X31855268Y-13070837D01*
G37*
X31855268Y-13070837D02*
X31872941Y-13020461D01*
X31887593Y-12978254D01*
X31897845Y-12948227D01*
X31902313Y-12934392D01*
X31902400Y-12933956D01*
X31892196Y-12932542D01*
X31864946Y-12931457D01*
X31825688Y-12930868D01*
X31807348Y-12930809D01*
X31759244Y-12931655D01*
X31730371Y-12934481D01*
X31717926Y-12939717D01*
X31717319Y-12944613D01*
X31722778Y-12960039D01*
X31733856Y-12991629D01*
X31748909Y-13034688D01*
X31765239Y-13081494D01*
X31808137Y-13204571D01*
X31855268Y-13070837D01*
G36*
X23314660Y-16812020D02*
X23383547Y-16811362D01*
X23438463Y-16809828D01*
X23483469Y-16807148D01*
X23522620Y-16803056D01*
X23559975Y-16797283D01*
X23599591Y-16789561D01*
X23613709Y-16786570D01*
X23810071Y-16733899D01*
X23994712Y-16662568D01*
X24168126Y-16572295D01*
X24330806Y-16462798D01*
X24483246Y-16333795D01*
X24584271Y-16231576D01*
X24713509Y-16075861D01*
X24822562Y-15911187D01*
X24911416Y-15737594D01*
X24980056Y-15555125D01*
X25028467Y-15363820D01*
X25056635Y-15163721D01*
X25064544Y-14954868D01*
X25062984Y-14891026D01*
X25045171Y-14684521D01*
X25007884Y-14488412D01*
X24951035Y-14302516D01*
X24874540Y-14126651D01*
X24778313Y-13960634D01*
X24662266Y-13804281D01*
X24526314Y-13657411D01*
X24448551Y-13585451D01*
X24287271Y-13457680D01*
X24117148Y-13350048D01*
X23938914Y-13262792D01*
X23753303Y-13196147D01*
X23561049Y-13150351D01*
X23362886Y-13125640D01*
X23159546Y-13122251D01*
X23037264Y-13130365D01*
X22846046Y-13159805D01*
X22660619Y-13210410D01*
X22481694Y-13281853D01*
X22309979Y-13373806D01*
X22146185Y-13485941D01*
X21998426Y-13610988D01*
X21852074Y-13761011D01*
X21726080Y-13919367D01*
X21620143Y-14086574D01*
X21533965Y-14263152D01*
X21467244Y-14449618D01*
X21430882Y-14591220D01*
X21422689Y-14631641D01*
X21416513Y-14670101D01*
X21412072Y-14710753D01*
X21409085Y-14757753D01*
X21407269Y-14815254D01*
X21406342Y-14887413D01*
X21406055Y-14957287D01*
X21406144Y-14971709D01*
X21720313Y-14971709D01*
X21730623Y-14788059D01*
X21761583Y-14612189D01*
X21813232Y-14443999D01*
X21885610Y-14283387D01*
X21978760Y-14130255D01*
X22092720Y-13984500D01*
X22139423Y-13933207D01*
X22275722Y-13803969D01*
X22421517Y-13693948D01*
X22575913Y-13603616D01*
X22738017Y-13533448D01*
X22906935Y-13483917D01*
X23028965Y-13461750D01*
X23086680Y-13456619D01*
X23159436Y-13454296D01*
X23240968Y-13454585D01*
X23325014Y-13457292D01*
X23405309Y-13462221D01*
X23475592Y-13469180D01*
X23525921Y-13477185D01*
X23693833Y-13522972D01*
X23856433Y-13588401D01*
X24011493Y-13671797D01*
X24156789Y-13771482D01*
X24290094Y-13885778D01*
X24409183Y-14013009D01*
X24511829Y-14151497D01*
X24582813Y-14273534D01*
X24636364Y-14386751D01*
X24677314Y-14495155D01*
X24706878Y-14604093D01*
X24726270Y-14718909D01*
X24736705Y-14844949D01*
X24739435Y-14962809D01*
X24738293Y-15067225D01*
X24733837Y-15155773D01*
X24725236Y-15234531D01*
X24711664Y-15309577D01*
X24692291Y-15386989D01*
X24672643Y-15452852D01*
X24612940Y-15607369D01*
X24533403Y-15756682D01*
X24436105Y-15898390D01*
X24323119Y-16030094D01*
X24196520Y-16149395D01*
X24058380Y-16253892D01*
X23910773Y-16341186D01*
X23900507Y-16346406D01*
X23815103Y-16384458D01*
X23716424Y-16420334D01*
X23613268Y-16451101D01*
X23524146Y-16471941D01*
X23456026Y-16481912D01*
X23373151Y-16488550D01*
X23281566Y-16491862D01*
X23187318Y-16491855D01*
X23096454Y-16488534D01*
X23015019Y-16481905D01*
X22949060Y-16471975D01*
X22946139Y-16471362D01*
X22777925Y-16427453D01*
X22625050Y-16370099D01*
X22484096Y-16297524D01*
X22351650Y-16207950D01*
X22224295Y-16099602D01*
X22215589Y-16091370D01*
X22082445Y-15951091D01*
X21970128Y-15803469D01*
X21878623Y-15648468D01*
X21807914Y-15486052D01*
X21757985Y-15316187D01*
X21728820Y-15138837D01*
X21720313Y-14971709D01*
X21406144Y-14971709D01*
X21406742Y-15067734D01*
X21409702Y-15161000D01*
X21415598Y-15241931D01*
X21425091Y-15315373D01*
X21438843Y-15386173D01*
X21457518Y-15459177D01*
X21481777Y-15539232D01*
X21488350Y-15559564D01*
X21556817Y-15735459D01*
X21644270Y-15904080D01*
X21748956Y-16063640D01*
X21869122Y-16212351D01*
X22003017Y-16348426D01*
X22148888Y-16470078D01*
X22304983Y-16575517D01*
X22469549Y-16662958D01*
X22634171Y-16728407D01*
X22713715Y-16753848D01*
X22784762Y-16773666D01*
X22852063Y-16788532D01*
X22920366Y-16799113D01*
X22994421Y-16806081D01*
X23078975Y-16810103D01*
X23178779Y-16811850D01*
X23227747Y-16812069D01*
X23314660Y-16812020D01*
X23314660Y-16812020D01*
G37*
X23314660Y-16812020D02*
X23383547Y-16811362D01*
X23438463Y-16809828D01*
X23483469Y-16807148D01*
X23522620Y-16803056D01*
X23559975Y-16797283D01*
X23599591Y-16789561D01*
X23613709Y-16786570D01*
X23810071Y-16733899D01*
X23994712Y-16662568D01*
X24168126Y-16572295D01*
X24330806Y-16462798D01*
X24483246Y-16333795D01*
X24584271Y-16231576D01*
X24713509Y-16075861D01*
X24822562Y-15911187D01*
X24911416Y-15737594D01*
X24980056Y-15555125D01*
X25028467Y-15363820D01*
X25056635Y-15163721D01*
X25064544Y-14954868D01*
X25062984Y-14891026D01*
X25045171Y-14684521D01*
X25007884Y-14488412D01*
X24951035Y-14302516D01*
X24874540Y-14126651D01*
X24778313Y-13960634D01*
X24662266Y-13804281D01*
X24526314Y-13657411D01*
X24448551Y-13585451D01*
X24287271Y-13457680D01*
X24117148Y-13350048D01*
X23938914Y-13262792D01*
X23753303Y-13196147D01*
X23561049Y-13150351D01*
X23362886Y-13125640D01*
X23159546Y-13122251D01*
X23037264Y-13130365D01*
X22846046Y-13159805D01*
X22660619Y-13210410D01*
X22481694Y-13281853D01*
X22309979Y-13373806D01*
X22146185Y-13485941D01*
X21998426Y-13610988D01*
X21852074Y-13761011D01*
X21726080Y-13919367D01*
X21620143Y-14086574D01*
X21533965Y-14263152D01*
X21467244Y-14449618D01*
X21430882Y-14591220D01*
X21422689Y-14631641D01*
X21416513Y-14670101D01*
X21412072Y-14710753D01*
X21409085Y-14757753D01*
X21407269Y-14815254D01*
X21406342Y-14887413D01*
X21406055Y-14957287D01*
X21406144Y-14971709D01*
X21720313Y-14971709D01*
X21730623Y-14788059D01*
X21761583Y-14612189D01*
X21813232Y-14443999D01*
X21885610Y-14283387D01*
X21978760Y-14130255D01*
X22092720Y-13984500D01*
X22139423Y-13933207D01*
X22275722Y-13803969D01*
X22421517Y-13693948D01*
X22575913Y-13603616D01*
X22738017Y-13533448D01*
X22906935Y-13483917D01*
X23028965Y-13461750D01*
X23086680Y-13456619D01*
X23159436Y-13454296D01*
X23240968Y-13454585D01*
X23325014Y-13457292D01*
X23405309Y-13462221D01*
X23475592Y-13469180D01*
X23525921Y-13477185D01*
X23693833Y-13522972D01*
X23856433Y-13588401D01*
X24011493Y-13671797D01*
X24156789Y-13771482D01*
X24290094Y-13885778D01*
X24409183Y-14013009D01*
X24511829Y-14151497D01*
X24582813Y-14273534D01*
X24636364Y-14386751D01*
X24677314Y-14495155D01*
X24706878Y-14604093D01*
X24726270Y-14718909D01*
X24736705Y-14844949D01*
X24739435Y-14962809D01*
X24738293Y-15067225D01*
X24733837Y-15155773D01*
X24725236Y-15234531D01*
X24711664Y-15309577D01*
X24692291Y-15386989D01*
X24672643Y-15452852D01*
X24612940Y-15607369D01*
X24533403Y-15756682D01*
X24436105Y-15898390D01*
X24323119Y-16030094D01*
X24196520Y-16149395D01*
X24058380Y-16253892D01*
X23910773Y-16341186D01*
X23900507Y-16346406D01*
X23815103Y-16384458D01*
X23716424Y-16420334D01*
X23613268Y-16451101D01*
X23524146Y-16471941D01*
X23456026Y-16481912D01*
X23373151Y-16488550D01*
X23281566Y-16491862D01*
X23187318Y-16491855D01*
X23096454Y-16488534D01*
X23015019Y-16481905D01*
X22949060Y-16471975D01*
X22946139Y-16471362D01*
X22777925Y-16427453D01*
X22625050Y-16370099D01*
X22484096Y-16297524D01*
X22351650Y-16207950D01*
X22224295Y-16099602D01*
X22215589Y-16091370D01*
X22082445Y-15951091D01*
X21970128Y-15803469D01*
X21878623Y-15648468D01*
X21807914Y-15486052D01*
X21757985Y-15316187D01*
X21728820Y-15138837D01*
X21720313Y-14971709D01*
X21406144Y-14971709D01*
X21406742Y-15067734D01*
X21409702Y-15161000D01*
X21415598Y-15241931D01*
X21425091Y-15315373D01*
X21438843Y-15386173D01*
X21457518Y-15459177D01*
X21481777Y-15539232D01*
X21488350Y-15559564D01*
X21556817Y-15735459D01*
X21644270Y-15904080D01*
X21748956Y-16063640D01*
X21869122Y-16212351D01*
X22003017Y-16348426D01*
X22148888Y-16470078D01*
X22304983Y-16575517D01*
X22469549Y-16662958D01*
X22634171Y-16728407D01*
X22713715Y-16753848D01*
X22784762Y-16773666D01*
X22852063Y-16788532D01*
X22920366Y-16799113D01*
X22994421Y-16806081D01*
X23078975Y-16810103D01*
X23178779Y-16811850D01*
X23227747Y-16812069D01*
X23314660Y-16812020D01*
G36*
X28463915Y-16866588D02*
X28621241Y-16834771D01*
X28767995Y-16785044D01*
X28906518Y-16716436D01*
X29039152Y-16627981D01*
X29166651Y-16520192D01*
X29285167Y-16394802D01*
X29384950Y-16258072D01*
X29465635Y-16110929D01*
X29526858Y-15954298D01*
X29568254Y-15789106D01*
X29589459Y-15616278D01*
X29590477Y-15443976D01*
X29574284Y-15275203D01*
X29542252Y-15120370D01*
X29493284Y-14976971D01*
X29426283Y-14842501D01*
X29340151Y-14714451D01*
X29233792Y-14590315D01*
X29202972Y-14558654D01*
X29108290Y-14469332D01*
X29016975Y-14395692D01*
X28923142Y-14333360D01*
X28834018Y-14284492D01*
X28693585Y-14225213D01*
X28541814Y-14182053D01*
X28383144Y-14155674D01*
X28222012Y-14146737D01*
X28062857Y-14155905D01*
X28015095Y-14162451D01*
X27856382Y-14198344D01*
X27702562Y-14254794D01*
X27555546Y-14330469D01*
X27417247Y-14424041D01*
X27289576Y-14534182D01*
X27174446Y-14659560D01*
X27073769Y-14798847D01*
X27054132Y-14830587D01*
X26981354Y-14972637D01*
X26926872Y-15124418D01*
X26890810Y-15283105D01*
X26873295Y-15445870D01*
X26873782Y-15514982D01*
X27115477Y-15514982D01*
X27116102Y-15442100D01*
X27118222Y-15385352D01*
X27122402Y-15338804D01*
X27129207Y-15296525D01*
X27139205Y-15252579D01*
X27141288Y-15244417D01*
X27190316Y-15097691D01*
X27258344Y-14960305D01*
X27343702Y-14833822D01*
X27444717Y-14719802D01*
X27559720Y-14619805D01*
X27687040Y-14535393D01*
X27825005Y-14468126D01*
X27971945Y-14419564D01*
X28040872Y-14404168D01*
X28106958Y-14395843D01*
X28187224Y-14392278D01*
X28274420Y-14393223D01*
X28361292Y-14398429D01*
X28440587Y-14407648D01*
X28502946Y-14420065D01*
X28653034Y-14470389D01*
X28792020Y-14539458D01*
X28921255Y-14628031D01*
X29007135Y-14702508D01*
X29115938Y-14819715D01*
X29205344Y-14946419D01*
X29274813Y-15081743D01*
X29320151Y-15211287D01*
X29328922Y-15245372D01*
X29335347Y-15278015D01*
X29339779Y-15313573D01*
X29342568Y-15356401D01*
X29344067Y-15410854D01*
X29344626Y-15481289D01*
X29344666Y-15514982D01*
X29343668Y-15611650D01*
X29339990Y-15691298D01*
X29332604Y-15758932D01*
X29320481Y-15819556D01*
X29302594Y-15878175D01*
X29277916Y-15939796D01*
X29245418Y-16009423D01*
X29241482Y-16017461D01*
X29162967Y-16152712D01*
X29067559Y-16274727D01*
X28956978Y-16382160D01*
X28832946Y-16473663D01*
X28697184Y-16547889D01*
X28551413Y-16603489D01*
X28463384Y-16626579D01*
X28399883Y-16636422D01*
X28321662Y-16642254D01*
X28235718Y-16644092D01*
X28149046Y-16641960D01*
X28068643Y-16635875D01*
X28001504Y-16625859D01*
X27998530Y-16625236D01*
X27853382Y-16583192D01*
X27715936Y-16521248D01*
X27587886Y-16440760D01*
X27470924Y-16343080D01*
X27366745Y-16229564D01*
X27277040Y-16101567D01*
X27224913Y-16006417D01*
X27183842Y-15916718D01*
X27153885Y-15835106D01*
X27133582Y-15755024D01*
X27121472Y-15669912D01*
X27116096Y-15573212D01*
X27115477Y-15514982D01*
X26873782Y-15514982D01*
X26874453Y-15609890D01*
X26894407Y-15772337D01*
X26933284Y-15930387D01*
X26991210Y-16081213D01*
X26997987Y-16095648D01*
X27056925Y-16208070D01*
X27121599Y-16308278D01*
X27197031Y-16403324D01*
X27280704Y-16492729D01*
X27407945Y-16607576D01*
X27540715Y-16701728D01*
X27680319Y-16775685D01*
X27828061Y-16829947D01*
X27985246Y-16865015D01*
X28153179Y-16881390D01*
X28293675Y-16881463D01*
X28463915Y-16866588D01*
X28463915Y-16866588D01*
G37*
X28463915Y-16866588D02*
X28621241Y-16834771D01*
X28767995Y-16785044D01*
X28906518Y-16716436D01*
X29039152Y-16627981D01*
X29166651Y-16520192D01*
X29285167Y-16394802D01*
X29384950Y-16258072D01*
X29465635Y-16110929D01*
X29526858Y-15954298D01*
X29568254Y-15789106D01*
X29589459Y-15616278D01*
X29590477Y-15443976D01*
X29574284Y-15275203D01*
X29542252Y-15120370D01*
X29493284Y-14976971D01*
X29426283Y-14842501D01*
X29340151Y-14714451D01*
X29233792Y-14590315D01*
X29202972Y-14558654D01*
X29108290Y-14469332D01*
X29016975Y-14395692D01*
X28923142Y-14333360D01*
X28834018Y-14284492D01*
X28693585Y-14225213D01*
X28541814Y-14182053D01*
X28383144Y-14155674D01*
X28222012Y-14146737D01*
X28062857Y-14155905D01*
X28015095Y-14162451D01*
X27856382Y-14198344D01*
X27702562Y-14254794D01*
X27555546Y-14330469D01*
X27417247Y-14424041D01*
X27289576Y-14534182D01*
X27174446Y-14659560D01*
X27073769Y-14798847D01*
X27054132Y-14830587D01*
X26981354Y-14972637D01*
X26926872Y-15124418D01*
X26890810Y-15283105D01*
X26873295Y-15445870D01*
X26873782Y-15514982D01*
X27115477Y-15514982D01*
X27116102Y-15442100D01*
X27118222Y-15385352D01*
X27122402Y-15338804D01*
X27129207Y-15296525D01*
X27139205Y-15252579D01*
X27141288Y-15244417D01*
X27190316Y-15097691D01*
X27258344Y-14960305D01*
X27343702Y-14833822D01*
X27444717Y-14719802D01*
X27559720Y-14619805D01*
X27687040Y-14535393D01*
X27825005Y-14468126D01*
X27971945Y-14419564D01*
X28040872Y-14404168D01*
X28106958Y-14395843D01*
X28187224Y-14392278D01*
X28274420Y-14393223D01*
X28361292Y-14398429D01*
X28440587Y-14407648D01*
X28502946Y-14420065D01*
X28653034Y-14470389D01*
X28792020Y-14539458D01*
X28921255Y-14628031D01*
X29007135Y-14702508D01*
X29115938Y-14819715D01*
X29205344Y-14946419D01*
X29274813Y-15081743D01*
X29320151Y-15211287D01*
X29328922Y-15245372D01*
X29335347Y-15278015D01*
X29339779Y-15313573D01*
X29342568Y-15356401D01*
X29344067Y-15410854D01*
X29344626Y-15481289D01*
X29344666Y-15514982D01*
X29343668Y-15611650D01*
X29339990Y-15691298D01*
X29332604Y-15758932D01*
X29320481Y-15819556D01*
X29302594Y-15878175D01*
X29277916Y-15939796D01*
X29245418Y-16009423D01*
X29241482Y-16017461D01*
X29162967Y-16152712D01*
X29067559Y-16274727D01*
X28956978Y-16382160D01*
X28832946Y-16473663D01*
X28697184Y-16547889D01*
X28551413Y-16603489D01*
X28463384Y-16626579D01*
X28399883Y-16636422D01*
X28321662Y-16642254D01*
X28235718Y-16644092D01*
X28149046Y-16641960D01*
X28068643Y-16635875D01*
X28001504Y-16625859D01*
X27998530Y-16625236D01*
X27853382Y-16583192D01*
X27715936Y-16521248D01*
X27587886Y-16440760D01*
X27470924Y-16343080D01*
X27366745Y-16229564D01*
X27277040Y-16101567D01*
X27224913Y-16006417D01*
X27183842Y-15916718D01*
X27153885Y-15835106D01*
X27133582Y-15755024D01*
X27121472Y-15669912D01*
X27116096Y-15573212D01*
X27115477Y-15514982D01*
X26873782Y-15514982D01*
X26874453Y-15609890D01*
X26894407Y-15772337D01*
X26933284Y-15930387D01*
X26991210Y-16081213D01*
X26997987Y-16095648D01*
X27056925Y-16208070D01*
X27121599Y-16308278D01*
X27197031Y-16403324D01*
X27280704Y-16492729D01*
X27407945Y-16607576D01*
X27540715Y-16701728D01*
X27680319Y-16775685D01*
X27828061Y-16829947D01*
X27985246Y-16865015D01*
X28153179Y-16881390D01*
X28293675Y-16881463D01*
X28463915Y-16866588D01*
G36*
X31721297Y-16877901D02*
X31874858Y-16856303D01*
X32021015Y-16818850D01*
X32023878Y-16817924D01*
X32169267Y-16759390D01*
X32308484Y-16681164D01*
X32439208Y-16585302D01*
X32559118Y-16473860D01*
X32665894Y-16348895D01*
X32757214Y-16212463D01*
X32802671Y-16127896D01*
X32866474Y-15974245D01*
X32910775Y-15814839D01*
X32935854Y-15651923D01*
X32941991Y-15487739D01*
X32929465Y-15324532D01*
X32898554Y-15164547D01*
X32849539Y-15010027D01*
X32782699Y-14863216D01*
X32698313Y-14726359D01*
X32615207Y-14622001D01*
X32486699Y-14493364D01*
X32348341Y-14384488D01*
X32200049Y-14295323D01*
X32041739Y-14225820D01*
X31873328Y-14175928D01*
X31856432Y-14172126D01*
X31794819Y-14162171D01*
X31717895Y-14155064D01*
X31632271Y-14150942D01*
X31544557Y-14149945D01*
X31461362Y-14152211D01*
X31389298Y-14157879D01*
X31361269Y-14161739D01*
X31198382Y-14198782D01*
X31044874Y-14255068D01*
X30899687Y-14331153D01*
X30761762Y-14427594D01*
X30630040Y-14544949D01*
X30626483Y-14548490D01*
X30513923Y-14671640D01*
X30421682Y-14797115D01*
X30348010Y-14928167D01*
X30291159Y-15068049D01*
X30249379Y-15220014D01*
X30239627Y-15267896D01*
X30229587Y-15340791D01*
X30223436Y-15427944D01*
X30221256Y-15521852D01*
X30221408Y-15529443D01*
X30460576Y-15529443D01*
X30462192Y-15435068D01*
X30468934Y-15346776D01*
X30480800Y-15271054D01*
X30486559Y-15247265D01*
X30529324Y-15115472D01*
X30582477Y-14998579D01*
X30649227Y-14891014D01*
X30732784Y-14787208D01*
X30781487Y-14735363D01*
X30902628Y-14625560D01*
X31030228Y-14536749D01*
X31164855Y-14468633D01*
X31307078Y-14420917D01*
X31433052Y-14396354D01*
X31489658Y-14391688D01*
X31559728Y-14390337D01*
X31634920Y-14392092D01*
X31706895Y-14396747D01*
X31767311Y-14404095D01*
X31771192Y-14404757D01*
X31920654Y-14441239D01*
X32060512Y-14496913D01*
X32191820Y-14572357D01*
X32315629Y-14668149D01*
X32401085Y-14750426D01*
X32459343Y-14813937D01*
X32505126Y-14870685D01*
X32543293Y-14927594D01*
X32578704Y-14991588D01*
X32598486Y-15031726D01*
X32648050Y-15159015D01*
X32681546Y-15297542D01*
X32698613Y-15443019D01*
X32698890Y-15591158D01*
X32682017Y-15737669D01*
X32664621Y-15818678D01*
X32619343Y-15953419D01*
X32554511Y-16082334D01*
X32472360Y-16203205D01*
X32375125Y-16313809D01*
X32265044Y-16411928D01*
X32144351Y-16495340D01*
X32015282Y-16561826D01*
X31880074Y-16609165D01*
X31864524Y-16613208D01*
X31729571Y-16637650D01*
X31587299Y-16646341D01*
X31444718Y-16639348D01*
X31308839Y-16616740D01*
X31272396Y-16607469D01*
X31139242Y-16559544D01*
X31012025Y-16492057D01*
X30892833Y-16407194D01*
X30783750Y-16307139D01*
X30686866Y-16194080D01*
X30604265Y-16070203D01*
X30538036Y-15937692D01*
X30490265Y-15798735D01*
X30486488Y-15784189D01*
X30472723Y-15710490D01*
X30464086Y-15623412D01*
X30460576Y-15529443D01*
X30221408Y-15529443D01*
X30223130Y-15615018D01*
X30229142Y-15699939D01*
X30234389Y-15741374D01*
X30263329Y-15873469D01*
X30308912Y-16009469D01*
X30368360Y-16142759D01*
X30438896Y-16266725D01*
X30480348Y-16327095D01*
X30561423Y-16425530D01*
X30656833Y-16521866D01*
X30761215Y-16611524D01*
X30869202Y-16689922D01*
X30975429Y-16752480D01*
X30983173Y-16756404D01*
X31113436Y-16810510D01*
X31256401Y-16849950D01*
X31408047Y-16874487D01*
X31564353Y-16883884D01*
X31721297Y-16877901D01*
X31721297Y-16877901D01*
G37*
X31721297Y-16877901D02*
X31874858Y-16856303D01*
X32021015Y-16818850D01*
X32023878Y-16817924D01*
X32169267Y-16759390D01*
X32308484Y-16681164D01*
X32439208Y-16585302D01*
X32559118Y-16473860D01*
X32665894Y-16348895D01*
X32757214Y-16212463D01*
X32802671Y-16127896D01*
X32866474Y-15974245D01*
X32910775Y-15814839D01*
X32935854Y-15651923D01*
X32941991Y-15487739D01*
X32929465Y-15324532D01*
X32898554Y-15164547D01*
X32849539Y-15010027D01*
X32782699Y-14863216D01*
X32698313Y-14726359D01*
X32615207Y-14622001D01*
X32486699Y-14493364D01*
X32348341Y-14384488D01*
X32200049Y-14295323D01*
X32041739Y-14225820D01*
X31873328Y-14175928D01*
X31856432Y-14172126D01*
X31794819Y-14162171D01*
X31717895Y-14155064D01*
X31632271Y-14150942D01*
X31544557Y-14149945D01*
X31461362Y-14152211D01*
X31389298Y-14157879D01*
X31361269Y-14161739D01*
X31198382Y-14198782D01*
X31044874Y-14255068D01*
X30899687Y-14331153D01*
X30761762Y-14427594D01*
X30630040Y-14544949D01*
X30626483Y-14548490D01*
X30513923Y-14671640D01*
X30421682Y-14797115D01*
X30348010Y-14928167D01*
X30291159Y-15068049D01*
X30249379Y-15220014D01*
X30239627Y-15267896D01*
X30229587Y-15340791D01*
X30223436Y-15427944D01*
X30221256Y-15521852D01*
X30221408Y-15529443D01*
X30460576Y-15529443D01*
X30462192Y-15435068D01*
X30468934Y-15346776D01*
X30480800Y-15271054D01*
X30486559Y-15247265D01*
X30529324Y-15115472D01*
X30582477Y-14998579D01*
X30649227Y-14891014D01*
X30732784Y-14787208D01*
X30781487Y-14735363D01*
X30902628Y-14625560D01*
X31030228Y-14536749D01*
X31164855Y-14468633D01*
X31307078Y-14420917D01*
X31433052Y-14396354D01*
X31489658Y-14391688D01*
X31559728Y-14390337D01*
X31634920Y-14392092D01*
X31706895Y-14396747D01*
X31767311Y-14404095D01*
X31771192Y-14404757D01*
X31920654Y-14441239D01*
X32060512Y-14496913D01*
X32191820Y-14572357D01*
X32315629Y-14668149D01*
X32401085Y-14750426D01*
X32459343Y-14813937D01*
X32505126Y-14870685D01*
X32543293Y-14927594D01*
X32578704Y-14991588D01*
X32598486Y-15031726D01*
X32648050Y-15159015D01*
X32681546Y-15297542D01*
X32698613Y-15443019D01*
X32698890Y-15591158D01*
X32682017Y-15737669D01*
X32664621Y-15818678D01*
X32619343Y-15953419D01*
X32554511Y-16082334D01*
X32472360Y-16203205D01*
X32375125Y-16313809D01*
X32265044Y-16411928D01*
X32144351Y-16495340D01*
X32015282Y-16561826D01*
X31880074Y-16609165D01*
X31864524Y-16613208D01*
X31729571Y-16637650D01*
X31587299Y-16646341D01*
X31444718Y-16639348D01*
X31308839Y-16616740D01*
X31272396Y-16607469D01*
X31139242Y-16559544D01*
X31012025Y-16492057D01*
X30892833Y-16407194D01*
X30783750Y-16307139D01*
X30686866Y-16194080D01*
X30604265Y-16070203D01*
X30538036Y-15937692D01*
X30490265Y-15798735D01*
X30486488Y-15784189D01*
X30472723Y-15710490D01*
X30464086Y-15623412D01*
X30460576Y-15529443D01*
X30221408Y-15529443D01*
X30223130Y-15615018D01*
X30229142Y-15699939D01*
X30234389Y-15741374D01*
X30263329Y-15873469D01*
X30308912Y-16009469D01*
X30368360Y-16142759D01*
X30438896Y-16266725D01*
X30480348Y-16327095D01*
X30561423Y-16425530D01*
X30656833Y-16521866D01*
X30761215Y-16611524D01*
X30869202Y-16689922D01*
X30975429Y-16752480D01*
X30983173Y-16756404D01*
X31113436Y-16810510D01*
X31256401Y-16849950D01*
X31408047Y-16874487D01*
X31564353Y-16883884D01*
X31721297Y-16877901D01*
G36*
X22829069Y-15531425D02*
X22919461Y-15513639D01*
X22998091Y-15482437D01*
X23068695Y-15436542D01*
X23102395Y-15407460D01*
X23131981Y-15377372D01*
X23159768Y-15345032D01*
X23182419Y-15314901D01*
X23196594Y-15291443D01*
X23198955Y-15279120D01*
X23198638Y-15278824D01*
X23178528Y-15266084D01*
X23146398Y-15248566D01*
X23107042Y-15228556D01*
X23065256Y-15208343D01*
X23025834Y-15190214D01*
X22993571Y-15176455D01*
X22973263Y-15169355D01*
X22968843Y-15169199D01*
X22958329Y-15182901D01*
X22940127Y-15207344D01*
X22930246Y-15220771D01*
X22885810Y-15263703D01*
X22829104Y-15291944D01*
X22765341Y-15304304D01*
X22699732Y-15299592D01*
X22652619Y-15284214D01*
X22603431Y-15253800D01*
X22566474Y-15211585D01*
X22540593Y-15155233D01*
X22524635Y-15082407D01*
X22518319Y-15012380D01*
X22518699Y-14908931D01*
X22531297Y-14823365D01*
X22556374Y-14754991D01*
X22594196Y-14703118D01*
X22645026Y-14667056D01*
X22651407Y-14664032D01*
X22707277Y-14647512D01*
X22769679Y-14642964D01*
X22829515Y-14650390D01*
X22867559Y-14663984D01*
X22908975Y-14692483D01*
X22950732Y-14733338D01*
X22984642Y-14778528D01*
X22984791Y-14778773D01*
X22991657Y-14785633D01*
X23003093Y-14786414D01*
X23022681Y-14779897D01*
X23054000Y-14764864D01*
X23100633Y-14740095D01*
X23104380Y-14738064D01*
X23212927Y-14679199D01*
X23159045Y-14608417D01*
X23101432Y-14545117D01*
X23032818Y-14489526D01*
X22959897Y-14446528D01*
X22909598Y-14426451D01*
X22870841Y-14417847D01*
X22818704Y-14410762D01*
X22760454Y-14405701D01*
X22703361Y-14403169D01*
X22654691Y-14403671D01*
X22625878Y-14406756D01*
X22516813Y-14438444D01*
X22422199Y-14486496D01*
X22342842Y-14550019D01*
X22279547Y-14628120D01*
X22233119Y-14719907D01*
X22204366Y-14824489D01*
X22196822Y-14881832D01*
X22192928Y-15006032D01*
X22204685Y-15116190D01*
X22232557Y-15214299D01*
X22277011Y-15302356D01*
X22303956Y-15341089D01*
X22373943Y-15417224D01*
X22453857Y-15474299D01*
X22544752Y-15512808D01*
X22647682Y-15533243D01*
X22723181Y-15537069D01*
X22829069Y-15531425D01*
X22829069Y-15531425D01*
G37*
X22829069Y-15531425D02*
X22919461Y-15513639D01*
X22998091Y-15482437D01*
X23068695Y-15436542D01*
X23102395Y-15407460D01*
X23131981Y-15377372D01*
X23159768Y-15345032D01*
X23182419Y-15314901D01*
X23196594Y-15291443D01*
X23198955Y-15279120D01*
X23198638Y-15278824D01*
X23178528Y-15266084D01*
X23146398Y-15248566D01*
X23107042Y-15228556D01*
X23065256Y-15208343D01*
X23025834Y-15190214D01*
X22993571Y-15176455D01*
X22973263Y-15169355D01*
X22968843Y-15169199D01*
X22958329Y-15182901D01*
X22940127Y-15207344D01*
X22930246Y-15220771D01*
X22885810Y-15263703D01*
X22829104Y-15291944D01*
X22765341Y-15304304D01*
X22699732Y-15299592D01*
X22652619Y-15284214D01*
X22603431Y-15253800D01*
X22566474Y-15211585D01*
X22540593Y-15155233D01*
X22524635Y-15082407D01*
X22518319Y-15012380D01*
X22518699Y-14908931D01*
X22531297Y-14823365D01*
X22556374Y-14754991D01*
X22594196Y-14703118D01*
X22645026Y-14667056D01*
X22651407Y-14664032D01*
X22707277Y-14647512D01*
X22769679Y-14642964D01*
X22829515Y-14650390D01*
X22867559Y-14663984D01*
X22908975Y-14692483D01*
X22950732Y-14733338D01*
X22984642Y-14778528D01*
X22984791Y-14778773D01*
X22991657Y-14785633D01*
X23003093Y-14786414D01*
X23022681Y-14779897D01*
X23054000Y-14764864D01*
X23100633Y-14740095D01*
X23104380Y-14738064D01*
X23212927Y-14679199D01*
X23159045Y-14608417D01*
X23101432Y-14545117D01*
X23032818Y-14489526D01*
X22959897Y-14446528D01*
X22909598Y-14426451D01*
X22870841Y-14417847D01*
X22818704Y-14410762D01*
X22760454Y-14405701D01*
X22703361Y-14403169D01*
X22654691Y-14403671D01*
X22625878Y-14406756D01*
X22516813Y-14438444D01*
X22422199Y-14486496D01*
X22342842Y-14550019D01*
X22279547Y-14628120D01*
X22233119Y-14719907D01*
X22204366Y-14824489D01*
X22196822Y-14881832D01*
X22192928Y-15006032D01*
X22204685Y-15116190D01*
X22232557Y-15214299D01*
X22277011Y-15302356D01*
X22303956Y-15341089D01*
X22373943Y-15417224D01*
X22453857Y-15474299D01*
X22544752Y-15512808D01*
X22647682Y-15533243D01*
X22723181Y-15537069D01*
X22829069Y-15531425D01*
G36*
X23869502Y-15533283D02*
X23966381Y-15517829D01*
X24050555Y-15488080D01*
X24124793Y-15443115D01*
X24179772Y-15394671D01*
X24213159Y-15358251D01*
X24239559Y-15324688D01*
X24256307Y-15297840D01*
X24260740Y-15281561D01*
X24259409Y-15279422D01*
X24247327Y-15272298D01*
X24220997Y-15257951D01*
X24185247Y-15238905D01*
X24144903Y-15217686D01*
X24104795Y-15196819D01*
X24069749Y-15178831D01*
X24044594Y-15166247D01*
X24034180Y-15161591D01*
X24025862Y-15169898D01*
X24009427Y-15191295D01*
X23995220Y-15211358D01*
X23948669Y-15262112D01*
X23892175Y-15293167D01*
X23825190Y-15304809D01*
X23816253Y-15304914D01*
X23743925Y-15294918D01*
X23682864Y-15266175D01*
X23634247Y-15219585D01*
X23599250Y-15156051D01*
X23591251Y-15132725D01*
X23581957Y-15085176D01*
X23576930Y-15023707D01*
X23576136Y-14956062D01*
X23579541Y-14889986D01*
X23587112Y-14833223D01*
X23592656Y-14810049D01*
X23622278Y-14742964D01*
X23665964Y-14692794D01*
X23723139Y-14659920D01*
X23793225Y-14644720D01*
X23844393Y-14644432D01*
X23911259Y-14656010D01*
X23964522Y-14682921D01*
X24008640Y-14727783D01*
X24023765Y-14749814D01*
X24053397Y-14796693D01*
X24148572Y-14747197D01*
X24201088Y-14720035D01*
X24236501Y-14700773D01*
X24256901Y-14686381D01*
X24264377Y-14673831D01*
X24261021Y-14660094D01*
X24248923Y-14642142D01*
X24234424Y-14622804D01*
X24160794Y-14539771D01*
X24076280Y-14475658D01*
X23982072Y-14430889D01*
X23879358Y-14405889D01*
X23769329Y-14401082D01*
X23655822Y-14416312D01*
X23566034Y-14445675D01*
X23482061Y-14491925D01*
X23408100Y-14551812D01*
X23348349Y-14622083D01*
X23315117Y-14680234D01*
X23281193Y-14776648D01*
X23261961Y-14881957D01*
X23257343Y-14990863D01*
X23267261Y-15098069D01*
X23291636Y-15198276D01*
X23323855Y-15274353D01*
X23368728Y-15340838D01*
X23429102Y-15404579D01*
X23498623Y-15459651D01*
X23561397Y-15495805D01*
X23598018Y-15512014D01*
X23629887Y-15522703D01*
X23663951Y-15529275D01*
X23707157Y-15533135D01*
X23757150Y-15535364D01*
X23869502Y-15533283D01*
X23869502Y-15533283D01*
G37*
X23869502Y-15533283D02*
X23966381Y-15517829D01*
X24050555Y-15488080D01*
X24124793Y-15443115D01*
X24179772Y-15394671D01*
X24213159Y-15358251D01*
X24239559Y-15324688D01*
X24256307Y-15297840D01*
X24260740Y-15281561D01*
X24259409Y-15279422D01*
X24247327Y-15272298D01*
X24220997Y-15257951D01*
X24185247Y-15238905D01*
X24144903Y-15217686D01*
X24104795Y-15196819D01*
X24069749Y-15178831D01*
X24044594Y-15166247D01*
X24034180Y-15161591D01*
X24025862Y-15169898D01*
X24009427Y-15191295D01*
X23995220Y-15211358D01*
X23948669Y-15262112D01*
X23892175Y-15293167D01*
X23825190Y-15304809D01*
X23816253Y-15304914D01*
X23743925Y-15294918D01*
X23682864Y-15266175D01*
X23634247Y-15219585D01*
X23599250Y-15156051D01*
X23591251Y-15132725D01*
X23581957Y-15085176D01*
X23576930Y-15023707D01*
X23576136Y-14956062D01*
X23579541Y-14889986D01*
X23587112Y-14833223D01*
X23592656Y-14810049D01*
X23622278Y-14742964D01*
X23665964Y-14692794D01*
X23723139Y-14659920D01*
X23793225Y-14644720D01*
X23844393Y-14644432D01*
X23911259Y-14656010D01*
X23964522Y-14682921D01*
X24008640Y-14727783D01*
X24023765Y-14749814D01*
X24053397Y-14796693D01*
X24148572Y-14747197D01*
X24201088Y-14720035D01*
X24236501Y-14700773D01*
X24256901Y-14686381D01*
X24264377Y-14673831D01*
X24261021Y-14660094D01*
X24248923Y-14642142D01*
X24234424Y-14622804D01*
X24160794Y-14539771D01*
X24076280Y-14475658D01*
X23982072Y-14430889D01*
X23879358Y-14405889D01*
X23769329Y-14401082D01*
X23655822Y-14416312D01*
X23566034Y-14445675D01*
X23482061Y-14491925D01*
X23408100Y-14551812D01*
X23348349Y-14622083D01*
X23315117Y-14680234D01*
X23281193Y-14776648D01*
X23261961Y-14881957D01*
X23257343Y-14990863D01*
X23267261Y-15098069D01*
X23291636Y-15198276D01*
X23323855Y-15274353D01*
X23368728Y-15340838D01*
X23429102Y-15404579D01*
X23498623Y-15459651D01*
X23561397Y-15495805D01*
X23598018Y-15512014D01*
X23629887Y-15522703D01*
X23663951Y-15529275D01*
X23707157Y-15533135D01*
X23757150Y-15535364D01*
X23869502Y-15533283D01*
G36*
X28320798Y-15940119D02*
X28392927Y-15939880D01*
X28448125Y-15939250D01*
X28488971Y-15938037D01*
X28518042Y-15936052D01*
X28537918Y-15933105D01*
X28551177Y-15929004D01*
X28560395Y-15923561D01*
X28568153Y-15916583D01*
X28569723Y-15915020D01*
X28577226Y-15906938D01*
X28583100Y-15897696D01*
X28587580Y-15884625D01*
X28590899Y-15865059D01*
X28593294Y-15836332D01*
X28594999Y-15795776D01*
X28596247Y-15740725D01*
X28597275Y-15668513D01*
X28598146Y-15591998D01*
X28601414Y-15294113D01*
X28434747Y-15294113D01*
X28434747Y-14631504D01*
X28026139Y-14631504D01*
X28026139Y-15294113D01*
X27871530Y-15294113D01*
X27871530Y-15591063D01*
X27871624Y-15680304D01*
X27872024Y-15750137D01*
X27872905Y-15803239D01*
X27874441Y-15842289D01*
X27876808Y-15869965D01*
X27880180Y-15888944D01*
X27884733Y-15901906D01*
X27890642Y-15911528D01*
X27892641Y-15914085D01*
X27913752Y-15940156D01*
X28229161Y-15940156D01*
X28320798Y-15940119D01*
X28320798Y-15940119D01*
G37*
X28320798Y-15940119D02*
X28392927Y-15939880D01*
X28448125Y-15939250D01*
X28488971Y-15938037D01*
X28518042Y-15936052D01*
X28537918Y-15933105D01*
X28551177Y-15929004D01*
X28560395Y-15923561D01*
X28568153Y-15916583D01*
X28569723Y-15915020D01*
X28577226Y-15906938D01*
X28583100Y-15897696D01*
X28587580Y-15884625D01*
X28590899Y-15865059D01*
X28593294Y-15836332D01*
X28594999Y-15795776D01*
X28596247Y-15740725D01*
X28597275Y-15668513D01*
X28598146Y-15591998D01*
X28601414Y-15294113D01*
X28434747Y-15294113D01*
X28434747Y-14631504D01*
X28026139Y-14631504D01*
X28026139Y-15294113D01*
X27871530Y-15294113D01*
X27871530Y-15591063D01*
X27871624Y-15680304D01*
X27872024Y-15750137D01*
X27872905Y-15803239D01*
X27874441Y-15842289D01*
X27876808Y-15869965D01*
X27880180Y-15888944D01*
X27884733Y-15901906D01*
X27890642Y-15911528D01*
X27892641Y-15914085D01*
X27913752Y-15940156D01*
X28229161Y-15940156D01*
X28320798Y-15940119D01*
G36*
X28310672Y-16379891D02*
X28358558Y-16346618D01*
X28367470Y-16337192D01*
X28402077Y-16283265D01*
X28417158Y-16225791D01*
X28413505Y-16168723D01*
X28391912Y-16116012D01*
X28353171Y-16071611D01*
X28308615Y-16043925D01*
X28253535Y-16026205D01*
X28202547Y-16027326D01*
X28150081Y-16046379D01*
X28101915Y-16081699D01*
X28068249Y-16130060D01*
X28050741Y-16186533D01*
X28051050Y-16246188D01*
X28066345Y-16295263D01*
X28100302Y-16343488D01*
X28146382Y-16376713D01*
X28199916Y-16394289D01*
X28256236Y-16395565D01*
X28310672Y-16379891D01*
X28310672Y-16379891D01*
G37*
X28310672Y-16379891D02*
X28358558Y-16346618D01*
X28367470Y-16337192D01*
X28402077Y-16283265D01*
X28417158Y-16225791D01*
X28413505Y-16168723D01*
X28391912Y-16116012D01*
X28353171Y-16071611D01*
X28308615Y-16043925D01*
X28253535Y-16026205D01*
X28202547Y-16027326D01*
X28150081Y-16046379D01*
X28101915Y-16081699D01*
X28068249Y-16130060D01*
X28050741Y-16186533D01*
X28051050Y-16246188D01*
X28066345Y-16295263D01*
X28100302Y-16343488D01*
X28146382Y-16376713D01*
X28199916Y-16394289D01*
X28256236Y-16395565D01*
X28310672Y-16379891D01*
G36*
X31655920Y-16230255D02*
X31715920Y-16224567D01*
X31738965Y-16220602D01*
X31776578Y-16210055D01*
X31825094Y-16192753D01*
X31875708Y-16171910D01*
X31890163Y-16165366D01*
X31986153Y-16108845D01*
X32070978Y-16034486D01*
X32142952Y-15944399D01*
X32200391Y-15840697D01*
X32241611Y-15725488D01*
X32241794Y-15724809D01*
X32251308Y-15679892D01*
X32257432Y-15626080D01*
X32260579Y-15558571D01*
X32261233Y-15498417D01*
X32260877Y-15434030D01*
X32259215Y-15385630D01*
X32255471Y-15347122D01*
X32248868Y-15312413D01*
X32238632Y-15275409D01*
X32228990Y-15245183D01*
X32180264Y-15128688D01*
X32115487Y-15027062D01*
X32035070Y-14940786D01*
X31939422Y-14870346D01*
X31885834Y-14841128D01*
X31768828Y-14795386D01*
X31648738Y-14770729D01*
X31527715Y-14767437D01*
X31427530Y-14781255D01*
X31321010Y-14815084D01*
X31224809Y-14867424D01*
X31140859Y-14936352D01*
X31071092Y-15019944D01*
X31017441Y-15116279D01*
X30981837Y-15223433D01*
X30981456Y-15225091D01*
X30965663Y-15294113D01*
X31306052Y-15294113D01*
X31306052Y-15266150D01*
X31310343Y-15237396D01*
X31320899Y-15202838D01*
X31323177Y-15197128D01*
X31359342Y-15137463D01*
X31411497Y-15092614D01*
X31478883Y-15062996D01*
X31560741Y-15049027D01*
X31594729Y-15047908D01*
X31675522Y-15057737D01*
X31746340Y-15086474D01*
X31806514Y-15133000D01*
X31855376Y-15196192D01*
X31892257Y-15274929D01*
X31916488Y-15368089D01*
X31927401Y-15474552D01*
X31924326Y-15593196D01*
X31923767Y-15599729D01*
X31907565Y-15703679D01*
X31878897Y-15789469D01*
X31837633Y-15857256D01*
X31783646Y-15907199D01*
X31716810Y-15939455D01*
X31637758Y-15954130D01*
X31547538Y-15952537D01*
X31469898Y-15934328D01*
X31405880Y-15899996D01*
X31356527Y-15850035D01*
X31332955Y-15809737D01*
X31313257Y-15762737D01*
X31306220Y-15731149D01*
X31312165Y-15712067D01*
X31331414Y-15702583D01*
X31345016Y-15700627D01*
X31383981Y-15697200D01*
X31134525Y-15448714D01*
X31007882Y-15575718D01*
X30881238Y-15702722D01*
X30927782Y-15702722D01*
X30957745Y-15704315D01*
X30972750Y-15711794D01*
X30979852Y-15729206D01*
X30980706Y-15733091D01*
X31015352Y-15853436D01*
X31065285Y-15958722D01*
X31129952Y-16048324D01*
X31208802Y-16121614D01*
X31301283Y-16177965D01*
X31406843Y-16216753D01*
X31406889Y-16216765D01*
X31455346Y-16225398D01*
X31518055Y-16230582D01*
X31587439Y-16232230D01*
X31655920Y-16230255D01*
X31655920Y-16230255D01*
G37*
X31655920Y-16230255D02*
X31715920Y-16224567D01*
X31738965Y-16220602D01*
X31776578Y-16210055D01*
X31825094Y-16192753D01*
X31875708Y-16171910D01*
X31890163Y-16165366D01*
X31986153Y-16108845D01*
X32070978Y-16034486D01*
X32142952Y-15944399D01*
X32200391Y-15840697D01*
X32241611Y-15725488D01*
X32241794Y-15724809D01*
X32251308Y-15679892D01*
X32257432Y-15626080D01*
X32260579Y-15558571D01*
X32261233Y-15498417D01*
X32260877Y-15434030D01*
X32259215Y-15385630D01*
X32255471Y-15347122D01*
X32248868Y-15312413D01*
X32238632Y-15275409D01*
X32228990Y-15245183D01*
X32180264Y-15128688D01*
X32115487Y-15027062D01*
X32035070Y-14940786D01*
X31939422Y-14870346D01*
X31885834Y-14841128D01*
X31768828Y-14795386D01*
X31648738Y-14770729D01*
X31527715Y-14767437D01*
X31427530Y-14781255D01*
X31321010Y-14815084D01*
X31224809Y-14867424D01*
X31140859Y-14936352D01*
X31071092Y-15019944D01*
X31017441Y-15116279D01*
X30981837Y-15223433D01*
X30981456Y-15225091D01*
X30965663Y-15294113D01*
X31306052Y-15294113D01*
X31306052Y-15266150D01*
X31310343Y-15237396D01*
X31320899Y-15202838D01*
X31323177Y-15197128D01*
X31359342Y-15137463D01*
X31411497Y-15092614D01*
X31478883Y-15062996D01*
X31560741Y-15049027D01*
X31594729Y-15047908D01*
X31675522Y-15057737D01*
X31746340Y-15086474D01*
X31806514Y-15133000D01*
X31855376Y-15196192D01*
X31892257Y-15274929D01*
X31916488Y-15368089D01*
X31927401Y-15474552D01*
X31924326Y-15593196D01*
X31923767Y-15599729D01*
X31907565Y-15703679D01*
X31878897Y-15789469D01*
X31837633Y-15857256D01*
X31783646Y-15907199D01*
X31716810Y-15939455D01*
X31637758Y-15954130D01*
X31547538Y-15952537D01*
X31469898Y-15934328D01*
X31405880Y-15899996D01*
X31356527Y-15850035D01*
X31332955Y-15809737D01*
X31313257Y-15762737D01*
X31306220Y-15731149D01*
X31312165Y-15712067D01*
X31331414Y-15702583D01*
X31345016Y-15700627D01*
X31383981Y-15697200D01*
X31134525Y-15448714D01*
X31007882Y-15575718D01*
X30881238Y-15702722D01*
X30927782Y-15702722D01*
X30957745Y-15704315D01*
X30972750Y-15711794D01*
X30979852Y-15729206D01*
X30980706Y-15733091D01*
X31015352Y-15853436D01*
X31065285Y-15958722D01*
X31129952Y-16048324D01*
X31208802Y-16121614D01*
X31301283Y-16177965D01*
X31406843Y-16216753D01*
X31406889Y-16216765D01*
X31455346Y-16225398D01*
X31518055Y-16230582D01*
X31587439Y-16232230D01*
X31655920Y-16230255D01*
G36*
X13220219Y-15779691D02*
X13315244Y-15732276D01*
X13337082Y-15670990D01*
X13354249Y-15533355D01*
X13367082Y-15310641D01*
X13375920Y-14994123D01*
X13381101Y-14575071D01*
X13382961Y-14044757D01*
X13382978Y-13981896D01*
X13382778Y-13488177D01*
X13381518Y-13101401D01*
X13378205Y-12807558D01*
X13371848Y-12592638D01*
X13361455Y-12442633D01*
X13346034Y-12343532D01*
X13324593Y-12281327D01*
X13296140Y-12242006D01*
X13259684Y-12211562D01*
X13257529Y-12209943D01*
X13102293Y-12146051D01*
X12867895Y-12116914D01*
X12805974Y-12115800D01*
X12479867Y-12115800D01*
X12479867Y-13865289D01*
X12480557Y-14380580D01*
X12483053Y-14788160D01*
X12487992Y-15101266D01*
X12496008Y-15333133D01*
X12507740Y-15496998D01*
X12523824Y-15606096D01*
X12544895Y-15673663D01*
X12568565Y-15709813D01*
X12680530Y-15767492D01*
X12855926Y-15799251D01*
X13050556Y-15803761D01*
X13220219Y-15779691D01*
X13220219Y-15779691D01*
G37*
X13220219Y-15779691D02*
X13315244Y-15732276D01*
X13337082Y-15670990D01*
X13354249Y-15533355D01*
X13367082Y-15310641D01*
X13375920Y-14994123D01*
X13381101Y-14575071D01*
X13382961Y-14044757D01*
X13382978Y-13981896D01*
X13382778Y-13488177D01*
X13381518Y-13101401D01*
X13378205Y-12807558D01*
X13371848Y-12592638D01*
X13361455Y-12442633D01*
X13346034Y-12343532D01*
X13324593Y-12281327D01*
X13296140Y-12242006D01*
X13259684Y-12211562D01*
X13257529Y-12209943D01*
X13102293Y-12146051D01*
X12867895Y-12116914D01*
X12805974Y-12115800D01*
X12479867Y-12115800D01*
X12479867Y-13865289D01*
X12480557Y-14380580D01*
X12483053Y-14788160D01*
X12487992Y-15101266D01*
X12496008Y-15333133D01*
X12507740Y-15496998D01*
X12523824Y-15606096D01*
X12544895Y-15673663D01*
X12568565Y-15709813D01*
X12680530Y-15767492D01*
X12855926Y-15799251D01*
X13050556Y-15803761D01*
X13220219Y-15779691D01*
G36*
X15988547Y-15782877D02*
X16042973Y-15730279D01*
X16081002Y-15632183D01*
X16183606Y-15480188D01*
X16346416Y-15402802D01*
X16532442Y-15413114D01*
X16607246Y-15445967D01*
X16687606Y-15478284D01*
X16761957Y-15458251D01*
X16859718Y-15370662D01*
X16951926Y-15267802D01*
X17073670Y-15121365D01*
X17126884Y-15027861D01*
X17123194Y-14955057D01*
X17087794Y-14891138D01*
X17037210Y-14782549D01*
X17047936Y-14666102D01*
X17080119Y-14574815D01*
X17177664Y-14420728D01*
X17286783Y-14351354D01*
X17363600Y-14317809D01*
X17406422Y-14245094D01*
X17428005Y-14101233D01*
X17435532Y-13978395D01*
X17441846Y-13784718D01*
X17427948Y-13678969D01*
X17381389Y-13628412D01*
X17291957Y-13600835D01*
X17139565Y-13510893D01*
X17050834Y-13352933D01*
X17041311Y-13168352D01*
X17085901Y-13052164D01*
X17130367Y-12963473D01*
X17124189Y-12888582D01*
X17055466Y-12791367D01*
X16968495Y-12695743D01*
X16825980Y-12553589D01*
X16724274Y-12491242D01*
X16630950Y-12496465D01*
X16547704Y-12536933D01*
X16425064Y-12559523D01*
X16279614Y-12527693D01*
X16154618Y-12458582D01*
X16093342Y-12369328D01*
X16092311Y-12356541D01*
X16054709Y-12230699D01*
X16024578Y-12188371D01*
X15928808Y-12146167D01*
X15768912Y-12123794D01*
X15592503Y-12123854D01*
X15447193Y-12148945D01*
X15429089Y-12155852D01*
X15372621Y-12233715D01*
X15358533Y-12319247D01*
X15309166Y-12436195D01*
X15188789Y-12524535D01*
X15038983Y-12564390D01*
X14903140Y-12536933D01*
X14783548Y-12487453D01*
X14679961Y-12505630D01*
X14560096Y-12603383D01*
X14476303Y-12694510D01*
X14363209Y-12836043D01*
X14322960Y-12933793D01*
X14342264Y-13022154D01*
X14346396Y-13030676D01*
X14387128Y-13219749D01*
X14343332Y-13406085D01*
X14229390Y-13545620D01*
X14167645Y-13578365D01*
X14075982Y-13620732D01*
X14027006Y-13682758D01*
X14007404Y-13798423D01*
X14003867Y-13996478D01*
X14004942Y-14065304D01*
X14759182Y-14065304D01*
X14771553Y-13770317D01*
X14875329Y-13488971D01*
X14950324Y-13377571D01*
X15080351Y-13237175D01*
X15235704Y-13103441D01*
X15381955Y-13003056D01*
X15484680Y-12962704D01*
X15485533Y-12962692D01*
X15511557Y-13016384D01*
X15526480Y-13151450D01*
X15527867Y-13215592D01*
X15495192Y-13452204D01*
X15402149Y-13612097D01*
X15300709Y-13799544D01*
X15271651Y-14017878D01*
X15571470Y-14017878D01*
X15580736Y-13909040D01*
X15594839Y-13886256D01*
X15699825Y-13822032D01*
X15801931Y-13856193D01*
X15855146Y-13966233D01*
X15832964Y-14102135D01*
X15789676Y-14165046D01*
X15702573Y-14183990D01*
X15620960Y-14122232D01*
X15571470Y-14017878D01*
X15271651Y-14017878D01*
X15271560Y-14018556D01*
X15314335Y-14225292D01*
X15408402Y-14359875D01*
X15582278Y-14448735D01*
X15784825Y-14467018D01*
X15963372Y-14411828D01*
X15991314Y-14391924D01*
X16108224Y-14234333D01*
X16174379Y-14024595D01*
X16172294Y-13840909D01*
X16107526Y-13698623D01*
X16002869Y-13562421D01*
X15895625Y-13397145D01*
X15866533Y-13193829D01*
X15879217Y-13034368D01*
X15930793Y-12972608D01*
X16041550Y-12998135D01*
X16144835Y-13051009D01*
X16366900Y-13231022D01*
X16553214Y-13487872D01*
X16664186Y-13751382D01*
X16695154Y-14056077D01*
X16629313Y-14351372D01*
X16482221Y-14616265D01*
X16269436Y-14829752D01*
X16006518Y-14970830D01*
X15725422Y-15018657D01*
X15427760Y-14966691D01*
X15172505Y-14824624D01*
X14969458Y-14613205D01*
X14828417Y-14353182D01*
X14759182Y-14065304D01*
X14004942Y-14065304D01*
X14006977Y-14195539D01*
X14023844Y-14302301D01*
X14065770Y-14345386D01*
X14144059Y-14353419D01*
X14144816Y-14353419D01*
X14278198Y-14405713D01*
X14369982Y-14536355D01*
X14404539Y-14705986D01*
X14366245Y-14875247D01*
X14357982Y-14890340D01*
X14315507Y-14978488D01*
X14320153Y-15053186D01*
X14384123Y-15148199D01*
X14495868Y-15271880D01*
X14628224Y-15406323D01*
X14717520Y-15466132D01*
X14796775Y-15466034D01*
X14866257Y-15437088D01*
X15034486Y-15403121D01*
X15200604Y-15443162D01*
X15325722Y-15541181D01*
X15369442Y-15644454D01*
X15394019Y-15720305D01*
X15460810Y-15763077D01*
X15597924Y-15785179D01*
X15704874Y-15792540D01*
X15886712Y-15798999D01*
X15988547Y-15782877D01*
X15988547Y-15782877D01*
G37*
X15988547Y-15782877D02*
X16042973Y-15730279D01*
X16081002Y-15632183D01*
X16183606Y-15480188D01*
X16346416Y-15402802D01*
X16532442Y-15413114D01*
X16607246Y-15445967D01*
X16687606Y-15478284D01*
X16761957Y-15458251D01*
X16859718Y-15370662D01*
X16951926Y-15267802D01*
X17073670Y-15121365D01*
X17126884Y-15027861D01*
X17123194Y-14955057D01*
X17087794Y-14891138D01*
X17037210Y-14782549D01*
X17047936Y-14666102D01*
X17080119Y-14574815D01*
X17177664Y-14420728D01*
X17286783Y-14351354D01*
X17363600Y-14317809D01*
X17406422Y-14245094D01*
X17428005Y-14101233D01*
X17435532Y-13978395D01*
X17441846Y-13784718D01*
X17427948Y-13678969D01*
X17381389Y-13628412D01*
X17291957Y-13600835D01*
X17139565Y-13510893D01*
X17050834Y-13352933D01*
X17041311Y-13168352D01*
X17085901Y-13052164D01*
X17130367Y-12963473D01*
X17124189Y-12888582D01*
X17055466Y-12791367D01*
X16968495Y-12695743D01*
X16825980Y-12553589D01*
X16724274Y-12491242D01*
X16630950Y-12496465D01*
X16547704Y-12536933D01*
X16425064Y-12559523D01*
X16279614Y-12527693D01*
X16154618Y-12458582D01*
X16093342Y-12369328D01*
X16092311Y-12356541D01*
X16054709Y-12230699D01*
X16024578Y-12188371D01*
X15928808Y-12146167D01*
X15768912Y-12123794D01*
X15592503Y-12123854D01*
X15447193Y-12148945D01*
X15429089Y-12155852D01*
X15372621Y-12233715D01*
X15358533Y-12319247D01*
X15309166Y-12436195D01*
X15188789Y-12524535D01*
X15038983Y-12564390D01*
X14903140Y-12536933D01*
X14783548Y-12487453D01*
X14679961Y-12505630D01*
X14560096Y-12603383D01*
X14476303Y-12694510D01*
X14363209Y-12836043D01*
X14322960Y-12933793D01*
X14342264Y-13022154D01*
X14346396Y-13030676D01*
X14387128Y-13219749D01*
X14343332Y-13406085D01*
X14229390Y-13545620D01*
X14167645Y-13578365D01*
X14075982Y-13620732D01*
X14027006Y-13682758D01*
X14007404Y-13798423D01*
X14003867Y-13996478D01*
X14004942Y-14065304D01*
X14759182Y-14065304D01*
X14771553Y-13770317D01*
X14875329Y-13488971D01*
X14950324Y-13377571D01*
X15080351Y-13237175D01*
X15235704Y-13103441D01*
X15381955Y-13003056D01*
X15484680Y-12962704D01*
X15485533Y-12962692D01*
X15511557Y-13016384D01*
X15526480Y-13151450D01*
X15527867Y-13215592D01*
X15495192Y-13452204D01*
X15402149Y-13612097D01*
X15300709Y-13799544D01*
X15271651Y-14017878D01*
X15571470Y-14017878D01*
X15580736Y-13909040D01*
X15594839Y-13886256D01*
X15699825Y-13822032D01*
X15801931Y-13856193D01*
X15855146Y-13966233D01*
X15832964Y-14102135D01*
X15789676Y-14165046D01*
X15702573Y-14183990D01*
X15620960Y-14122232D01*
X15571470Y-14017878D01*
X15271651Y-14017878D01*
X15271560Y-14018556D01*
X15314335Y-14225292D01*
X15408402Y-14359875D01*
X15582278Y-14448735D01*
X15784825Y-14467018D01*
X15963372Y-14411828D01*
X15991314Y-14391924D01*
X16108224Y-14234333D01*
X16174379Y-14024595D01*
X16172294Y-13840909D01*
X16107526Y-13698623D01*
X16002869Y-13562421D01*
X15895625Y-13397145D01*
X15866533Y-13193829D01*
X15879217Y-13034368D01*
X15930793Y-12972608D01*
X16041550Y-12998135D01*
X16144835Y-13051009D01*
X16366900Y-13231022D01*
X16553214Y-13487872D01*
X16664186Y-13751382D01*
X16695154Y-14056077D01*
X16629313Y-14351372D01*
X16482221Y-14616265D01*
X16269436Y-14829752D01*
X16006518Y-14970830D01*
X15725422Y-15018657D01*
X15427760Y-14966691D01*
X15172505Y-14824624D01*
X14969458Y-14613205D01*
X14828417Y-14353182D01*
X14759182Y-14065304D01*
X14004942Y-14065304D01*
X14006977Y-14195539D01*
X14023844Y-14302301D01*
X14065770Y-14345386D01*
X14144059Y-14353419D01*
X14144816Y-14353419D01*
X14278198Y-14405713D01*
X14369982Y-14536355D01*
X14404539Y-14705986D01*
X14366245Y-14875247D01*
X14357982Y-14890340D01*
X14315507Y-14978488D01*
X14320153Y-15053186D01*
X14384123Y-15148199D01*
X14495868Y-15271880D01*
X14628224Y-15406323D01*
X14717520Y-15466132D01*
X14796775Y-15466034D01*
X14866257Y-15437088D01*
X15034486Y-15403121D01*
X15200604Y-15443162D01*
X15325722Y-15541181D01*
X15369442Y-15644454D01*
X15394019Y-15720305D01*
X15460810Y-15763077D01*
X15597924Y-15785179D01*
X15704874Y-15792540D01*
X15886712Y-15798999D01*
X15988547Y-15782877D01*
G36*
X19930533Y-16768491D02*
X19922934Y-16494569D01*
X19887086Y-16319387D01*
X19803409Y-16221091D01*
X19652325Y-16177824D01*
X19414256Y-16167733D01*
X19392325Y-16167704D01*
X18970978Y-16167704D01*
X18970978Y-14262704D01*
X18970688Y-13731637D01*
X18969328Y-13308272D01*
X18966160Y-12979360D01*
X18960443Y-12731653D01*
X18951442Y-12551900D01*
X18938416Y-12426853D01*
X18920629Y-12343262D01*
X18897341Y-12287879D01*
X18867815Y-12247453D01*
X18858089Y-12236752D01*
X18702726Y-12144884D01*
X18498911Y-12116957D01*
X18295126Y-12154925D01*
X18193315Y-12209943D01*
X18158662Y-12238137D01*
X18131062Y-12273652D01*
X18109712Y-12329449D01*
X18093810Y-12418487D01*
X18082554Y-12553726D01*
X18075140Y-12748125D01*
X18070767Y-13014644D01*
X18068632Y-13366243D01*
X18067932Y-13815881D01*
X18067867Y-14235896D01*
X18067867Y-16167704D01*
X17653281Y-16167704D01*
X17419962Y-16174333D01*
X17270897Y-16198304D01*
X17177938Y-16245746D01*
X17145281Y-16278300D01*
X17070484Y-16443579D01*
X17051495Y-16659105D01*
X17086885Y-16870871D01*
X17164755Y-17014371D01*
X17206513Y-17052813D01*
X17260496Y-17082134D01*
X17341328Y-17103562D01*
X17463630Y-17118326D01*
X17642025Y-17127655D01*
X17891134Y-17132778D01*
X18225579Y-17134923D01*
X18604089Y-17135323D01*
X19930533Y-17135323D01*
X19930533Y-16768491D01*
X19930533Y-16768491D01*
G37*
X19930533Y-16768491D02*
X19922934Y-16494569D01*
X19887086Y-16319387D01*
X19803409Y-16221091D01*
X19652325Y-16177824D01*
X19414256Y-16167733D01*
X19392325Y-16167704D01*
X18970978Y-16167704D01*
X18970978Y-14262704D01*
X18970688Y-13731637D01*
X18969328Y-13308272D01*
X18966160Y-12979360D01*
X18960443Y-12731653D01*
X18951442Y-12551900D01*
X18938416Y-12426853D01*
X18920629Y-12343262D01*
X18897341Y-12287879D01*
X18867815Y-12247453D01*
X18858089Y-12236752D01*
X18702726Y-12144884D01*
X18498911Y-12116957D01*
X18295126Y-12154925D01*
X18193315Y-12209943D01*
X18158662Y-12238137D01*
X18131062Y-12273652D01*
X18109712Y-12329449D01*
X18093810Y-12418487D01*
X18082554Y-12553726D01*
X18075140Y-12748125D01*
X18070767Y-13014644D01*
X18068632Y-13366243D01*
X18067932Y-13815881D01*
X18067867Y-14235896D01*
X18067867Y-16167704D01*
X17653281Y-16167704D01*
X17419962Y-16174333D01*
X17270897Y-16198304D01*
X17177938Y-16245746D01*
X17145281Y-16278300D01*
X17070484Y-16443579D01*
X17051495Y-16659105D01*
X17086885Y-16870871D01*
X17164755Y-17014371D01*
X17206513Y-17052813D01*
X17260496Y-17082134D01*
X17341328Y-17103562D01*
X17463630Y-17118326D01*
X17642025Y-17127655D01*
X17891134Y-17132778D01*
X18225579Y-17134923D01*
X18604089Y-17135323D01*
X19930533Y-17135323D01*
X19930533Y-16768491D01*
G36*
X12826928Y-17122964D02*
X13095638Y-17073956D01*
X13270453Y-16969835D01*
X13362171Y-16800727D01*
X13382978Y-16614576D01*
X13337243Y-16388684D01*
X13205750Y-16237800D01*
X12997065Y-16170478D01*
X12935519Y-16167704D01*
X12758417Y-16191475D01*
X12635014Y-16279441D01*
X12596852Y-16327051D01*
X12516902Y-16485343D01*
X12482891Y-16699005D01*
X12479867Y-16818129D01*
X12479867Y-17149860D01*
X12826928Y-17122964D01*
X12826928Y-17122964D01*
G37*
X12826928Y-17122964D02*
X13095638Y-17073956D01*
X13270453Y-16969835D01*
X13362171Y-16800727D01*
X13382978Y-16614576D01*
X13337243Y-16388684D01*
X13205750Y-16237800D01*
X12997065Y-16170478D01*
X12935519Y-16167704D01*
X12758417Y-16191475D01*
X12635014Y-16279441D01*
X12596852Y-16327051D01*
X12516902Y-16485343D01*
X12482891Y-16699005D01*
X12479867Y-16818129D01*
X12479867Y-17149860D01*
X12826928Y-17122964D01*
G36*
X38294761Y-17296987D02*
X38404745Y-17295849D01*
X38485623Y-17294141D01*
X38528417Y-17292019D01*
X38532872Y-17291050D01*
X38537702Y-17265220D01*
X38550276Y-17198403D01*
X38568909Y-17099529D01*
X38591920Y-16977531D01*
X38602993Y-16918852D01*
X38672042Y-16553004D01*
X38934568Y-16443216D01*
X39032598Y-16401492D01*
X39106580Y-16372387D01*
X39165993Y-16357963D01*
X39220315Y-16360283D01*
X39279024Y-16381410D01*
X39351598Y-16423405D01*
X39447516Y-16488333D01*
X39576256Y-16578254D01*
X39585900Y-16584953D01*
X39839900Y-16761265D01*
X40087550Y-16515459D01*
X40177893Y-16423769D01*
X40253478Y-16343208D01*
X40307663Y-16281150D01*
X40333808Y-16244968D01*
X40335199Y-16240496D01*
X40321596Y-16209668D01*
X40284354Y-16145829D01*
X40228827Y-16057684D01*
X40160369Y-15953937D01*
X40144699Y-15930759D01*
X40074002Y-15823140D01*
X40015410Y-15727289D01*
X39974309Y-15652516D01*
X39956082Y-15608132D01*
X39955651Y-15603840D01*
X39966276Y-15562071D01*
X39993776Y-15486382D01*
X40033534Y-15388884D01*
X40065264Y-15316200D01*
X40173426Y-15074900D01*
X40349563Y-15041856D01*
X40472126Y-15018116D01*
X40610174Y-14990282D01*
X40709850Y-14969457D01*
X40894000Y-14930101D01*
X40894000Y-14204108D01*
X40595550Y-14149670D01*
X40473521Y-14127279D01*
X40365864Y-14107282D01*
X40284716Y-14091949D01*
X40243583Y-14083844D01*
X40214926Y-14067083D01*
X40182793Y-14024397D01*
X40143426Y-13949199D01*
X40093067Y-13834900D01*
X40070566Y-13780574D01*
X39951067Y-13488692D01*
X40143133Y-13210271D01*
X40214396Y-13104537D01*
X40273690Y-13011929D01*
X40315575Y-12941294D01*
X40334613Y-12901476D01*
X40335200Y-12897974D01*
X40317879Y-12864994D01*
X40271403Y-12807946D01*
X40203997Y-12734805D01*
X40123888Y-12653546D01*
X40039303Y-12572145D01*
X39958468Y-12498576D01*
X39889610Y-12440814D01*
X39840956Y-12406835D01*
X39823119Y-12401547D01*
X39789931Y-12420447D01*
X39724230Y-12462130D01*
X39635331Y-12520556D01*
X39532553Y-12589686D01*
X39526114Y-12594067D01*
X39263128Y-12773063D01*
X39126205Y-12705910D01*
X39041091Y-12669739D01*
X38984881Y-12657653D01*
X38968465Y-12663029D01*
X38950678Y-12695382D01*
X38918791Y-12763979D01*
X38877714Y-12857954D01*
X38842695Y-12941300D01*
X38789615Y-13069762D01*
X38725706Y-13224430D01*
X38659540Y-13384561D01*
X38607105Y-13511461D01*
X38476466Y-13827622D01*
X38548342Y-13879761D01*
X38673653Y-13979493D01*
X38765450Y-14076207D01*
X38837539Y-14185360D01*
X38860810Y-14229644D01*
X38925208Y-14410023D01*
X38943035Y-14590938D01*
X38918044Y-14765973D01*
X38853986Y-14928712D01*
X38754611Y-15072736D01*
X38623673Y-15191631D01*
X38464922Y-15278980D01*
X38282110Y-15328365D01*
X38214300Y-15335421D01*
X38020697Y-15324578D01*
X37844987Y-15270709D01*
X37691581Y-15179765D01*
X37564887Y-15057698D01*
X37469317Y-14910458D01*
X37409279Y-14743998D01*
X37389185Y-14564268D01*
X37413444Y-14377221D01*
X37440445Y-14291072D01*
X37506523Y-14164330D01*
X37606081Y-14034730D01*
X37725611Y-13918718D01*
X37781484Y-13875911D01*
X37856668Y-13823153D01*
X37720840Y-13496527D01*
X37623689Y-13262705D01*
X37544832Y-13072442D01*
X37482917Y-12922445D01*
X37436592Y-12809426D01*
X37404507Y-12730094D01*
X37385309Y-12681159D01*
X37380169Y-12667202D01*
X37367659Y-12644620D01*
X37344575Y-12640563D01*
X37299780Y-12657154D01*
X37222139Y-12696514D01*
X37219755Y-12697769D01*
X37141130Y-12734676D01*
X37078591Y-12755867D01*
X37047910Y-12757208D01*
X37017170Y-12736974D01*
X36953866Y-12694253D01*
X36867290Y-12635345D01*
X36768687Y-12567891D01*
X36669980Y-12501003D01*
X36586851Y-12446184D01*
X36527981Y-12409054D01*
X36502053Y-12395234D01*
X36501987Y-12395232D01*
X36479422Y-12412082D01*
X36427888Y-12458264D01*
X36354411Y-12527265D01*
X36266018Y-12612571D01*
X36239450Y-12638592D01*
X36149022Y-12729000D01*
X36073390Y-12807588D01*
X36019212Y-12867206D01*
X35993152Y-12900707D01*
X35991800Y-12904382D01*
X36005612Y-12932748D01*
X36043267Y-12993635D01*
X36099086Y-13078221D01*
X36167392Y-13177681D01*
X36170613Y-13182285D01*
X36240744Y-13283666D01*
X36300204Y-13371861D01*
X36342790Y-13437519D01*
X36362301Y-13471285D01*
X36362411Y-13471565D01*
X36358627Y-13508745D01*
X36338021Y-13580115D01*
X36305292Y-13673850D01*
X36265142Y-13778124D01*
X36222271Y-13881114D01*
X36181380Y-13970993D01*
X36147171Y-14035938D01*
X36127656Y-14062089D01*
X36081175Y-14083715D01*
X36008580Y-14102591D01*
X35984918Y-14106643D01*
X35909165Y-14118908D01*
X35803205Y-14137329D01*
X35686713Y-14158464D01*
X35655250Y-14164331D01*
X35433000Y-14206055D01*
X35432999Y-14568523D01*
X35432999Y-14930991D01*
X35553649Y-14956459D01*
X35634877Y-14972849D01*
X35746196Y-14994332D01*
X35867687Y-15017085D01*
X35908164Y-15024503D01*
X36012770Y-15046112D01*
X36098405Y-15068581D01*
X36152635Y-15088416D01*
X36164190Y-15096390D01*
X36182857Y-15130906D01*
X36215885Y-15201142D01*
X36258133Y-15295908D01*
X36292364Y-15375380D01*
X36398377Y-15625059D01*
X36195088Y-15922618D01*
X36122101Y-16031133D01*
X36060811Y-16125464D01*
X36016390Y-16197398D01*
X35994013Y-16238726D01*
X35992346Y-16244439D01*
X36009580Y-16270358D01*
X36056470Y-16324636D01*
X36126431Y-16400033D01*
X36212876Y-16489310D01*
X36240252Y-16516928D01*
X36487612Y-16765155D01*
X36805517Y-16547704D01*
X37123423Y-16330253D01*
X37389461Y-16439381D01*
X37655500Y-16548508D01*
X37710071Y-16827704D01*
X37734095Y-16951618D01*
X37756097Y-17066900D01*
X37773223Y-17158504D01*
X37781072Y-17202150D01*
X37797501Y-17297400D01*
X38164650Y-17297400D01*
X38294761Y-17296987D01*
X38294761Y-17296987D01*
G37*
X38294761Y-17296987D02*
X38404745Y-17295849D01*
X38485623Y-17294141D01*
X38528417Y-17292019D01*
X38532872Y-17291050D01*
X38537702Y-17265220D01*
X38550276Y-17198403D01*
X38568909Y-17099529D01*
X38591920Y-16977531D01*
X38602993Y-16918852D01*
X38672042Y-16553004D01*
X38934568Y-16443216D01*
X39032598Y-16401492D01*
X39106580Y-16372387D01*
X39165993Y-16357963D01*
X39220315Y-16360283D01*
X39279024Y-16381410D01*
X39351598Y-16423405D01*
X39447516Y-16488333D01*
X39576256Y-16578254D01*
X39585900Y-16584953D01*
X39839900Y-16761265D01*
X40087550Y-16515459D01*
X40177893Y-16423769D01*
X40253478Y-16343208D01*
X40307663Y-16281150D01*
X40333808Y-16244968D01*
X40335199Y-16240496D01*
X40321596Y-16209668D01*
X40284354Y-16145829D01*
X40228827Y-16057684D01*
X40160369Y-15953937D01*
X40144699Y-15930759D01*
X40074002Y-15823140D01*
X40015410Y-15727289D01*
X39974309Y-15652516D01*
X39956082Y-15608132D01*
X39955651Y-15603840D01*
X39966276Y-15562071D01*
X39993776Y-15486382D01*
X40033534Y-15388884D01*
X40065264Y-15316200D01*
X40173426Y-15074900D01*
X40349563Y-15041856D01*
X40472126Y-15018116D01*
X40610174Y-14990282D01*
X40709850Y-14969457D01*
X40894000Y-14930101D01*
X40894000Y-14204108D01*
X40595550Y-14149670D01*
X40473521Y-14127279D01*
X40365864Y-14107282D01*
X40284716Y-14091949D01*
X40243583Y-14083844D01*
X40214926Y-14067083D01*
X40182793Y-14024397D01*
X40143426Y-13949199D01*
X40093067Y-13834900D01*
X40070566Y-13780574D01*
X39951067Y-13488692D01*
X40143133Y-13210271D01*
X40214396Y-13104537D01*
X40273690Y-13011929D01*
X40315575Y-12941294D01*
X40334613Y-12901476D01*
X40335200Y-12897974D01*
X40317879Y-12864994D01*
X40271403Y-12807946D01*
X40203997Y-12734805D01*
X40123888Y-12653546D01*
X40039303Y-12572145D01*
X39958468Y-12498576D01*
X39889610Y-12440814D01*
X39840956Y-12406835D01*
X39823119Y-12401547D01*
X39789931Y-12420447D01*
X39724230Y-12462130D01*
X39635331Y-12520556D01*
X39532553Y-12589686D01*
X39526114Y-12594067D01*
X39263128Y-12773063D01*
X39126205Y-12705910D01*
X39041091Y-12669739D01*
X38984881Y-12657653D01*
X38968465Y-12663029D01*
X38950678Y-12695382D01*
X38918791Y-12763979D01*
X38877714Y-12857954D01*
X38842695Y-12941300D01*
X38789615Y-13069762D01*
X38725706Y-13224430D01*
X38659540Y-13384561D01*
X38607105Y-13511461D01*
X38476466Y-13827622D01*
X38548342Y-13879761D01*
X38673653Y-13979493D01*
X38765450Y-14076207D01*
X38837539Y-14185360D01*
X38860810Y-14229644D01*
X38925208Y-14410023D01*
X38943035Y-14590938D01*
X38918044Y-14765973D01*
X38853986Y-14928712D01*
X38754611Y-15072736D01*
X38623673Y-15191631D01*
X38464922Y-15278980D01*
X38282110Y-15328365D01*
X38214300Y-15335421D01*
X38020697Y-15324578D01*
X37844987Y-15270709D01*
X37691581Y-15179765D01*
X37564887Y-15057698D01*
X37469317Y-14910458D01*
X37409279Y-14743998D01*
X37389185Y-14564268D01*
X37413444Y-14377221D01*
X37440445Y-14291072D01*
X37506523Y-14164330D01*
X37606081Y-14034730D01*
X37725611Y-13918718D01*
X37781484Y-13875911D01*
X37856668Y-13823153D01*
X37720840Y-13496527D01*
X37623689Y-13262705D01*
X37544832Y-13072442D01*
X37482917Y-12922445D01*
X37436592Y-12809426D01*
X37404507Y-12730094D01*
X37385309Y-12681159D01*
X37380169Y-12667202D01*
X37367659Y-12644620D01*
X37344575Y-12640563D01*
X37299780Y-12657154D01*
X37222139Y-12696514D01*
X37219755Y-12697769D01*
X37141130Y-12734676D01*
X37078591Y-12755867D01*
X37047910Y-12757208D01*
X37017170Y-12736974D01*
X36953866Y-12694253D01*
X36867290Y-12635345D01*
X36768687Y-12567891D01*
X36669980Y-12501003D01*
X36586851Y-12446184D01*
X36527981Y-12409054D01*
X36502053Y-12395234D01*
X36501987Y-12395232D01*
X36479422Y-12412082D01*
X36427888Y-12458264D01*
X36354411Y-12527265D01*
X36266018Y-12612571D01*
X36239450Y-12638592D01*
X36149022Y-12729000D01*
X36073390Y-12807588D01*
X36019212Y-12867206D01*
X35993152Y-12900707D01*
X35991800Y-12904382D01*
X36005612Y-12932748D01*
X36043267Y-12993635D01*
X36099086Y-13078221D01*
X36167392Y-13177681D01*
X36170613Y-13182285D01*
X36240744Y-13283666D01*
X36300204Y-13371861D01*
X36342790Y-13437519D01*
X36362301Y-13471285D01*
X36362411Y-13471565D01*
X36358627Y-13508745D01*
X36338021Y-13580115D01*
X36305292Y-13673850D01*
X36265142Y-13778124D01*
X36222271Y-13881114D01*
X36181380Y-13970993D01*
X36147171Y-14035938D01*
X36127656Y-14062089D01*
X36081175Y-14083715D01*
X36008580Y-14102591D01*
X35984918Y-14106643D01*
X35909165Y-14118908D01*
X35803205Y-14137329D01*
X35686713Y-14158464D01*
X35655250Y-14164331D01*
X35433000Y-14206055D01*
X35432999Y-14568523D01*
X35432999Y-14930991D01*
X35553649Y-14956459D01*
X35634877Y-14972849D01*
X35746196Y-14994332D01*
X35867687Y-15017085D01*
X35908164Y-15024503D01*
X36012770Y-15046112D01*
X36098405Y-15068581D01*
X36152635Y-15088416D01*
X36164190Y-15096390D01*
X36182857Y-15130906D01*
X36215885Y-15201142D01*
X36258133Y-15295908D01*
X36292364Y-15375380D01*
X36398377Y-15625059D01*
X36195088Y-15922618D01*
X36122101Y-16031133D01*
X36060811Y-16125464D01*
X36016390Y-16197398D01*
X35994013Y-16238726D01*
X35992346Y-16244439D01*
X36009580Y-16270358D01*
X36056470Y-16324636D01*
X36126431Y-16400033D01*
X36212876Y-16489310D01*
X36240252Y-16516928D01*
X36487612Y-16765155D01*
X36805517Y-16547704D01*
X37123423Y-16330253D01*
X37389461Y-16439381D01*
X37655500Y-16548508D01*
X37710071Y-16827704D01*
X37734095Y-16951618D01*
X37756097Y-17066900D01*
X37773223Y-17158504D01*
X37781072Y-17202150D01*
X37797501Y-17297400D01*
X38164650Y-17297400D01*
X38294761Y-17296987D01*
M02*
